<svg id="Слой_1" data-name="Слой 1" xmlns="http://www.w3.org/2000/svg" viewBox="0 0 192 48"><defs><style>.cls-1{fill:#ccc;}</style></defs><title>srv_remove-filter</title><rect class="cls-1" width="192" height="48"/><path d="M-168.91-211.22a2.47,2.47,0,0,0-2.12,1,4.78,4.78,0,0,0-.75,2.86q0,3.82,2.87,3.82a9.06,9.06,0,0,0,2.91-.6v2a8.09,8.09,0,0,1-3.14.59A4.79,4.79,0,0,1-173-203a6.4,6.4,0,0,1-1.32-4.34,7.08,7.08,0,0,1,.65-3.12,4.69,4.69,0,0,1,1.86-2.05,5.51,5.51,0,0,1,2.85-.71,7.69,7.69,0,0,1,3.34.8l-0.78,2a13,13,0,0,0-1.29-.53A3.85,3.85,0,0,0-168.91-211.22Z" transform="translate(197.89 229.87)"/><path d="M-164.29-206.88a7.66,7.66,0,0,1,1.14-4.57,5.31,5.31,0,0,1,3.57-2q1.18-.2,3.52-0.52l0.27,2.08q-1,.12-3.6.5a3.93,3.93,0,0,0-1.47.47,1.88,1.88,0,0,0-.72.89,4.83,4.83,0,0,0-.29,1.54h0.12a2.77,2.77,0,0,1,1.09-1,3.19,3.19,0,0,1,1.46-.34,3.23,3.23,0,0,1,2.52,1,4.07,4.07,0,0,1,.9,2.83,4.55,4.55,0,0,1-1.14,3.3,4.16,4.16,0,0,1-3.14,1.18,3.74,3.74,0,0,1-3.12-1.43A6.27,6.27,0,0,1-164.29-206.88Zm4.38,3.46q1.69,0,1.7-2.34t-1.53-2.27a2,2,0,0,0-.84.2,3.06,3.06,0,0,0-.77.51,2.31,2.31,0,0,0-.51.64,4.73,4.73,0,0,0,.51,2.43A1.6,1.6,0,0,0-159.91-203.42Z" transform="translate(197.89 229.87)"/><path d="M-149-201.49a2.9,2.9,0,0,1-2.41-1.12h-0.12q0.12,1.09.13,1.27v3.54h-2.38v-12.58h1.94l0.34,1.13h0.11a2.76,2.76,0,0,1,2.48-1.3,2.83,2.83,0,0,1,2.42,1.2,5.53,5.53,0,0,1,.88,3.32,6.56,6.56,0,0,1-.41,2.43,3.41,3.41,0,0,1-1.17,1.57A3,3,0,0,1-149-201.49Zm-0.7-7.15a1.5,1.5,0,0,0-1.29.54,3.12,3.12,0,0,0-.42,1.79V-206a3.68,3.68,0,0,0,.42,2,1.49,1.49,0,0,0,1.32.61q1.6,0,1.6-2.64a3.77,3.77,0,0,0-.39-1.93A1.35,1.35,0,0,0-149.71-208.64Z" transform="translate(197.89 229.87)"/><path d="M-135.74-206a4.69,4.69,0,0,1-1.12,3.34,4.08,4.08,0,0,1-3.13,1.2,4.38,4.38,0,0,1-2.22-.55,3.66,3.66,0,0,1-1.48-1.58,5.32,5.32,0,0,1-.52-2.41,4.67,4.67,0,0,1,1.12-3.33,4.1,4.1,0,0,1,3.14-1.19,4.41,4.41,0,0,1,2.22.55,3.65,3.65,0,0,1,1.48,1.57A5.27,5.27,0,0,1-135.74-206Zm-6,0a3.66,3.66,0,0,0,.43,2,1.52,1.52,0,0,0,1.39.66,1.5,1.5,0,0,0,1.37-.66,3.72,3.72,0,0,0,.42-2,3.61,3.61,0,0,0-.42-1.95,1.53,1.53,0,0,0-1.38-.65,1.52,1.52,0,0,0-1.37.64A3.6,3.6,0,0,0-141.78-206Z" transform="translate(197.89 229.87)"/><path d="M-130.23-201.49q-4.08,0-4.08-4.48a4.78,4.78,0,0,1,1.11-3.4,4.16,4.16,0,0,1,3.18-1.18,6.06,6.06,0,0,1,2.72.59l-0.7,1.84q-0.56-.23-1-0.37a3.38,3.38,0,0,0-1-.14q-1.86,0-1.86,2.64t1.86,2.56a4.25,4.25,0,0,0,1.27-.18,4.58,4.58,0,0,0,1.17-.57v2a3.83,3.83,0,0,1-1.17.51A6.57,6.57,0,0,1-130.23-201.49Z" transform="translate(197.89 229.87)"/><path d="M-123.24-210.38v3.45q0,0.55-.18,2.67l4-6.12h2.87v8.73h-2.3v-3.48q0-.93.16-2.62l-4,6.11h-2.86v-8.73h2.3Z" transform="translate(197.89 229.87)"/><path d="M-106.8-210.38v1.79h-2.86v6.95H-112v-6.95h-2.87v-1.79h8.11Z" transform="translate(197.89 229.87)"/><path d="M-102.79-207h1.68a5.5,5.5,0,0,1,3,.64,2.17,2.17,0,0,1,1,1.94q0,2.78-3.86,2.78h-4.16v-8.73h2.38V-207Zm3.25,2.61a0.78,0.78,0,0,0-.41-0.73,2.55,2.55,0,0,0-1.21-.23h-1.63v2.06h1.66Q-99.54-203.3-99.54-204.4Z" transform="translate(197.89 229.87)"/><path d="M-84.81-210.43a5.49,5.49,0,0,1,3.43,1.35A4,4,0,0,1-80.14-206a4.05,4.05,0,0,1-1.23,3.09,5.5,5.5,0,0,1-3.45,1.34v3.78H-87v-3.78A5.6,5.6,0,0,1-90.48-203a4,4,0,0,1-1.25-3,4.1,4.1,0,0,1,1.2-3.12,5.42,5.42,0,0,1,3.5-1.29v-3.37h2.21v3.38ZM-89.27-206a2.63,2.63,0,0,0,.6,1.79,2.55,2.55,0,0,0,1.65.83v-5.25a2.51,2.51,0,0,0-1.63.85A2.62,2.62,0,0,0-89.27-206Zm6.69,0a2.63,2.63,0,0,0-.59-1.74,2.49,2.49,0,0,0-1.64-.86v5.22a2.5,2.5,0,0,0,1.63-.84A2.66,2.66,0,0,0-82.59-206Z" transform="translate(197.89 229.87)"/><path d="M-75.87-210.38v3.45q0,0.55-.18,2.67l4-6.12h2.87v8.73h-2.3v-3.48q0-.93.16-2.62l-4,6.11h-2.86v-8.73h2.3Z" transform="translate(197.89 229.87)"/><path d="M-58.83-201.65h-2.38v-6.95h-2.2a30.32,30.32,0,0,1-.61,4.37,4.78,4.78,0,0,1-1,2.09,2,2,0,0,1-1.57.64,3.2,3.2,0,0,1-1.36-.25v-1.91a2,2,0,0,0,.77.16,0.89,0.89,0,0,0,.75-0.64,8.76,8.76,0,0,0,.54-2.14q0.24-1.5.41-4.11h6.61v8.73Z" transform="translate(197.89 229.87)"/><path d="M-53.95-207h1.68a5.5,5.5,0,0,1,3,.64,2.17,2.17,0,0,1,1,1.94q0,2.78-3.86,2.78h-4.16v-8.73h2.38V-207Zm3.25,2.61a0.78,0.78,0,0,0-.41-0.73,2.55,2.55,0,0,0-1.21-.23h-1.63v2.06h1.66Q-50.69-203.3-50.7-204.4Z" transform="translate(197.89 229.87)"/><path d="M-39.28-210.38v1.79h-2.86v6.95h-2.38v-6.95h-2.87v-1.79h8.11Z" transform="translate(197.89 229.87)"/><path d="M-32.86-201.49a2.9,2.9,0,0,1-2.41-1.12H-35.4q0.12,1.09.13,1.27v3.54h-2.38v-12.58h1.94l0.34,1.13h0.11a2.76,2.76,0,0,1,2.48-1.3,2.83,2.83,0,0,1,2.42,1.2A5.53,5.53,0,0,1-29.5-206a6.56,6.56,0,0,1-.41,2.43A3.41,3.41,0,0,1-31.08-202,3,3,0,0,1-32.86-201.49Zm-0.7-7.15a1.5,1.5,0,0,0-1.29.54,3.12,3.12,0,0,0-.42,1.79V-206a3.68,3.68,0,0,0,.42,2,1.49,1.49,0,0,0,1.32.61q1.6,0,1.6-2.64a3.77,3.77,0,0,0-.39-1.93A1.35,1.35,0,0,0-33.56-208.64Z" transform="translate(197.89 229.87)"/></svg>