<svg id="Слой_1" data-name="Слой 1" xmlns="http://www.w3.org/2000/svg" viewBox="0 0 326.27 16.34"><title>srv_no-result</title><path d="M27.81,28H25.4V18.59h-4.2V28H18.77V16.58h9V28Z" transform="translate(-18.77 -15.51)"/><path d="M38.44,23.62A4.69,4.69,0,0,1,37.32,27a4.08,4.08,0,0,1-3.13,1.2A4.38,4.38,0,0,1,32,27.61,3.66,3.66,0,0,1,30.49,26,5.32,5.32,0,0,1,30,23.62a4.67,4.67,0,0,1,1.12-3.33,4.1,4.1,0,0,1,3.14-1.19,4.41,4.41,0,0,1,2.22.55,3.65,3.65,0,0,1,1.48,1.57A5.27,5.27,0,0,1,38.44,23.62Zm-6,0a3.66,3.66,0,0,0,.43,2,1.52,1.52,0,0,0,1.39.66,1.5,1.5,0,0,0,1.37-.66,3.72,3.72,0,0,0,.42-2,3.61,3.61,0,0,0-.42-1.95,1.79,1.79,0,0,0-2.76,0A3.6,3.6,0,0,0,32.4,23.62Z" transform="translate(-18.77 -15.51)"/><path d="M52.63,21.55a1.74,1.74,0,0,1-.44,1.2,2.14,2.14,0,0,1-1.3.64v0.06a2.46,2.46,0,0,1,1.47.64,1.74,1.74,0,0,1,.54,1.3,2.19,2.19,0,0,1-1,1.94A5.14,5.14,0,0,1,49,28H44.57V19.27H49a5,5,0,0,1,2.69.58A1.91,1.91,0,0,1,52.63,21.55Zm-2.41.19q0-.8-1.27-0.8H47v1.73h1.73a2.4,2.4,0,0,0,1.15-.22A0.75,0.75,0,0,0,50.22,21.74Zm0.22,3.52a0.8,0.8,0,0,0-.4-0.75,2.45,2.45,0,0,0-1.2-.23H47v2.06h1.94A2,2,0,0,0,50,26.07,0.93,0.93,0,0,0,50.44,25.27Z" transform="translate(-18.77 -15.51)"/><path d="M60.34,28l-0.46-1.19H59.82a3.53,3.53,0,0,1-1.24,1.05,4,4,0,0,1-1.66.29,2.68,2.68,0,0,1-2-.72,2.76,2.76,0,0,1-.72-2,2.31,2.31,0,0,1,1-2.05,5.64,5.64,0,0,1,2.93-.73l1.52,0V22.18a1.19,1.19,0,0,0-1.36-1.33,6.19,6.19,0,0,0-2.46.63L55,19.87a7.1,7.1,0,0,1,3.34-.79,4.17,4.17,0,0,1,2.7.77A2.83,2.83,0,0,1,62,22.18V28H60.34Zm-0.7-4-0.92,0a3,3,0,0,0-1.55.38,1.18,1.18,0,0,0-.51,1,1,1,0,0,0,1.16,1,1.83,1.83,0,0,0,1.32-.48,1.67,1.67,0,0,0,.5-1.27V24Z" transform="translate(-18.77 -15.51)"/><path d="M77.47,28h-13V19.27h2.38v6.95h2.93V19.27h2.38v6.95h2.93V19.27h2.38V28Z" transform="translate(-18.77 -15.51)"/><path d="M83.92,28.16A4.51,4.51,0,0,1,80.62,27a4.41,4.41,0,0,1-1.19-3.3,4.85,4.85,0,0,1,1.1-3.39,3.91,3.91,0,0,1,3-1.2,3.85,3.85,0,0,1,2.88,1.05,4,4,0,0,1,1,2.91v1.16H81.85a2.29,2.29,0,0,0,.6,1.59,2.12,2.12,0,0,0,1.58.57,6.55,6.55,0,0,0,1.49-.16A7.49,7.49,0,0,0,87,25.7v1.84a5.62,5.62,0,0,1-1.34.46A8.43,8.43,0,0,1,83.92,28.16ZM83.58,20.8a1.51,1.51,0,0,0-1.19.48,2.22,2.22,0,0,0-.49,1.36h3.34a2,2,0,0,0-.46-1.36A1.56,1.56,0,0,0,83.58,20.8Z" transform="translate(-18.77 -15.51)"/><path d="M100.43,28H98.2V21.12l-0.12.48a21.89,21.89,0,0,1-.76,2.49L95.77,28h-1.7l-1.57-3.94a20.23,20.23,0,0,1-.72-2.41l-0.15-.53V28H89.42V19.27H92.7L94.2,23a12,12,0,0,1,.43,1.38,11.28,11.28,0,0,1,.27,1.34q0.26-1.17.4-1.68a9.39,9.39,0,0,1,.32-0.94l1.55-3.82h3.25V28Z" transform="translate(-18.77 -15.51)"/><path d="M101.68,19.27h2.61l1.65,4.91a6.83,6.83,0,0,1,.29,1.52h0a6.67,6.67,0,0,1,.34-1.52l1.62-4.91h2.55l-3.7,9.85a4.27,4.27,0,0,1-1.45,2,3.66,3.66,0,0,1-2.2.68,5.51,5.51,0,0,1-1.21-.13V29.82a4.09,4.09,0,0,0,.94.1,1.69,1.69,0,0,0,1.11-.39,2.51,2.51,0,0,0,.74-1.17l0.14-.43Z" transform="translate(-18.77 -15.51)"/><path d="M118.36,22.62a5.89,5.89,0,0,0,1.92-.22,0.74,0.74,0,0,0,.57-0.7,0.68,0.68,0,0,0-.41-0.63,3.22,3.22,0,0,0-1.37-.21,8,8,0,0,0-2.75.55l-0.7-1.66a9.91,9.91,0,0,1,1.8-.5,11.44,11.44,0,0,1,2-.15,4.83,4.83,0,0,1,2.62.63,1.94,1.94,0,0,1-.76,3.62v0.08a3.09,3.09,0,0,1,1.53.75,1.79,1.79,0,0,1,.46,1.28,2.14,2.14,0,0,1-.52,1.41,3.28,3.28,0,0,1-1.49,1,7.08,7.08,0,0,1-2.3.34,8.29,8.29,0,0,1-3.36-.54v-2a7.27,7.27,0,0,0,1.47.49,7.06,7.06,0,0,0,1.55.18,4.42,4.42,0,0,0,1.74-.26,0.82,0.82,0,0,0,.58-0.75,0.84,0.84,0,0,0-.61-0.79,5.18,5.18,0,0,0-1.87-.25h-0.92V22.62h0.88Z" transform="translate(-18.77 -15.51)"/><path d="M130.62,28l-0.46-1.19h-0.06a3.53,3.53,0,0,1-1.24,1.05,4,4,0,0,1-1.66.29,2.68,2.68,0,0,1-2-.72,2.76,2.76,0,0,1-.72-2,2.31,2.31,0,0,1,1-2.05,5.64,5.64,0,0,1,2.93-.73l1.52,0V22.18a1.19,1.19,0,0,0-1.36-1.33,6.19,6.19,0,0,0-2.46.63l-0.79-1.61a7.1,7.1,0,0,1,3.34-.79,4.17,4.17,0,0,1,2.7.77,2.83,2.83,0,0,1,.94,2.33V28h-1.66Zm-0.7-4L129,24a3,3,0,0,0-1.55.38,1.18,1.18,0,0,0-.51,1,1,1,0,0,0,1.16,1,1.83,1.83,0,0,0,1.32-.48,1.67,1.67,0,0,0,.5-1.27V24Z" transform="translate(-18.77 -15.51)"/><path d="M142.67,19.27V28h-2.39V21.05h-3.16V28h-2.38V19.27h7.94Z" transform="translate(-18.77 -15.51)"/><path d="M150,28.16A2.9,2.9,0,0,1,147.54,27h-0.12q0.12,1.09.13,1.27v3.54h-2.38V19.27h1.94l0.34,1.13h0.11A2.76,2.76,0,0,1,150,19.1a2.83,2.83,0,0,1,2.42,1.2,5.53,5.53,0,0,1,.88,3.32,6.56,6.56,0,0,1-.41,2.43,3.41,3.41,0,0,1-1.17,1.57A3,3,0,0,1,150,28.16ZM149.26,21a1.5,1.5,0,0,0-1.29.54,3.12,3.12,0,0,0-.42,1.79V23.6a3.68,3.68,0,0,0,.42,2,1.49,1.49,0,0,0,1.32.61q1.6,0,1.6-2.64a3.77,3.77,0,0,0-.39-1.93A1.35,1.35,0,0,0,149.26,21Z" transform="translate(-18.77 -15.51)"/><path d="M163.22,23.62A4.69,4.69,0,0,1,162.1,27a4.08,4.08,0,0,1-3.13,1.2,4.38,4.38,0,0,1-2.22-.55A3.66,3.66,0,0,1,155.27,26a5.32,5.32,0,0,1-.52-2.41,4.67,4.67,0,0,1,1.12-3.33A4.1,4.1,0,0,1,159,19.1a4.41,4.41,0,0,1,2.22.55,3.65,3.65,0,0,1,1.48,1.57A5.27,5.27,0,0,1,163.22,23.62Zm-6,0a3.66,3.66,0,0,0,.43,2,1.52,1.52,0,0,0,1.39.66,1.5,1.5,0,0,0,1.37-.66,3.72,3.72,0,0,0,.42-2,3.61,3.61,0,0,0-.42-1.95,1.79,1.79,0,0,0-2.76,0A3.6,3.6,0,0,0,157.19,23.62Z" transform="translate(-18.77 -15.51)"/><path d="M168.74,28.16q-4.08,0-4.08-4.48a4.77,4.77,0,0,1,1.11-3.4A4.16,4.16,0,0,1,169,19.1a6.07,6.07,0,0,1,2.72.59L171,21.54q-0.56-.23-1-0.37a3.38,3.38,0,0,0-1-.14q-1.86,0-1.86,2.64T169,26.23a4.25,4.25,0,0,0,1.27-.18,4.58,4.58,0,0,0,1.17-.57v2a3.84,3.84,0,0,1-1.17.51A6.57,6.57,0,0,1,168.74,28.16Z" transform="translate(-18.77 -15.51)"/><path d="M172.17,19.27h2.61l1.65,4.91a6.83,6.83,0,0,1,.29,1.52h0a6.67,6.67,0,0,1,.34-1.52l1.62-4.91h2.55l-3.7,9.85a4.27,4.27,0,0,1-1.45,2,3.66,3.66,0,0,1-2.2.68,5.51,5.51,0,0,1-1.21-.13V29.82a4.09,4.09,0,0,0,.94.1,1.69,1.69,0,0,0,1.11-.39,2.51,2.51,0,0,0,.74-1.17l0.14-.43Z" transform="translate(-18.77 -15.51)"/><path d="M189.06,19.27v3.36h3.33V19.27h2.38V28h-2.38V24.4h-3.33V28h-2.38V19.27h2.38Z" transform="translate(-18.77 -15.51)"/><path d="M199.58,19.27v3.45q0,0.55-.18,2.67l4-6.12h2.87V28H204V24.52q0-.93.16-2.62l-4,6.11h-2.86V19.27h2.3Z" transform="translate(-18.77 -15.51)"/><path d="M210.89,19.27v3.2a1,1,0,0,0,1.05,1.14,5,5,0,0,0,1.28-.16,9.36,9.36,0,0,0,1.19-.41V19.27h2.38V28h-2.38V24.53a7,7,0,0,1-1.54.62,5.59,5.59,0,0,1-1.37.18,3.11,3.11,0,0,1-2.21-.73,2.71,2.71,0,0,1-.78-2.08V19.27h2.38Z" transform="translate(-18.77 -15.51)"/><path d="M223.24,28.16a4.51,4.51,0,0,1-3.3-1.16,4.41,4.41,0,0,1-1.19-3.3,4.85,4.85,0,0,1,1.1-3.39,3.91,3.91,0,0,1,3-1.2,3.85,3.85,0,0,1,2.88,1.05,4,4,0,0,1,1,2.91v1.16h-5.63a2.29,2.29,0,0,0,.6,1.59,2.12,2.12,0,0,0,1.58.57,6.55,6.55,0,0,0,1.49-.16,7.49,7.49,0,0,0,1.47-.52v1.84A5.62,5.62,0,0,1,225,28,8.43,8.43,0,0,1,223.24,28.16ZM222.9,20.8a1.51,1.51,0,0,0-1.19.48,2.22,2.22,0,0,0-.49,1.36h3.34a2,2,0,0,0-.46-1.36A1.56,1.56,0,0,0,222.9,20.8Z" transform="translate(-18.77 -15.51)"/><path d="M234.77,19.27v1.79h-3.65V28h-2.38V19.27h6Z" transform="translate(-18.77 -15.51)"/><path d="M244.33,23.62A4.69,4.69,0,0,1,243.2,27a4.08,4.08,0,0,1-3.13,1.2,4.38,4.38,0,0,1-2.22-.55A3.66,3.66,0,0,1,236.37,26a5.32,5.32,0,0,1-.52-2.41A4.67,4.67,0,0,1,237,20.29a4.11,4.11,0,0,1,3.14-1.19,4.41,4.41,0,0,1,2.22.55,3.65,3.65,0,0,1,1.48,1.57A5.27,5.27,0,0,1,244.33,23.62Zm-6,0a3.67,3.67,0,0,0,.43,2,1.52,1.52,0,0,0,1.39.66,1.5,1.5,0,0,0,1.37-.66,3.71,3.71,0,0,0,.42-2,3.61,3.61,0,0,0-.42-1.95,1.79,1.79,0,0,0-2.76,0A3.6,3.6,0,0,0,238.29,23.62Z" transform="translate(-18.77 -15.51)"/><path d="M252.83,19.27v3.36h3.33V19.27h2.38V28h-2.38V24.4h-3.33V28h-2.38V19.27h2.38Z" transform="translate(-18.77 -15.51)"/><path d="M265,28.16A4.51,4.51,0,0,1,261.7,27a4.41,4.41,0,0,1-1.19-3.3,4.85,4.85,0,0,1,1.1-3.39,3.91,3.91,0,0,1,3-1.2,3.85,3.85,0,0,1,2.88,1.05,4,4,0,0,1,1,2.91v1.16h-5.63a2.3,2.3,0,0,0,.6,1.59,2.12,2.12,0,0,0,1.58.57,6.55,6.55,0,0,0,1.49-.16,7.49,7.49,0,0,0,1.47-.52v1.84a5.62,5.62,0,0,1-1.34.46A8.42,8.42,0,0,1,265,28.16Zm-0.34-7.36a1.51,1.51,0,0,0-1.19.48,2.23,2.23,0,0,0-.49,1.36h3.34a2,2,0,0,0-.46-1.36A1.56,1.56,0,0,0,264.66,20.8Z" transform="translate(-18.77 -15.51)"/><path d="M277,19.27v3.36h3.33V19.27h2.38V28h-2.38V24.4H277V28h-2.38V19.27H277Z" transform="translate(-18.77 -15.51)"/><path d="M290.79,28l-0.46-1.19h-0.06A3.52,3.52,0,0,1,289,27.86a4,4,0,0,1-1.66.29,2.68,2.68,0,0,1-2-.72,2.76,2.76,0,0,1-.72-2,2.31,2.31,0,0,1,1-2.05,5.64,5.64,0,0,1,2.93-.73l1.52,0V22.18a1.19,1.19,0,0,0-1.36-1.33,6.19,6.19,0,0,0-2.46.63l-0.79-1.61a7.1,7.1,0,0,1,3.34-.79,4.17,4.17,0,0,1,2.7.77,2.83,2.83,0,0,1,.94,2.33V28h-1.66Zm-0.7-4-0.92,0a3,3,0,0,0-1.55.38,1.18,1.18,0,0,0-.51,1,1,1,0,0,0,1.16,1,1.83,1.83,0,0,0,1.32-.48,1.67,1.67,0,0,0,.5-1.27V24Z" transform="translate(-18.77 -15.51)"/><path d="M297.22,19.27v3.45q0,0.55-.18,2.67l4-6.12h2.87V28h-2.3V24.52q0-.93.16-2.62l-4,6.11h-2.86V19.27h2.3Zm6-3.76a2.78,2.78,0,0,1-1.1,2.13,4.76,4.76,0,0,1-2.75.67,4.7,4.7,0,0,1-2.74-.64,2.74,2.74,0,0,1-1-2.16h2.13a1.66,1.66,0,0,0,.4,1.13,1.83,1.83,0,0,0,1.25.32,1.44,1.44,0,0,0,1.65-1.45h2.16Z" transform="translate(-18.77 -15.51)"/><path d="M315.57,31.13h-2.14V28h-5.87v3.13h-2.14V26.26h0.73a11,11,0,0,0,1.26-2.94,21.83,21.83,0,0,0,.71-4.05h6.17v7h1.28v4.87Zm-3.66-4.87v-5.2h-1.79a23.13,23.13,0,0,1-.54,2.76,11.34,11.34,0,0,1-.94,2.45h3.27Z" transform="translate(-18.77 -15.51)"/><path d="M321,28.16a4.51,4.51,0,0,1-3.3-1.16,4.41,4.41,0,0,1-1.19-3.3,4.85,4.85,0,0,1,1.1-3.39,3.91,3.91,0,0,1,3-1.2,3.85,3.85,0,0,1,2.88,1.05,4,4,0,0,1,1,2.91v1.16h-5.63a2.3,2.3,0,0,0,.6,1.59,2.12,2.12,0,0,0,1.58.57,6.55,6.55,0,0,0,1.49-.16,7.49,7.49,0,0,0,1.47-.52v1.84a5.62,5.62,0,0,1-1.34.46A8.42,8.42,0,0,1,321,28.16Zm-0.34-7.36a1.51,1.51,0,0,0-1.19.48,2.23,2.23,0,0,0-.49,1.36h3.34a2,2,0,0,0-.46-1.36A1.56,1.56,0,0,0,320.68,20.8Z" transform="translate(-18.77 -15.51)"/><path d="M328.9,19.27v3.36h3.33V19.27h2.38V28h-2.38V24.4H328.9V28h-2.38V19.27h2.38Z" transform="translate(-18.77 -15.51)"/><path d="M345,23.62A4.69,4.69,0,0,1,343.92,27a4.08,4.08,0,0,1-3.13,1.2,4.38,4.38,0,0,1-2.22-.55A3.66,3.66,0,0,1,337.09,26a5.32,5.32,0,0,1-.52-2.41,4.67,4.67,0,0,1,1.12-3.33,4.1,4.1,0,0,1,3.14-1.19,4.41,4.41,0,0,1,2.22.55,3.65,3.65,0,0,1,1.48,1.57A5.27,5.27,0,0,1,345,23.62Zm-6,0a3.66,3.66,0,0,0,.43,2,1.52,1.52,0,0,0,1.39.66,1.5,1.5,0,0,0,1.37-.66,3.72,3.72,0,0,0,.42-2,3.61,3.61,0,0,0-.42-1.95,1.79,1.79,0,0,0-2.76,0A3.6,3.6,0,0,0,339,23.62Z" transform="translate(-18.77 -15.51)"/></svg>