<svg id="Слой_1" data-name="Слой 1" xmlns="http://www.w3.org/2000/svg" viewBox="0 0 476 56"><defs><style>.cls-1{fill:none;stroke:#191c20;stroke-miterlimit:10;}</style></defs><title>remove-filter</title><rect class="cls-1" x="0.5" y="0.5" width="475" height="55"/><path d="M106.19,37a16.3,16.3,0,0,1-6.72,1.21c-7.17,0-12.57-4.53-12.57-12.87,0-8,5.4-13.36,13.28-13.36a13.64,13.64,0,0,1,6,1.13l-0.79,2.68a12,12,0,0,0-5.13-1.06c-6,0-9.93,3.81-9.93,10.49,0,6.23,3.59,10.23,9.77,10.23a13.14,13.14,0,0,0,5.36-1.06Z" transform="translate(0 0)"/><path d="M123.48,13.41a24.9,24.9,0,0,1-3.81.83c-2.94.45-5.1,1.43-6.49,3.43a13,13,0,0,0-2,6h0.11a6.91,6.91,0,0,1,6.34-4.11c4.49,0,7.77,3.21,7.77,9,0,6-3.09,9.66-8.45,9.66-6.42,0-8.53-6.15-8.53-12.23,0-4.15.87-7.55,2.83-10.11,1.77-2.53,4.3-3.7,7.85-4.3a26.64,26.64,0,0,0,4.53-1Zm-6.53,8.64a4.44,4.44,0,0,0-4.11,2.49,8,8,0,0,0-.91,3.89c0,3,1.47,7.36,5.09,7.36s5-3.55,5-6.91C122,25.91,120.87,22.06,116.95,22.06Z" transform="translate(0 0)"/><path d="M129.59,25.57c0-2.34-.08-4.23-0.15-6h3l0.15,3.13h0.08a7.18,7.18,0,0,1,6.49-3.55c4.42,0,7.74,3.74,7.74,9.28,0,6.57-4,9.81-8.3,9.81a6.41,6.41,0,0,1-5.62-2.87h-0.08v9.93h-3.28V25.57Zm3.28,4.87a7.51,7.51,0,0,0,.15,1.36,5.12,5.12,0,0,0,5,3.89c3.51,0,5.55-2.87,5.55-7.06,0-3.66-1.92-6.79-5.43-6.79a5.3,5.3,0,0,0-5,4.11,5.39,5.39,0,0,0-.23,1.36v3.13Z" transform="translate(0 0)"/><path d="M167.59,28.58c0,6.76-4.68,9.7-9.1,9.7-4.94,0-8.76-3.62-8.76-9.4,0-6.11,4-9.7,9.06-9.7C164,19.19,167.59,23,167.59,28.58Zm-14.49.19c0,4,2.3,7,5.55,7s5.55-3,5.55-7.1c0-3.09-1.55-7-5.47-7S153.1,25.3,153.1,28.77Z" transform="translate(0 0)"/><path d="M184.79,37.19a12.23,12.23,0,0,1-5.25,1.06c-5.51,0-9.1-3.74-9.1-9.32s3.85-9.7,9.81-9.7a11.11,11.11,0,0,1,4.6.94l-0.75,2.57a7.7,7.7,0,0,0-3.85-.87c-4.19,0-6.45,3.09-6.45,6.91,0,4.23,2.72,6.83,6.34,6.83a9.44,9.44,0,0,0,4.08-.91Z" transform="translate(0 0)"/><path d="M191.74,19.6v7.7c0,2.91,0,4.72-.19,7.32l0.11,0c1.09-2.23,1.74-3.51,2.94-5.62l5.7-9.44h3.89V37.87H201V30.13c0-3,.08-4.53.23-7.47h-0.11c-1.17,2.34-2,3.81-3,5.66-1.74,2.83-3.74,6.34-5.7,9.55H188.6V19.6h3.13Z" transform="translate(0 0)"/><path d="M221.81,19.6v2.64h-5.7V37.87h-3.28V22.24h-5.7V19.6h14.68Z" transform="translate(0 0)"/><path d="M227.92,19.6v6.19a18.5,18.5,0,0,1,3-.19c4.11,0,8.45,1.28,8.45,6.15a5.17,5.17,0,0,1-1.92,4.19c-2,1.7-5.25,2.11-7.93,2.11a45.15,45.15,0,0,1-4.91-.26V19.6h3.28Zm0,16a19.16,19.16,0,0,0,2.45.15c2.49,0,5.7-.83,5.7-3.89S232.76,28,230.3,28a15.57,15.57,0,0,0-2.38.19v7.4Z" transform="translate(0 0)"/><path d="M262.38,11.07v8.19c5.32,0.38,9.17,3.74,9.17,9.44,0,6-4.08,9.17-9.17,9.51v7.13h-3v-7.1c-5.28-.34-9.17-3.66-9.17-9.36,0-6,4-9.21,9.17-9.62V11.07h3Zm-3,10.45c-3.7.49-5.89,3.51-5.89,7.25s2.26,6.72,5.89,7.17V21.53Zm3,14.42c3.66-.49,5.89-3.51,5.89-7.25s-2.23-6.64-5.89-7.17V35.94Z" transform="translate(0 0)"/><path d="M278.75,19.6v7.7c0,2.91,0,4.72-.19,7.32l0.11,0c1.09-2.23,1.74-3.51,2.94-5.62l5.7-9.44h3.89V37.87H288V30.13c0-3,.08-4.53.23-7.47h-0.11c-1.17,2.34-2,3.81-3,5.66-1.74,2.83-3.74,6.34-5.7,9.55h-3.81V19.6h3.13Z" transform="translate(0 0)"/><path d="M310.45,19.6V37.87h-3.28V22.21H300.9V27c0,5.13-.49,8.57-2.87,10.11a5.33,5.33,0,0,1-3.62,1.13l-0.34-2.6a4.12,4.12,0,0,0,1.81-.75c1.7-1.25,1.89-3.81,1.89-7.89V19.6h12.68Z" transform="translate(0 0)"/><path d="M319.09,19.6v6.19a18.5,18.5,0,0,1,3-.19c4.11,0,8.45,1.28,8.45,6.15a5.17,5.17,0,0,1-1.92,4.19c-2,1.7-5.25,2.11-7.93,2.11a45.15,45.15,0,0,1-4.91-.26V19.6h3.28Zm0,16a19.16,19.16,0,0,0,2.45.15c2.49,0,5.7-.83,5.7-3.89S323.92,28,321.47,28a15.57,15.57,0,0,0-2.38.19v7.4Z" transform="translate(0 0)"/><path d="M345.05,19.6v2.64h-5.7V37.87h-3.28V22.24h-5.7V19.6h14.68Z" transform="translate(0 0)"/><path d="M348,25.57c0-2.34-.08-4.23-0.15-6h3l0.15,3.13H351a7.18,7.18,0,0,1,6.49-3.55c4.42,0,7.74,3.74,7.74,9.28,0,6.57-4,9.81-8.3,9.81a6.41,6.41,0,0,1-5.62-2.87h-0.08v9.93H348V25.57Zm3.28,4.87a7.51,7.51,0,0,0,.15,1.36,5.12,5.12,0,0,0,5,3.89c3.51,0,5.55-2.87,5.55-7.06,0-3.66-1.92-6.79-5.43-6.79a5.3,5.3,0,0,0-5,4.11,5.39,5.39,0,0,0-.23,1.36v3.13Z" transform="translate(0 0)"/><path d="M372.64,19.6v6.23a15.7,15.7,0,0,1,3-.23c3.93,0,7.89,1.62,7.89,6.11a5.17,5.17,0,0,1-1.89,4.23c-2,1.7-4.94,2.11-7.36,2.11a45.15,45.15,0,0,1-4.91-.26V19.6h3.28Zm0,16a18.49,18.49,0,0,0,2.3.15c2.53,0,5.28-1.06,5.28-3.89S377.58,28,375.09,28a15.09,15.09,0,0,0-2.45.19v7.4Zm16.46-16V37.87h-3.28V19.6h3.28Z" transform="translate(0 0)"/></svg>