<?xml version="1.0" encoding="utf-8"?>
<!-- Generator: Adobe Illustrator 19.2.1, SVG Export Plug-In . SVG Version: 6.00 Build 0)  -->
<svg version="1.1" id="Слой_1" xmlns="http://www.w3.org/2000/svg" xmlns:xlink="http://www.w3.org/1999/xlink" x="0px" y="0px"
	 viewBox="0 0 124.9 59.9" style="enable-background:new 0 0 124.9 59.9;" xml:space="preserve">
<style type="text/css">
	.st0{fill:#D60205;}
	.st1{fill:#FCFEFE;}
</style>
<title>show</title>
<path class="st0" d="M12.1,48.8c0,9.4,0.7,11,11.7,11l83.5,0.1c17.5-0.1,17.5,1.9,17.5-19.2C124.7-2.3,127.5,0,108.6,0H21.7
	C6,0,16.5,12,9.8,18.6c-13.1,12.7-12.9,10-0.3,22.2C12.4,43.8,12,43.2,12.1,48.8"/>
<title>no-result</title>
<g>
	<path class="st1" d="M38.6,34.4h-2.4V25H32v9.4h-2.4V23h9V34.4z"/>
	<path class="st1" d="M49.3,30.1c0,1.4-0.4,2.5-1.1,3.3s-1.8,1.2-3.1,1.2c-0.8,0-1.6-0.2-2.2-0.6s-1.1-0.9-1.5-1.6s-0.5-1.5-0.5-2.4
		c0-1.4,0.4-2.5,1.1-3.3c0.7-0.8,1.8-1.2,3.1-1.2c0.8,0,1.6,0.2,2.2,0.5c0.6,0.4,1.1,0.9,1.5,1.6C49.1,28.3,49.3,29.1,49.3,30.1z
		 M43.2,30.1c0,0.9,0.1,1.5,0.4,2c0.3,0.4,0.7,0.7,1.4,0.7c0.6,0,1.1-0.2,1.4-0.7c0.3-0.4,0.4-1.1,0.4-2c0-0.9-0.1-1.5-0.4-1.9
		c-0.3-0.4-0.7-0.6-1.4-0.6c-0.6,0-1.1,0.2-1.4,0.6S43.2,29.2,43.2,30.1z"/>
	<path class="st1" d="M57,25.7h2.6l-3.5,4.2l3.8,4.5h-2.7L53.6,30v4.4h-2.4v-8.7h2.4V30L57,25.7z"/>
	<path class="st1" d="M66.7,34.4l-0.5-1.2h-0.1c-0.4,0.5-0.8,0.9-1.2,1.1c-0.4,0.2-1,0.3-1.7,0.3c-0.8,0-1.5-0.2-2-0.7
		c-0.5-0.5-0.7-1.2-0.7-2c0-0.9,0.3-1.6,1-2.1c0.6-0.4,1.6-0.7,2.9-0.7l1.5,0v-0.4c0-0.9-0.5-1.3-1.4-1.3c-0.7,0-1.5,0.2-2.5,0.6
		l-0.8-1.6c1-0.5,2.1-0.8,3.3-0.8c1.2,0,2.1,0.3,2.7,0.8c0.6,0.5,0.9,1.3,0.9,2.3v5.8H66.7z M66,30.4l-0.9,0c-0.7,0-1.2,0.1-1.5,0.4
		c-0.3,0.2-0.5,0.6-0.5,1c0,0.7,0.4,1,1.2,1c0.6,0,1-0.2,1.3-0.5c0.3-0.3,0.5-0.7,0.5-1.3V30.4z"/>
	<path class="st1" d="M73,29.1c0.9,0,1.5-0.1,1.9-0.2c0.4-0.1,0.6-0.4,0.6-0.7c0-0.3-0.1-0.5-0.4-0.6c-0.3-0.1-0.7-0.2-1.4-0.2
		c-0.4,0-0.9,0-1.4,0.1c-0.5,0.1-1,0.2-1.4,0.4l-0.7-1.7c0.6-0.2,1.2-0.4,1.8-0.5c0.6-0.1,1.2-0.2,2-0.2c1.1,0,2,0.2,2.6,0.6
		c0.7,0.4,1,1,1,1.7c0,1-0.6,1.6-1.7,1.9v0.1c0.7,0.2,1.2,0.4,1.5,0.8s0.5,0.8,0.5,1.3c0,0.5-0.2,1-0.5,1.4s-0.8,0.7-1.5,1
		c-0.7,0.2-1.4,0.3-2.3,0.3c-1.5,0-2.6-0.2-3.4-0.5v-2c0.4,0.2,0.9,0.4,1.5,0.5c0.5,0.1,1.1,0.2,1.6,0.2c0.8,0,1.4-0.1,1.7-0.3
		c0.4-0.2,0.6-0.4,0.6-0.7c0-0.4-0.2-0.6-0.6-0.8s-1-0.3-1.9-0.3h-0.9v-1.6H73z"/>
	<path class="st1" d="M85.2,34.4l-0.5-1.2h-0.1c-0.4,0.5-0.8,0.9-1.2,1.1c-0.4,0.2-1,0.3-1.7,0.3c-0.8,0-1.5-0.2-2-0.7
		c-0.5-0.5-0.7-1.2-0.7-2c0-0.9,0.3-1.6,1-2.1c0.6-0.4,1.6-0.7,2.9-0.7l1.5,0v-0.4c0-0.9-0.5-1.3-1.4-1.3c-0.7,0-1.5,0.2-2.5,0.6
		l-0.8-1.6c1-0.5,2.1-0.8,3.3-0.8c1.2,0,2.1,0.3,2.7,0.8c0.6,0.5,0.9,1.3,0.9,2.3v5.8H85.2z M84.5,30.4l-0.9,0
		c-0.7,0-1.2,0.1-1.5,0.4c-0.3,0.2-0.5,0.6-0.5,1c0,0.7,0.4,1,1.2,1c0.6,0,1-0.2,1.3-0.5c0.3-0.3,0.5-0.7,0.5-1.3V30.4z"/>
	<path class="st1" d="M96.6,25.7v1.8h-2.9v6.9h-2.4v-6.9h-2.9v-1.8H96.6z"/>
	<path class="st1" d="M100.6,29.1h1.7c1.3,0,2.3,0.2,3,0.6c0.6,0.4,1,1.1,1,1.9c0,1.9-1.3,2.8-3.9,2.8h-4.2v-8.7h2.4V29.1z
		 M103.8,31.7c0-0.3-0.1-0.6-0.4-0.7c-0.3-0.2-0.7-0.2-1.2-0.2h-1.6v2.1h1.7C103.3,32.8,103.8,32.4,103.8,31.7z"/>
</g>
</svg>
