<svg id="Слой_1" data-name="Слой 1" xmlns="http://www.w3.org/2000/svg" viewBox="0 0 476 56"><defs><style>.cls-1{fill:none;stroke:#191c20;stroke-miterlimit:10;}</style></defs><title>result</title><rect class="cls-1" x="0.5" y="0.5" width="475" height="55"/><path d="M12.75,13.26a34,34,0,0,1,5.63-.44c2.9,0,5,.67,6.37,1.89a6.11,6.11,0,0,1,2,4.75A6.69,6.69,0,0,1,25,24.32,9.42,9.42,0,0,1,18,26.82a10.11,10.11,0,0,1-2.36-.2v9.1H12.75V13.26Zm2.93,11a9.85,9.85,0,0,0,2.43.24c3.54,0,5.7-1.72,5.7-4.86s-2.12-4.45-5.36-4.45a12.32,12.32,0,0,0-2.77.24v8.84Z" transform="translate(0 0)"/><path d="M31.3,28.1c0.07,4,2.63,5.67,5.6,5.67a10.73,10.73,0,0,0,4.52-.84L41.92,35a13.22,13.22,0,0,1-5.43,1c-5,0-8-3.31-8-8.23s2.9-8.8,7.66-8.8c5.33,0,6.74,4.69,6.74,7.69a11.21,11.21,0,0,1-.1,1.38H31.3ZM40,26c0-1.89-.78-4.82-4.11-4.82-3,0-4.32,2.77-4.55,4.82H40Z" transform="translate(0 0)"/><path d="M48,26.25h1.42c2.5,0,4.18-1.15,4.18-2.66s-1.31-2.36-3.17-2.36a7.88,7.88,0,0,0-3.95,1.15l-0.74-1.82a10.36,10.36,0,0,1,5.43-1.48c2.5,0,5.53,1.11,5.53,4.28,0,2-1.85,3.34-3.68,3.71v0.07c2.43,0.2,4.45,1.69,4.45,4.08,0,3.54-3.61,4.86-7,4.86a11.18,11.18,0,0,1-5.29-1.32l0.78-2a9.41,9.41,0,0,0,4.32,1.11c2.46,0,4-1.18,4-2.8,0-2.19-2.29-2.8-4.75-2.8H48v-2Z" transform="translate(0 0)"/><path d="M61.89,19.4L65.47,29c0.37,1.08.78,2.36,1,3.34h0.07c0.3-1,.64-2.23,1-3.41l3.24-9.58H74L69.55,31c-2.12,5.6-3.57,8.46-5.6,10.22a8,8,0,0,1-3.64,1.92l-0.74-2.5a7.84,7.84,0,0,0,2.6-1.45,9,9,0,0,0,2.5-3.3,2.13,2.13,0,0,0,.24-0.71,2.59,2.59,0,0,0-.2-0.78l-6-15h3.24Z" transform="translate(0 0)"/><path d="M88.81,19.4V35.72H85.87v-14h-5.6V26c0,4.59-.44,7.65-2.56,9a4.77,4.77,0,0,1-3.24,1l-0.3-2.33A3.67,3.67,0,0,0,75.79,33c1.52-1.11,1.69-3.41,1.69-7V19.4H88.81Z" transform="translate(0 0)"/><path d="M96.53,19.4v5.53a16.53,16.53,0,0,1,2.7-.17c3.68,0,7.55,1.15,7.55,5.5A4.62,4.62,0,0,1,105.06,34c-1.79,1.52-4.69,1.89-7.08,1.89a40.45,40.45,0,0,1-4.38-.24V19.4h2.93Zm0,14.26a17.15,17.15,0,0,0,2.19.13c2.23,0,5.09-.74,5.09-3.47s-3-3.44-5.16-3.44a13.92,13.92,0,0,0-2.12.17v6.61Z" transform="translate(0 0)"/><path d="M119.73,19.4v2.36h-5.09v14h-2.93v-14h-5.09V19.4h13.12Z" transform="translate(0 0)"/><path d="M131.13,35.72l-0.24-2.06h-0.1a6.08,6.08,0,0,1-5,2.43,4.65,4.65,0,0,1-5-4.69c0-3.95,3.51-6.1,9.81-6.07V25c0-1.35-.37-3.78-3.71-3.78a8.13,8.13,0,0,0-4.25,1.21l-0.67-2A10.13,10.13,0,0,1,127.36,19c5,0,6.21,3.41,6.21,6.68v6.1a23,23,0,0,0,.27,3.91h-2.7Zm-0.44-8.33c-3.24-.07-6.91.51-6.91,3.68a2.63,2.63,0,0,0,2.8,2.83,4.06,4.06,0,0,0,3.95-2.73,3.1,3.1,0,0,0,.17-0.94V27.39Z" transform="translate(0 0)"/><path d="M149.15,19.4v2.36h-5.09v14h-2.93v-14H136V19.4h13.12Z" transform="translate(0 0)"/></svg>