<svg id="Слой_1" data-name="Слой 1" xmlns="http://www.w3.org/2000/svg" viewBox="0 0 476 56"><defs><style>.cls-1{fill:none;stroke:#191c20;stroke-miterlimit:10;}</style></defs><title>no-result</title><rect class="cls-1" x="0.5" y="0.5" width="475" height="55"/><path d="M120.09,12.27v9.91h11.46V12.27h3.09V36h-3.09V24.85H120.09V36H117V12.27h3.06Z" transform="translate(0 0)"/><path d="M141.56,28c0.07,4.18,2.74,5.91,5.84,5.91a11.19,11.19,0,0,0,4.71-.88l0.53,2.21A13.78,13.78,0,0,1,147,36.31c-5.24,0-8.37-3.45-8.37-8.58s3-9.18,8-9.18c5.55,0,7,4.89,7,8a11.67,11.67,0,0,1-.11,1.44h-12Zm9.07-2.21c0-2-.81-5-4.29-5-3.13,0-4.5,2.88-4.75,5h9Z" transform="translate(0 0)"/><path d="M168.81,18.95v2.46H163.5V36h-3.06V21.41h-5.31V18.95h13.68Z" transform="translate(0 0)"/><path d="M179.21,24.5c0-2.18-.07-3.94-0.14-5.55h2.78L182,21.87h0.07a6.69,6.69,0,0,1,6-3.3c4.11,0,7.21,3.48,7.21,8.65,0,6.12-3.73,9.14-7.73,9.14a6,6,0,0,1-5.24-2.67h-0.07v9.25h-3.06V24.5ZM182.27,29a7,7,0,0,0,.14,1.27A4.77,4.77,0,0,0,187,33.92c3.27,0,5.17-2.67,5.17-6.57,0-3.41-1.79-6.33-5.06-6.33a4.94,4.94,0,0,0-4.68,3.83,5,5,0,0,0-.21,1.27V29Z" transform="translate(0 0)"/><path d="M200.93,28c0.07,4.18,2.74,5.91,5.84,5.91a11.19,11.19,0,0,0,4.71-.88L212,35.26a13.78,13.78,0,0,1-5.66,1.05c-5.24,0-8.37-3.45-8.37-8.58s3-9.18,8-9.18c5.55,0,7,4.89,7,8a11.67,11.67,0,0,1-.11,1.44h-12ZM210,25.8c0-2-.81-5-4.29-5-3.13,0-4.5,2.88-4.75,5h9Z" transform="translate(0 0)"/><path d="M218.33,26.08h1.48c2.6,0,4.36-1.2,4.36-2.78s-1.37-2.46-3.3-2.46a8.21,8.21,0,0,0-4.11,1.2L216,20.14a10.81,10.81,0,0,1,5.66-1.55c2.6,0,5.77,1.16,5.77,4.46,0,2.11-1.93,3.48-3.83,3.87V27c2.53,0.21,4.64,1.76,4.64,4.25,0,3.69-3.76,5.06-7.35,5.06a11.66,11.66,0,0,1-5.52-1.37l0.81-2.07a9.81,9.81,0,0,0,4.5,1.16c2.57,0,4.18-1.23,4.18-2.92,0-2.29-2.39-2.92-5-2.92h-1.55V26.08Z" transform="translate(0 0)"/><path d="M232.81,18.95L236.54,29c0.39,1.13.81,2.46,1.09,3.48h0.07c0.32-1,.67-2.32,1.09-3.55l3.38-10h3.27l-4.64,12.13c-2.21,5.84-3.73,8.82-5.84,10.65a8.38,8.38,0,0,1-3.8,2l-0.77-2.6a8.18,8.18,0,0,0,2.71-1.51,9.38,9.38,0,0,0,2.6-3.45,2.22,2.22,0,0,0,.25-0.74,2.7,2.7,0,0,0-.21-0.81l-6.29-15.68h3.38Z" transform="translate(0 0)"/><path d="M260.87,18.95V36h-3.06V21.37H252V25.8c0,4.78-.46,8-2.67,9.42a5,5,0,0,1-3.37,1.05l-0.32-2.43a3.83,3.83,0,0,0,1.69-.7c1.58-1.16,1.76-3.55,1.76-7.35V18.95h11.81Z" transform="translate(0 0)"/><path d="M268.91,18.95v5.77a17.22,17.22,0,0,1,2.81-.18c3.83,0,7.88,1.2,7.88,5.73a4.82,4.82,0,0,1-1.79,3.9c-1.86,1.58-4.89,2-7.38,2a42.12,42.12,0,0,1-4.57-.25V18.95h3.06Zm0,14.87a17.86,17.86,0,0,0,2.29.14c2.32,0,5.31-.77,5.31-3.62s-3.09-3.59-5.38-3.59a14.51,14.51,0,0,0-2.21.18v6.89Z" transform="translate(0 0)"/><path d="M293.1,18.95v2.46h-5.31V36h-3.06V21.41h-5.31V18.95H293.1Z" transform="translate(0 0)"/><path d="M305,36l-0.25-2.14h-0.11a6.34,6.34,0,0,1-5.2,2.53,4.85,4.85,0,0,1-5.2-4.89c0-4.11,3.66-6.36,10.23-6.33V24.78c0-1.41-.39-3.94-3.87-3.94a8.48,8.48,0,0,0-4.43,1.27l-0.7-2A10.56,10.56,0,0,1,301,18.56c5.2,0,6.47,3.55,6.47,7v6.36a24,24,0,0,0,.28,4.08H305Zm-0.46-8.68c-3.37-.07-7.21.53-7.21,3.83a2.74,2.74,0,0,0,2.92,3,4.23,4.23,0,0,0,4.11-2.85,3.23,3.23,0,0,0,.18-1v-3Z" transform="translate(0 0)"/><path d="M323.75,18.95v2.46h-5.31V36h-3.06V21.41h-5.31V18.95h13.68Z" transform="translate(0 0)"/><path d="M341.4,27.31c0,6.29-4.36,9-8.47,9-4.61,0-8.16-3.37-8.16-8.75,0-5.7,3.73-9,8.44-9C338.09,18.56,341.4,22.11,341.4,27.31Zm-13.5.18c0,3.73,2.14,6.54,5.17,6.54s5.17-2.78,5.17-6.61c0-2.88-1.44-6.54-5.1-6.54S327.9,24.26,327.9,27.49Z" transform="translate(0 0)"/><path d="M345.23,19.16a36.26,36.26,0,0,1,5.41-.39c2.85,0,7.56.46,7.56,4.25,0,2.11-1.62,3.41-3.55,3.83v0.07c2.5,0.35,4.32,1.76,4.32,4.22,0,4.46-5.62,5-9,5-1.9,0-3.87-.14-4.78-0.21V19.16Zm2.92,14.77a18.73,18.73,0,0,0,2.5.14c2.07,0,5.17-.49,5.17-3s-2.46-3-5.41-3h-2.25v5.8Zm0-7.84h2.32c2.29,0,4.64-.67,4.64-2.67,0-1.69-1.48-2.5-4.57-2.5a21.9,21.9,0,0,0-2.39.14v5Z" transform="translate(0 0)"/></svg>