<svg id="Слой_1" data-name="Слой 1" xmlns="http://www.w3.org/2000/svg" viewBox="0 0 153.05 11.8"><title>srv_not-found</title><path d="M-227.87,120.46h-2.41v-4.93h-4.52v4.93h-2.42V109h2.42v4.48h4.52V109h2.41v11.42Z" transform="translate(237.23 -108.88)"/><path d="M-222.87,111.73v3.45q0,0.55-.18,2.67l4-6.12h2.87v8.73h-2.3V117q0-.93.16-2.62l-4,6.11h-2.86v-8.73h2.3Z" transform="translate(237.23 -108.88)"/><path d="M-211.56,111.73v3.2a1,1,0,0,0,1.05,1.14,5,5,0,0,0,1.28-.16,9.36,9.36,0,0,0,1.19-.41v-3.77h2.38v8.73H-208V117a7,7,0,0,1-1.54.62,5.59,5.59,0,0,1-1.37.18,3.11,3.11,0,0,1-2.21-.73,2.71,2.71,0,0,1-.78-2.08v-3.25h2.38Z" transform="translate(237.23 -108.88)"/><path d="M-199.21,120.62a4.51,4.51,0,0,1-3.3-1.16,4.41,4.41,0,0,1-1.19-3.3,4.85,4.85,0,0,1,1.1-3.39,3.91,3.91,0,0,1,3-1.2,3.85,3.85,0,0,1,2.88,1.05,4,4,0,0,1,1,2.91v1.16h-5.63a2.29,2.29,0,0,0,.6,1.59,2.12,2.12,0,0,0,1.58.57,6.55,6.55,0,0,0,1.49-.16,7.49,7.49,0,0,0,1.47-.52V120a5.62,5.62,0,0,1-1.34.46A8.43,8.43,0,0,1-199.21,120.62Zm-0.34-7.36a1.51,1.51,0,0,0-1.19.48,2.22,2.22,0,0,0-.49,1.36h3.34a2,2,0,0,0-.46-1.36A1.56,1.56,0,0,0-199.54,113.26Z" transform="translate(237.23 -108.88)"/><path d="M-187.67,111.73v1.79h-3.65v6.95h-2.38v-8.73h6Z" transform="translate(237.23 -108.88)"/><path d="M-178.12,116.08a4.69,4.69,0,0,1-1.12,3.34,4.08,4.08,0,0,1-3.13,1.2,4.38,4.38,0,0,1-2.22-.55,3.66,3.66,0,0,1-1.48-1.58,5.32,5.32,0,0,1-.52-2.41,4.67,4.67,0,0,1,1.12-3.33,4.1,4.1,0,0,1,3.14-1.19,4.41,4.41,0,0,1,2.22.55,3.66,3.66,0,0,1,1.48,1.57A5.27,5.27,0,0,1-178.12,116.08Zm-6,0a3.66,3.66,0,0,0,.43,2,1.52,1.52,0,0,0,1.39.66A1.5,1.5,0,0,0-181,118a3.72,3.72,0,0,0,.42-2,3.61,3.61,0,0,0-.42-1.95,1.53,1.53,0,0,0-1.38-.65,1.52,1.52,0,0,0-1.37.64A3.61,3.61,0,0,0-184.16,116.08Z" transform="translate(237.23 -108.88)"/><path d="M-169.61,111.73v3.36h3.33v-3.36h2.38v8.73h-2.38v-3.6h-3.33v3.6H-172v-8.73h2.38Z" transform="translate(237.23 -108.88)"/><path d="M-157.45,120.62a4.51,4.51,0,0,1-3.3-1.16,4.41,4.41,0,0,1-1.19-3.3,4.85,4.85,0,0,1,1.1-3.39,3.91,3.91,0,0,1,3-1.2,3.85,3.85,0,0,1,2.88,1.05,4,4,0,0,1,1,2.91v1.16h-5.63a2.29,2.29,0,0,0,.6,1.59,2.12,2.12,0,0,0,1.58.57,6.55,6.55,0,0,0,1.49-.16,7.49,7.49,0,0,0,1.47-.52V120a5.62,5.62,0,0,1-1.34.46A8.43,8.43,0,0,1-157.45,120.62Zm-0.34-7.36a1.51,1.51,0,0,0-1.19.48,2.22,2.22,0,0,0-.49,1.36h3.34a2,2,0,0,0-.46-1.36A1.56,1.56,0,0,0-157.78,113.26Z" transform="translate(237.23 -108.88)"/><path d="M-145.41,111.73v3.36h3.33v-3.36h2.38v8.73h-2.38v-3.6h-3.33v3.6h-2.38v-8.73h2.38Z" transform="translate(237.23 -108.88)"/><path d="M-131.65,120.46l-0.46-1.19h-0.06a3.53,3.53,0,0,1-1.24,1.05,4,4,0,0,1-1.66.29,2.68,2.68,0,0,1-2-.72,2.76,2.76,0,0,1-.72-2,2.31,2.31,0,0,1,1-2.05,5.64,5.64,0,0,1,2.93-.73l1.52,0v-0.38a1.19,1.19,0,0,0-1.36-1.33,6.19,6.19,0,0,0-2.46.63l-0.79-1.61a7.11,7.11,0,0,1,3.34-.79,4.17,4.17,0,0,1,2.7.77,2.83,2.83,0,0,1,.94,2.33v5.82h-1.66Zm-0.7-4-0.92,0a3,3,0,0,0-1.55.38,1.18,1.18,0,0,0-.51,1,1,1,0,0,0,1.16,1,1.83,1.83,0,0,0,1.32-.48,1.67,1.67,0,0,0,.5-1.27v-0.72Z" transform="translate(237.23 -108.88)"/><path d="M-114.53,120.46h-13v-8.73h2.38v6.95h2.93v-6.95h2.38v6.95h2.93v-6.95h2.38v8.73Z" transform="translate(237.23 -108.88)"/><path d="M-104.21,120.46h-2.38v-6.95h-2.2a30.32,30.32,0,0,1-.61,4.37,4.78,4.78,0,0,1-1,2.09,2,2,0,0,1-1.57.64,3.2,3.2,0,0,1-1.36-.25v-1.91a2,2,0,0,0,.77.16,0.89,0.89,0,0,0,.75-0.64,8.76,8.76,0,0,0,.54-2.14q0.24-1.5.41-4.11h6.61v8.73Z" transform="translate(237.23 -108.88)"/><path d="M-99.4,111.73v3.45q0,0.55-.18,2.67l4-6.12h2.87v8.73H-95V117q0-.93.16-2.62l-4,6.11h-2.86v-8.73h2.3Z" transform="translate(237.23 -108.88)"/><path d="M-89.28,116.67V116.1a2.56,2.56,0,0,1,.32-1.3,4.21,4.21,0,0,1,1.17-1.18,4.9,4.9,0,0,0,1.08-1,1.38,1.38,0,0,0,.26-0.82,0.89,0.89,0,0,0-.37-0.77,1.79,1.79,0,0,0-1-.27,6,6,0,0,0-2.67.77l-0.85-1.71a7.45,7.45,0,0,1,3.7-1,3.93,3.93,0,0,1,2.56.77,2.53,2.53,0,0,1,.95,2.06,2.74,2.74,0,0,1-.39,1.48,5.56,5.56,0,0,1-1.48,1.41,4.6,4.6,0,0,0-.95.84,1.31,1.31,0,0,0-.2.76v0.47h-2.07Zm-0.25,2.67a1.31,1.31,0,0,1,.35-1,1.43,1.43,0,0,1,1-.34,1.38,1.38,0,0,1,1,.34,1.31,1.31,0,0,1,.36,1,1.31,1.31,0,0,1-.36,1,1.36,1.36,0,0,1-1,.36,1.4,1.4,0,0,1-1-.35A1.3,1.3,0,0,1-89.53,119.35Z" transform="translate(237.23 -108.88)"/></svg>