<svg id="Слой_1" data-name="Слой 1" xmlns="http://www.w3.org/2000/svg" viewBox="0 0 192 48"><defs><style>.cls-1{fill:lime;}</style></defs><title>srv_card-new</title><rect class="cls-1" width="192" height="48"/><path d="M-331.83,43.43h-2.41V38.51h-4.52v4.93h-2.42V32h2.42v4.48h4.52V32h2.41V43.43Z" transform="translate(376.39 -14.92)"/><path d="M-321.2,39.05a4.69,4.69,0,0,1-1.12,3.34,4.08,4.08,0,0,1-3.13,1.2,4.38,4.38,0,0,1-2.22-.55,3.66,3.66,0,0,1-1.48-1.58,5.32,5.32,0,0,1-.52-2.41,4.67,4.67,0,0,1,1.12-3.33,4.1,4.1,0,0,1,3.14-1.19,4.41,4.41,0,0,1,2.22.55,3.65,3.65,0,0,1,1.48,1.57A5.27,5.27,0,0,1-321.2,39.05Zm-6,0a3.66,3.66,0,0,0,.43,2,1.52,1.52,0,0,0,1.39.66,1.5,1.5,0,0,0,1.37-.66,3.72,3.72,0,0,0,.42-2,3.61,3.61,0,0,0-.42-1.95,1.52,1.52,0,0,0-1.38-.65,1.52,1.52,0,0,0-1.37.64A3.6,3.6,0,0,0-327.23,39.05Z" transform="translate(376.39 -14.92)"/><path d="M-311.16,37a1.74,1.74,0,0,1-.44,1.2,2.14,2.14,0,0,1-1.3.64v0.06a2.46,2.46,0,0,1,1.47.64,1.74,1.74,0,0,1,.54,1.3,2.19,2.19,0,0,1-1,1.94,5.14,5.14,0,0,1-2.86.67h-4.48V34.7h4.48a5,5,0,0,1,2.69.58A1.91,1.91,0,0,1-311.16,37Zm-2.41.19q0-.8-1.27-0.8h-2v1.73h1.73a2.41,2.41,0,0,0,1.15-.22A0.75,0.75,0,0,0-313.58,37.18Zm0.22,3.52a0.8,0.8,0,0,0-.4-0.75,2.45,2.45,0,0,0-1.2-.23h-1.89v2.06h1.94a2,2,0,0,0,1.15-.29A0.93,0.93,0,0,0-313.36,40.7Z" transform="translate(376.39 -14.92)"/><path d="M-306.62,38.08h1.15a5.42,5.42,0,0,1,3,.64,2.17,2.17,0,0,1,1,1.94,2.41,2.41,0,0,1-1,2.08,4.88,4.88,0,0,1-2.87.7H-309V34.7h2.38v3.38Zm2.69,2.61a0.78,0.78,0,0,0-.41-0.73,2.55,2.55,0,0,0-1.21-.23h-1.07v2.06h1.1Q-303.93,41.79-303.93,40.68Zm6,2.75h-2.38V34.7h2.38v8.73Z" transform="translate(376.39 -14.92)"/><path d="M-293.09,34.7v3.45q0,0.55-.18,2.67l4-6.12h2.87v8.73h-2.3V40q0-.93.16-2.62l-4,6.11h-2.86V34.7h2.3Zm6-3.76a2.79,2.79,0,0,1-1.1,2.13,4.77,4.77,0,0,1-2.75.67,4.71,4.71,0,0,1-2.74-.64,2.74,2.74,0,0,1-1-2.16h2.13a1.66,1.66,0,0,0,.4,1.13,1.84,1.84,0,0,0,1.25.32,1.69,1.69,0,0,0,1.18-.36,1.7,1.7,0,0,0,.47-1.1h2.16Z" transform="translate(376.39 -14.92)"/><path d="M-270.59,46.57h-2.14V43.43h-5.87v3.13h-2.14V41.69H-280a11,11,0,0,0,1.26-2.94A21.88,21.88,0,0,0-278,34.7h6.17v7h1.28v4.88Zm-3.66-4.87v-5.2H-276a23.25,23.25,0,0,1-.54,2.76,11.37,11.37,0,0,1-.94,2.45h3.27Z" transform="translate(376.39 -14.92)"/><path d="M-266.79,34.7v3.45q0,0.55-.18,2.67l4-6.12h2.87v8.73h-2.3V40q0-.93.16-2.62l-4,6.11h-2.86V34.7h2.3Z" transform="translate(376.39 -14.92)"/><path d="M-255.4,38.06a5.9,5.9,0,0,0,1.92-.22,0.74,0.74,0,0,0,.57-0.7,0.68,0.68,0,0,0-.41-0.63,3.22,3.22,0,0,0-1.37-.21,7.23,7.23,0,0,0-1.36.15,7.26,7.26,0,0,0-1.39.41l-0.7-1.66a9.91,9.91,0,0,1,1.8-.5,11.44,11.44,0,0,1,2-.15,4.83,4.83,0,0,1,2.62.63,1.92,1.92,0,0,1,1,1.7,1.94,1.94,0,0,1-1.74,1.92v0.08a3.09,3.09,0,0,1,1.53.75,1.79,1.79,0,0,1,.46,1.28,2.14,2.14,0,0,1-.52,1.41,3.28,3.28,0,0,1-1.49,1,7.08,7.08,0,0,1-2.3.34,8.29,8.29,0,0,1-3.36-.54v-2a7.27,7.27,0,0,0,1.47.49,7.06,7.06,0,0,0,1.55.18,4.42,4.42,0,0,0,1.74-.26,0.82,0.82,0,0,0,.58-0.75,0.84,0.84,0,0,0-.61-0.79,5.18,5.18,0,0,0-1.87-.25h-0.92V38.06h0.87Z" transform="translate(376.39 -14.92)"/><path d="M-243.14,43.43l-0.46-1.19h-0.06a3.53,3.53,0,0,1-1.24,1.05,4,4,0,0,1-1.66.29,2.68,2.68,0,0,1-2-.72,2.76,2.76,0,0,1-.72-2,2.31,2.31,0,0,1,1-2.05,5.63,5.63,0,0,1,2.93-.73l1.52,0V37.61a1.19,1.19,0,0,0-1.36-1.33,6.19,6.19,0,0,0-2.46.63l-0.79-1.61a7.1,7.1,0,0,1,3.34-.79,4.16,4.16,0,0,1,2.7.77,2.83,2.83,0,0,1,.94,2.33v5.82h-1.66Zm-0.7-4-0.92,0a3,3,0,0,0-1.55.38,1.18,1.18,0,0,0-.51,1,1,1,0,0,0,1.16,1,1.83,1.83,0,0,0,1.32-.48,1.67,1.67,0,0,0,.5-1.27V39.39Z" transform="translate(376.39 -14.92)"/><path d="M-236.72,34.7v3.45q0,0.55-.18,2.67l4-6.12H-230v8.73h-2.3V40q0-.93.16-2.62l-4,6.11H-239V34.7h2.3Zm6-3.76a2.79,2.79,0,0,1-1.1,2.13,4.77,4.77,0,0,1-2.75.67,4.71,4.71,0,0,1-2.74-.64,2.74,2.74,0,0,1-1-2.16h2.13a1.66,1.66,0,0,0,.4,1.13,1.84,1.84,0,0,0,1.25.32,1.69,1.69,0,0,0,1.18-.36,1.7,1.7,0,0,0,.47-1.1h2.16Z" transform="translate(376.39 -14.92)"/><path d="M-225.12,34.7v3.36h3.33V34.7h2.38v8.73h-2.38v-3.6h-3.33v3.6h-2.38V34.7h2.38Z" transform="translate(376.39 -14.92)"/></svg>