<svg id="Слой_1" data-name="Слой 1" xmlns="http://www.w3.org/2000/svg" viewBox="0 0 345.81 95.59"><defs><style>.cls-1{fill:#191c20;}</style></defs><title>тут будет текст</title><path class="cls-1" d="M-245.71,249V279l1.24,0.1-0.13,11.46H-246l-0.13-8h-8.94l-0.13,8h-1.43l-0.13-11.46,1.07-.1a74.37,74.37,0,0,0,1.39-7.34,114.75,114.75,0,0,0,.67-14.09V249h7.93Zm-6.22,9.87a105.34,105.34,0,0,1-.71,13.64,62.44,62.44,0,0,1-1.16,6.35h6.27V252.61h-4.39v6.3Z" transform="translate(256.77 -246.71)"/><path class="cls-1" d="M-240.51,258.47v10.12c0,3.82,0,6.2-.11,9.62l0.06,0c0.61-2.93,1-4.61,1.64-7.39l3.18-12.4h2.17v24h-1.77V272.31c0-3.92,0-6,.13-9.82h-0.06c-0.65,3.08-1.09,5-1.68,7.44-1,3.72-2.08,8.33-3.17,12.55h-2.12v-24h1.75Z" transform="translate(256.77 -246.71)"/><path class="cls-1" d="M-230.46,258.47h2.27l1.85,12.1c0.25,1.79.69,4.71,0.93,6.6h0c0.23-1.79.8-5.61,1.2-8.23l1.64-10.47h2.29l0.71,24h-1.77L-221.52,271c-0.06-2.58-.15-5.66-0.19-8.58h-0.06c-0.27,2.18-.55,4.12-1.11,7.79l-2,12.1h-1.35L-228,270.47c-0.32-2.28-.76-5.75-1-8h-0.08c0,2.83-.1,6-0.17,8.63l-0.25,11.36h-1.7Z" transform="translate(256.77 -246.71)"/><path class="cls-1" d="M-211.48,282.47l-0.15-3h-0.06c-0.57,1.88-1.66,3.57-3.11,3.57-2.06,0-3.11-3.42-3.11-6.9,0-5.8,2.19-9,6.12-8.93v-0.5c0-2-.23-5.56-2.31-5.56a3.46,3.46,0,0,0-2.65,1.79l-0.42-2.88a4.19,4.19,0,0,1,3.34-2.13c3.11,0,3.87,5,3.87,9.82v9c0,2.08,0,4.12.17,5.75h-1.68Zm-0.27-12.25c-2-.1-4.31.74-4.31,5.41,0,2.83.8,4.17,1.75,4.17,1.32,0,2.17-2,2.46-4a10.31,10.31,0,0,0,.1-1.39v-4.17Z" transform="translate(256.77 -246.71)"/><path class="cls-1" d="M-208.18,288.58c0.46-2.93,1-8.23,1.26-11.86l2.06-.5a119.36,119.36,0,0,1-2,12.05Z" transform="translate(256.77 -246.71)"/><path class="cls-1" d="M-191.29,258.47v3.47h-3.17v20.54h-1.83V261.94h-3.17v-3.47h8.18Z" transform="translate(256.77 -246.71)"/><path class="cls-1" d="M-188.56,258.47l2.23,14.19c0.23,1.59.48,3.47,0.65,4.91h0c0.19-1.44.4-3.27,0.65-5l2-14.09h2l-2.78,17.11c-1.32,8.23-2.23,12.45-3.49,15a5.65,5.65,0,0,1-2.27,2.83l-0.46-3.67a6.11,6.11,0,0,0,1.62-2.13,17.88,17.88,0,0,0,1.56-4.86,6.53,6.53,0,0,0,.15-1,8.32,8.32,0,0,0-.13-1.14l-3.76-22.12h2Z" transform="translate(256.77 -246.71)"/><path class="cls-1" d="M-172,258.47v3.47h-3.17v20.54H-177V261.94h-3.17v-3.47H-172Z" transform="translate(256.77 -246.71)"/><path class="cls-1" d="M-158.06,250.33a7.83,7.83,0,0,1-2.12,1.09c-1.64.6-2.84,1.89-3.62,4.51a35.16,35.16,0,0,0-1.11,7.94h0.06c0.65-3.47,2.08-5.41,3.53-5.41,2.5,0,4.33,4.22,4.33,11.86,0,7.84-1.72,12.7-4.71,12.7-3.57,0-4.75-8.09-4.75-16.07,0-5.46.48-9.92,1.58-13.29s2.4-4.86,4.37-5.66a8.35,8.35,0,0,0,2.52-1.29Zm-3.64,11.36c-1.09,0-1.87,1.34-2.29,3.27a22.88,22.88,0,0,0-.5,5.11c0,4,.82,9.67,2.84,9.67s2.8-4.66,2.8-9.08C-158.86,266.75-159.51,261.69-161.7,261.69Z" transform="translate(256.77 -246.71)"/><path class="cls-1" d="M-154.19,258.47l2.23,14.19c0.23,1.59.48,3.47,0.65,4.91h0c0.19-1.44.4-3.27,0.65-5l2-14.09h2l-2.78,17.11c-1.32,8.23-2.23,12.45-3.49,15a5.65,5.65,0,0,1-2.27,2.83l-0.46-3.67a6.11,6.11,0,0,0,1.62-2.13,17.88,17.88,0,0,0,1.56-4.86,6.53,6.53,0,0,0,.15-1,8.32,8.32,0,0,0-.13-1.14l-3.76-22.12h2Z" transform="translate(256.77 -246.71)"/><path class="cls-1" d="M-137.49,258.47V279.2l1.05,0-0.1,10.86H-138l-0.08-7.64h-7l-0.08,7.64h-1.45l-0.08-10.86,0.86,0a34.15,34.15,0,0,0,1-4.91,72.52,72.52,0,0,0,.59-9.57v-6.25h6.79Zm-5.15,7.29a73,73,0,0,1-.53,8.93,43.56,43.56,0,0,1-.82,4.46h4.69V261.79h-3.34v4Z" transform="translate(256.77 -246.71)"/><path class="cls-1" d="M-133.28,271.26c0,5.9,1.64,8.33,3.49,8.33a3.7,3.7,0,0,0,2.82-1.24l0.32,3.13A4.58,4.58,0,0,1-130,283c-3.13,0-5-4.86-5-12.1s1.81-12.95,4.77-12.95c3.32,0,4.21,6.9,4.21,11.31,0,0.89,0,1.59-.06,2h-7.15Zm5.42-3.13c0-2.78-.48-7.09-2.57-7.09-1.87,0-2.69,4.07-2.84,7.09h5.4Z" transform="translate(256.77 -246.71)"/><path class="cls-1" d="M-117,258.47v3.47h-3.17v20.54H-122V261.94h-3.17v-3.47H-117Z" transform="translate(256.77 -246.71)"/><path class="cls-1" d="M-103.88,258.47v3.47h-3.17v20.54h-1.83V261.94h-3.17v-3.47h8.18Z" transform="translate(256.77 -246.71)"/><path class="cls-1" d="M-101.5,271.26c0,5.9,1.64,8.33,3.49,8.33a3.7,3.7,0,0,0,2.82-1.24l0.32,3.13A4.58,4.58,0,0,1-98.26,283c-3.13,0-5-4.86-5-12.1s1.81-12.95,4.77-12.95c3.32,0,4.21,6.9,4.21,11.31,0,0.89,0,1.59-.06,2h-7.15Zm5.42-3.13c0-2.78-.48-7.09-2.57-7.09-1.87,0-2.69,4.07-2.84,7.09h5.4Z" transform="translate(256.77 -246.71)"/><path class="cls-1" d="M-90.16,258.47v10.42h0.44l3.83-10.42h2.25l-4.44,10.86c1.64,0.4,2.63,3,3.43,7.29,0.27,1.59.63,3.92,1.09,5.85h-1.93c-0.27-1-.63-2.93-0.95-4.91-0.69-3.87-1.64-5.65-3.36-5.65h-0.36v10.57H-92v-24h1.83Z" transform="translate(256.77 -246.71)"/><path class="cls-1" d="M-74.79,281.58A3.92,3.92,0,0,1-77.71,283c-3.07,0-5.07-4.91-5.07-12.25S-80.63,258-77.31,258a3.55,3.55,0,0,1,2.56,1.24l-0.42,3.37a2.62,2.62,0,0,0-2.14-1.14c-2.33,0-3.6,4.07-3.6,9.08,0,5.56,1.51,9,3.53,9a3.14,3.14,0,0,0,2.27-1.19Z" transform="translate(256.77 -246.71)"/><path class="cls-1" d="M-65.41,258.47v3.47h-3.17v20.54h-1.83V261.94h-3.17v-3.47h8.18Z" transform="translate(256.77 -246.71)"/><path class="cls-1" d="M-66.43,288.58c0.46-2.93,1-8.23,1.26-11.86l2.06-.5a119.36,119.36,0,0,1-2,12.05Z" transform="translate(256.77 -246.71)"/><path class="cls-1" d="M-49,282.47h-1.83V272.4H-52.2a1.9,1.9,0,0,0-1.7,1.34c-0.76,1.44-1,4.41-1.43,6.75-0.13.74-.27,1.39-0.42,2h-2a27.06,27.06,0,0,0,.63-2.73c0.44-2.33.69-5.46,1.6-7.24a2.78,2.78,0,0,1,1.16-1.39V271c-1.32-.35-2.69-2.28-2.69-6a8.64,8.64,0,0,1,1.35-5.21,4.08,4.08,0,0,1,3.41-1.64,12.41,12.41,0,0,1,3.28.5v23.81Zm-1.83-21.13a4.55,4.55,0,0,0-1.53-.25c-1.26,0-2.75.84-2.75,4.17,0,3.08,1.62,4.17,2.71,4.17h1.58v-8.09Z" transform="translate(256.77 -246.71)"/><path class="cls-1" d="M-40.5,271.26c0,5.9,1.64,8.33,3.49,8.33a3.7,3.7,0,0,0,2.82-1.24l0.32,3.13A4.58,4.58,0,0,1-37.26,283c-3.13,0-5-4.86-5-12.1s1.81-12.95,4.77-12.95c3.32,0,4.21,6.9,4.21,11.31,0,0.89,0,1.59-.06,2H-40.5Zm5.42-3.13c0-2.78-.48-7.09-2.57-7.09-1.87,0-2.69,4.07-2.84,7.09h5.4Z" transform="translate(256.77 -246.71)"/><path class="cls-1" d="M-24.79,258.47V262h-4.42v20.49H-31v-24h6.25Z" transform="translate(256.77 -246.71)"/><path class="cls-1" d="M-14.1,270.27c0,8.88-2.61,12.75-5.07,12.75-2.75,0-4.88-4.76-4.88-12.35,0-8,2.23-12.75,5-12.75S-14.1,262.93-14.1,270.27Zm-8.07.25c0,5.26,1.28,9.23,3.09,9.23s3.09-3.92,3.09-9.33c0-4.07-.86-9.23-3-9.23S-22.18,266-22.18,270.52Z" transform="translate(256.77 -246.71)"/><path class="cls-1" d="M1.06,258.47v24H-0.79V261.94H-5.52v20.54H-7.35v-24H1.06Z" transform="translate(256.77 -246.71)"/><path class="cls-1" d="M4.07,266.3c0-3.08,0-5.56-.08-7.84H5.65l0.08,4.12h0c0.76-2.93,2-4.66,3.62-4.66,2.46,0,4.31,4.91,4.31,12.2,0,8.63-2.23,12.9-4.63,12.9-1.35,0-2.52-1.39-3.13-3.77h0v13H4.07v-26Zm1.83,6.4c0,0.65,0,1.24.08,1.79,0.34,3,1.45,5.11,2.78,5.11,2,0,3.09-3.77,3.09-9.28,0-4.81-1.07-8.93-3-8.93-1.26,0-2.44,2.13-2.8,5.41a16.13,16.13,0,0,0-.13,1.79v4.12Z" transform="translate(256.77 -246.71)"/><path class="cls-1" d="M17.74,258.47v10.12c0,3.82,0,6.2-.11,9.62l0.06,0c0.61-2.93,1-4.61,1.64-7.39l3.18-12.4h2.17v24H22.92V272.31c0-3.92,0-6,.13-9.82H23c-0.65,3.08-1.09,5-1.68,7.44-1,3.72-2.08,8.33-3.17,12.55H16v-24h1.75Z" transform="translate(256.77 -246.71)"/><path class="cls-1" d="M35.58,258.47V279.2l1.05,0-0.1,10.86H35.07L35,282.47h-7l-0.08,7.64H26.41l-0.08-10.86,0.86,0a34.15,34.15,0,0,0,1-4.91,72.52,72.52,0,0,0,.59-9.57v-6.25h6.79Zm-5.15,7.29a73,73,0,0,1-.53,8.93,43.56,43.56,0,0,1-.82,4.46h4.69V261.79H30.43v4Z" transform="translate(256.77 -246.71)"/><path class="cls-1" d="M39.45,258.47l2.23,14.19c0.23,1.59.48,3.47,0.65,4.91h0c0.19-1.44.4-3.27,0.65-5l2-14.09h2l-2.78,17.11c-1.32,8.23-2.23,12.45-3.49,15a5.65,5.65,0,0,1-2.27,2.83L38,289.77a6.11,6.11,0,0,0,1.62-2.13,17.88,17.88,0,0,0,1.56-4.86,6.53,6.53,0,0,0,.15-1,8.32,8.32,0,0,0-.13-1.14l-3.76-22.12h2Z" transform="translate(256.77 -246.71)"/><path class="cls-1" d="M48.68,258.47H51l1.85,12.1c0.25,1.79.69,4.71,0.93,6.6h0c0.23-1.79.8-5.61,1.2-8.23l1.64-10.47H58.9l0.71,24H57.85L57.62,271c-0.06-2.58-.15-5.66-0.19-8.58H57.37c-0.27,2.18-.55,4.12-1.11,7.79l-2,12.1H53l-1.81-11.86c-0.32-2.28-.76-5.75-1-8H50.05c0,2.83-.1,6-0.17,8.63l-0.25,11.36h-1.7Z" transform="translate(256.77 -246.71)"/><path class="cls-1" d="M67.65,282.47l-0.15-3H67.44c-0.57,1.88-1.66,3.57-3.11,3.57-2.06,0-3.11-3.42-3.11-6.9,0-5.8,2.19-9,6.12-8.93v-0.5c0-2-.23-5.56-2.31-5.56a3.46,3.46,0,0,0-2.65,1.79L62,260.05a4.19,4.19,0,0,1,3.34-2.13c3.11,0,3.87,5,3.87,9.82v9c0,2.08,0,4.12.17,5.75H67.65Zm-0.27-12.25c-2-.1-4.31.74-4.31,5.41,0,2.83.8,4.17,1.75,4.17,1.32,0,2.17-2,2.46-4a10.31,10.31,0,0,0,.1-1.39v-4.17Z" transform="translate(256.77 -246.71)"/><path class="cls-1" d="M73.92,258.47v10.12h1.75c0.32-6.35,2.08-10.67,4.52-10.67,2.65,0,4.46,5,4.46,12.35,0,7.79-2,12.75-4.58,12.75s-4.23-4.27-4.44-11.11h-1.7v10.57H72.12v-24h1.81Zm8.87,11.91c0-4.51-.86-9.18-2.67-9.18s-2.73,4.56-2.73,9.43c0,4.66.9,9.18,2.69,9.18S82.8,274.93,82.8,270.37Z" transform="translate(256.77 -246.71)"/><path class="cls-1" d="M86.54,279.9c0-1.84.53-3.12,1.26-3.12S89,278.06,89,279.9,88.56,283,87.79,283,86.54,281.68,86.54,279.9Z" transform="translate(256.77 -246.71)"/><path class="cls-1" d="M-255.4,309a8,8,0,0,1,3.34-.69,4,4,0,0,1,3.89,2.43,12.21,12.21,0,0,1,1.18,5.9c0,3.22-.9,6.05-2.4,7.34v0.1c1.35,0.79,2.92,3.42,2.92,8.38a16.66,16.66,0,0,1-1.2,6.7,5,5,0,0,1-4.9,3.13,9.36,9.36,0,0,1-2.84-.4V309Zm1.83,13.69h1.66c1.93,0,3.07-2.38,3.07-5.61,0-3.92-1.26-5.46-3.11-5.46a3.53,3.53,0,0,0-1.62.3V322.7Zm0,16a4.27,4.27,0,0,0,1.54.2c1.89,0,3.64-1.64,3.64-6.5,0-4.56-1.66-6.45-3.66-6.45h-1.51v12.75Z" transform="translate(256.77 -246.71)"/><path class="cls-1" d="M-242.72,308.56v10.62c0,4.56,1,7.14,3,7.14a3.79,3.79,0,0,0,2.8-1.88V308.56h1.85V342h-1.85V327.81h0a4.38,4.38,0,0,1-3.41,2.08c-1.87,0-4.18-1.88-4.18-10.07V308.56h1.83Z" transform="translate(256.77 -246.71)"/></svg>