<svg id="Слой_1" data-name="Слой 1" xmlns="http://www.w3.org/2000/svg" viewBox="0 0 476 56"><defs><style>.cls-1{fill:#191c20;}.cls-2{fill:none;stroke:#191c20;stroke-miterlimit:10;}</style></defs><title>card-other</title><path class="cls-1" d="M72.21,291.38a26.06,26.06,0,0,1,4.91-.43c2.69,0,4.42.46,5.72,1.51a4.37,4.37,0,0,1,1.73,3.68A4.94,4.94,0,0,1,81,300.71v0.06A5.37,5.37,0,0,1,85.34,306a5.61,5.61,0,0,1-1.76,4.17c-1.45,1.33-3.8,1.95-7.2,1.95a31.34,31.34,0,0,1-4.17-.25V291.38Zm2.69,8.53h2.44c2.84,0,4.51-1.48,4.51-3.49,0-2.44-1.85-3.4-4.57-3.4a11.52,11.52,0,0,0-2.38.19v6.71Zm0,10a14.35,14.35,0,0,0,2.26.12c2.78,0,5.35-1,5.35-4,0-2.84-2.44-4-5.38-4H74.9v7.94Z" transform="translate(-55.64 -276.5)"/><path class="cls-1" d="M97.14,311.93L96.93,310H96.84a5.57,5.57,0,0,1-4.57,2.22A4.26,4.26,0,0,1,87.69,308c0-3.62,3.21-5.59,9-5.56v-0.31c0-1.24-.34-3.46-3.4-3.46a7.45,7.45,0,0,0-3.89,1.11L88.77,298a9.28,9.28,0,0,1,4.91-1.33c4.57,0,5.69,3.12,5.69,6.12v5.59a21.09,21.09,0,0,0,.25,3.58H97.14Zm-0.4-7.63c-3-.06-6.33.46-6.33,3.37a2.41,2.41,0,0,0,2.56,2.6,3.72,3.72,0,0,0,3.62-2.5,2.83,2.83,0,0,0,.15-0.87v-2.6Z" transform="translate(-55.64 -276.5)"/><path class="cls-1" d="M114.42,311.38a10,10,0,0,1-4.3.87c-4.51,0-7.45-3.06-7.45-7.63a7.6,7.6,0,0,1,8-7.94,9.09,9.09,0,0,1,3.77.77l-0.62,2.1a6.31,6.31,0,0,0-3.15-.71c-3.43,0-5.28,2.53-5.28,5.65,0,3.46,2.22,5.59,5.19,5.59a7.72,7.72,0,0,0,3.34-.74Z" transform="translate(-55.64 -276.5)"/><path class="cls-1" d="M134.26,297v2.16h-4.67v12.79H126.9V299.14h-4.67V297h12Z" transform="translate(-55.64 -276.5)"/><path class="cls-1" d="M144.7,311.93L144.48,310h-0.09a5.57,5.57,0,0,1-4.57,2.22,4.26,4.26,0,0,1-4.57-4.29c0-3.62,3.21-5.59,9-5.56v-0.31c0-1.24-.34-3.46-3.4-3.46a7.45,7.45,0,0,0-3.89,1.11L136.33,298a9.28,9.28,0,0,1,4.91-1.33c4.57,0,5.69,3.12,5.69,6.12v5.59a21.09,21.09,0,0,0,.25,3.58H144.7Zm-0.4-7.63c-3-.06-6.33.46-6.33,3.37a2.41,2.41,0,0,0,2.56,2.6,3.72,3.72,0,0,0,3.62-2.5,2.83,2.83,0,0,0,.15-0.87v-2.6Z" transform="translate(-55.64 -276.5)"/><path class="cls-1" d="M154,297v6.49h0.65l5.62-6.49h3.31l-6.52,6.77c2.41,0.25,3.86,1.85,5,4.54a31.52,31.52,0,0,0,1.61,3.65h-2.84a19.92,19.92,0,0,1-1.39-3.06c-1-2.41-2.41-3.52-4.94-3.52H154v6.58h-2.69V297H154Z" transform="translate(-55.64 -276.5)"/><path class="cls-1" d="M168,297l4.94,6.52h0.56V297h2.6v6.52h0.53l4.94-6.52h3.12l-5.9,6.8c2.26,0.25,3.58,1.58,4.48,4a36.18,36.18,0,0,0,1.64,4.2h-2.72a22,22,0,0,1-1.36-3.43c-0.93-2.44-2.32-3.18-4.26-3.18h-0.46v6.61h-2.6v-6.61H173c-2.1,0-3.37.77-4.29,3.21a26.36,26.36,0,0,1-1.42,3.4h-2.63a43.56,43.56,0,0,0,1.64-4.17c0.93-2.41,2.26-3.74,4.51-4l-5.93-6.8H168Z" transform="translate(-55.64 -276.5)"/><path class="cls-1" d="M188.67,304.95c0.06,3.68,2.41,5.19,5.13,5.19a9.83,9.83,0,0,0,4.14-.77l0.46,1.95a12.11,12.11,0,0,1-5,.93c-4.6,0-7.35-3-7.35-7.54s2.66-8.06,7-8.06c4.88,0,6.18,4.29,6.18,7a10.27,10.27,0,0,1-.09,1.27H188.67Zm8-1.95c0-1.73-.71-4.42-3.77-4.42-2.75,0-4,2.53-4.17,4.42h7.94Z" transform="translate(-55.64 -276.5)"/><path class="cls-1" d="M209.34,297h3.34l2.72,7.54c0.37,1.11,1,2.94,1.36,4.11h0.06c0.34-1.11,1.17-3.49,1.76-5.13L221,297h3.37l1.05,15h-2.6l-0.34-7.14c-0.09-1.61-.22-3.52-0.28-5.35H222.1c-0.4,1.36-.8,2.56-1.64,4.85l-2.87,7.54h-2L213,304.45c-0.46-1.42-1.11-3.58-1.48-5h-0.12c-0.06,1.76-.15,3.74-0.25,5.38l-0.37,7.08h-2.5Z" transform="translate(-55.64 -276.5)"/><path class="cls-1" d="M242.47,304.33c0,5.53-3.83,7.94-7.45,7.94-4,0-7.17-3-7.17-7.69,0-5,3.27-7.94,7.42-7.94C239.56,296.64,242.47,299.76,242.47,304.33Zm-11.87.15c0,3.28,1.88,5.75,4.54,5.75s4.54-2.44,4.54-5.81c0-2.53-1.27-5.75-4.48-5.75S230.6,301.64,230.6,304.48Z" transform="translate(-55.64 -276.5)"/><path class="cls-1" d="M246.92,297l4.94,6.52h0.56V297H255v6.52h0.53l4.94-6.52h3.12l-5.9,6.8c2.26,0.25,3.58,1.58,4.48,4a36.18,36.18,0,0,0,1.64,4.2H261.1a22,22,0,0,1-1.36-3.43c-0.93-2.44-2.32-3.18-4.26-3.18H255v6.61h-2.6v-6.61h-0.49c-2.1,0-3.37.77-4.29,3.21a26.36,26.36,0,0,1-1.42,3.4h-2.63a43.56,43.56,0,0,0,1.64-4.17c0.93-2.41,2.26-3.74,4.51-4L243.8,297h3.12Z" transform="translate(-55.64 -276.5)"/><path class="cls-1" d="M267.59,304.95c0.06,3.68,2.41,5.19,5.13,5.19a9.83,9.83,0,0,0,4.14-.77l0.46,1.95a12.11,12.11,0,0,1-5,.93c-4.6,0-7.35-3-7.35-7.54s2.66-8.06,7-8.06c4.88,0,6.18,4.29,6.18,7a10.27,10.27,0,0,1-.09,1.27H267.59Zm8-1.95c0-1.73-.71-4.42-3.77-4.42-2.75,0-4,2.53-4.17,4.42h7.94Z" transform="translate(-55.64 -276.5)"/><path class="cls-1" d="M291.54,297v2.16h-4.67v12.79h-2.69V299.14h-4.67V297h12Z" transform="translate(-55.64 -276.5)"/><path class="cls-1" d="M301.92,303.25h1.3c2.29,0,3.83-1.05,3.83-2.44s-1.21-2.16-2.9-2.16a7.21,7.21,0,0,0-3.62,1.05L299.85,298a9.5,9.5,0,0,1,5-1.36c2.29,0,5.07,1,5.07,3.92,0,1.85-1.7,3.06-3.37,3.4v0.06c2.22,0.19,4.08,1.54,4.08,3.74,0,3.24-3.31,4.45-6.46,4.45a10.25,10.25,0,0,1-4.85-1.21l0.71-1.82a8.62,8.62,0,0,0,4,1c2.25,0,3.68-1.08,3.68-2.56,0-2-2.1-2.56-4.36-2.56h-1.36v-1.85Z" transform="translate(-55.64 -276.5)"/><path class="cls-1" d="M322.28,311.93L322.07,310H322a5.57,5.57,0,0,1-4.57,2.22,4.26,4.26,0,0,1-4.57-4.29c0-3.62,3.21-5.59,9-5.56v-0.31c0-1.24-.34-3.46-3.4-3.46a7.45,7.45,0,0,0-3.89,1.11L313.91,298a9.28,9.28,0,0,1,4.91-1.33c4.57,0,5.69,3.12,5.69,6.12v5.59a21,21,0,0,0,.25,3.58h-2.47Zm-0.4-7.63c-3-.06-6.33.46-6.33,3.37a2.41,2.41,0,0,0,2.56,2.6,3.72,3.72,0,0,0,3.62-2.5,2.83,2.83,0,0,0,.15-0.87v-2.6Z" transform="translate(-55.64 -276.5)"/><path class="cls-1" d="M331.4,297v6.3c0,2.38,0,3.86-.16,6l0.09,0c0.9-1.82,1.42-2.87,2.41-4.6l4.67-7.72h3.18v15H339V305.6c0-2.44.06-3.71,0.19-6.12h-0.09c-1,1.92-1.61,3.12-2.47,4.63-1.42,2.32-3.06,5.19-4.67,7.82h-3.12V297h2.57Z" transform="translate(-55.64 -276.5)"/><path class="cls-1" d="M348.64,297v6h7.11v-6h2.69v15h-2.69v-6.77h-7.11v6.77H346V297h2.69Z" transform="translate(-55.64 -276.5)"/><path class="cls-1" d="M372.9,297v2.16h-4.67v12.79h-2.69V299.14h-4.67V297h12Z" transform="translate(-55.64 -276.5)"/><path class="cls-1" d="M376.39,304.95c0.06,3.68,2.41,5.19,5.13,5.19a9.83,9.83,0,0,0,4.14-.77l0.46,1.95a12.11,12.11,0,0,1-5,.93c-4.6,0-7.35-3-7.35-7.54s2.66-8.06,7-8.06c4.88,0,6.18,4.29,6.18,7a10.17,10.17,0,0,1-.09,1.27H376.39Zm8-1.95c0-1.73-.71-4.42-3.77-4.42-2.75,0-4,2.53-4.17,4.42h7.94Z" transform="translate(-55.64 -276.5)"/><path class="cls-1" d="M390.36,301.86c0-1.92-.06-3.46-0.12-4.88h2.44l0.12,2.56h0.06a5.88,5.88,0,0,1,5.31-2.9c3.62,0,6.33,3.06,6.33,7.6,0,5.38-3.28,8-6.8,8a5.24,5.24,0,0,1-4.6-2.35H393V318h-2.69V301.86Zm2.69,4a6.15,6.15,0,0,0,.12,1.11,4.2,4.2,0,0,0,4.08,3.18c2.87,0,4.54-2.35,4.54-5.78,0-3-1.58-5.56-4.45-5.56a4.34,4.34,0,0,0-4.11,3.37,4.41,4.41,0,0,0-.19,1.11v2.56Z" transform="translate(-55.64 -276.5)"/><path class="cls-1" d="M409.45,304.95c0.06,3.68,2.41,5.19,5.13,5.19a9.83,9.83,0,0,0,4.14-.77l0.46,1.95a12.11,12.11,0,0,1-5,.93c-4.6,0-7.35-3-7.35-7.54s2.66-8.06,7-8.06c4.88,0,6.18,4.29,6.18,7a10.17,10.17,0,0,1-.09,1.27H409.45Zm8-1.95c0-1.73-.71-4.42-3.77-4.42-2.75,0-4,2.53-4.17,4.42h7.94Z" transform="translate(-55.64 -276.5)"/><path class="cls-1" d="M434.08,311.38a10,10,0,0,1-4.29.87c-4.51,0-7.45-3.06-7.45-7.63a7.6,7.6,0,0,1,8-7.94,9.09,9.09,0,0,1,3.77.77l-0.62,2.1a6.3,6.3,0,0,0-3.15-.71c-3.43,0-5.28,2.53-5.28,5.65,0,3.46,2.22,5.59,5.19,5.59a7.72,7.72,0,0,0,3.34-.74Z" transform="translate(-55.64 -276.5)"/><path class="cls-1" d="M450.61,304.33c0,5.53-3.83,7.94-7.45,7.94-4,0-7.17-3-7.17-7.69,0-5,3.28-7.94,7.42-7.94C447.71,296.64,450.61,299.76,450.61,304.33Zm-11.87.15c0,3.28,1.88,5.75,4.54,5.75s4.54-2.44,4.54-5.81c0-2.53-1.27-5.75-4.48-5.75S438.75,301.64,438.75,304.48Z" transform="translate(-55.64 -276.5)"/><path class="cls-1" d="M454,297.16a31.85,31.85,0,0,1,4.76-.34c2.5,0,6.64.4,6.64,3.74a3.54,3.54,0,0,1-3.12,3.37V304c2.19,0.31,3.8,1.54,3.8,3.71,0,3.92-4.94,4.42-7.88,4.42-1.67,0-3.4-.12-4.2-0.19V297.16Zm2.57,13a16.45,16.45,0,0,0,2.19.12c1.82,0,4.54-.43,4.54-2.6s-2.16-2.63-4.76-2.63h-2v5.1Zm0-6.89h2c2,0,4.08-.59,4.08-2.35,0-1.48-1.3-2.19-4-2.19a19.2,19.2,0,0,0-2.1.12v4.42Z" transform="translate(-55.64 -276.5)"/><path class="cls-1" d="M477.78,311.93L477.56,310h-0.09a5.57,5.57,0,0,1-4.57,2.22,4.26,4.26,0,0,1-4.57-4.29c0-3.62,3.21-5.59,9-5.56v-0.31c0-1.24-.34-3.46-3.4-3.46a7.45,7.45,0,0,0-3.89,1.11L469.4,298a9.28,9.28,0,0,1,4.91-1.33c4.57,0,5.69,3.12,5.69,6.12v5.59a21,21,0,0,0,.25,3.58h-2.47Zm-0.4-7.63c-3-.06-6.33.46-6.33,3.37a2.41,2.41,0,0,0,2.56,2.6,3.72,3.72,0,0,0,3.62-2.5,2.83,2.83,0,0,0,.15-0.87v-2.6Z" transform="translate(-55.64 -276.5)"/><path class="cls-1" d="M494.28,297v2.16h-4.67v12.79h-2.69V299.14h-4.67V297h12Z" transform="translate(-55.64 -276.5)"/><path class="cls-1" d="M499.28,297V302a15.15,15.15,0,0,1,2.47-.15c3.37,0,6.92,1.05,6.92,5a4.24,4.24,0,0,1-1.58,3.43c-1.64,1.39-4.29,1.73-6.49,1.73a36.93,36.93,0,0,1-4-.22V297h2.69Zm0,13.07a15.75,15.75,0,0,0,2,.12c2,0,4.67-.68,4.67-3.18s-2.72-3.15-4.73-3.15a12.75,12.75,0,0,0-1.95.15V310Z" transform="translate(-55.64 -276.5)"/><path class="cls-1" d="M511.4,299.45a1.84,1.84,0,1,1,3.68,0A1.84,1.84,0,1,1,511.4,299.45Zm0,10.91a1.84,1.84,0,1,1,3.68,0A1.84,1.84,0,1,1,511.4,310.36Z" transform="translate(-55.64 -276.5)"/><rect class="cls-2" x="0.5" y="0.5" width="475" height="55"/></svg>
