<svg id="Слой_1" data-name="Слой 1" xmlns="http://www.w3.org/2000/svg" viewBox="0 0 76.03 15.43"><title>srv_filters</title><path d="M53.79,83.82V82.06H53.62a6,6,0,0,1-2.55-.51A3.93,3.93,0,0,1,49.35,80a4.25,4.25,0,0,1-.63-2.27,4.31,4.31,0,0,1,.56-2.18A3.88,3.88,0,0,1,50.89,74a5.3,5.3,0,0,1,2.48-.55h0.41V72.08H56v1.41h0.41a5.28,5.28,0,0,1,2.48.55,3.91,3.91,0,0,1,1.62,1.52A4.47,4.47,0,0,1,60.41,80a3.94,3.94,0,0,1-1.72,1.54,6,6,0,0,1-2.55.51H56v1.76H53.79Zm0-8.45H53.47a2.5,2.5,0,0,0-1.81.64A2.27,2.27,0,0,0,51,77.73a2.37,2.37,0,0,0,.7,1.8,2.76,2.76,0,0,0,2,.67h0.11V75.38ZM56,80.2h0.11a2.8,2.8,0,0,0,2-.66,2.34,2.34,0,0,0,.71-1.81A2.27,2.27,0,0,0,58.1,76a2.49,2.49,0,0,0-1.81-.64H56V80.2Z" transform="translate(-48.72 -72.08)"/><path d="M65.31,74.93v3.45q0,0.55-.18,2.67l4-6.12H72v8.73h-2.3V80.18q0-.93.16-2.62l-4,6.11H63V74.93h2.3Z" transform="translate(-48.72 -72.08)"/><path d="M82.35,83.67H80V76.72h-2.2a30.32,30.32,0,0,1-.61,4.37,4.78,4.78,0,0,1-1,2.09,2,2,0,0,1-1.57.64,3.2,3.2,0,0,1-1.36-.25V81.67a2,2,0,0,0,.77.16,0.89,0.89,0,0,0,.75-0.64A8.76,8.76,0,0,0,75.33,79q0.24-1.5.41-4.11h6.61v8.73Z" transform="translate(-48.72 -72.08)"/><path d="M87.23,78.31h1.68a5.5,5.5,0,0,1,3,.64,2.17,2.17,0,0,1,1,1.94q0,2.78-3.86,2.78H84.85V74.93h2.38v3.38Zm3.25,2.61a0.78,0.78,0,0,0-.41-0.73A2.55,2.55,0,0,0,88.87,80H87.23V82H88.9Q90.48,82,90.48,80.92Z" transform="translate(-48.72 -72.08)"/><path d="M101.9,74.93v1.79H99v6.95H96.66V76.72H93.79V74.93h8.11Z" transform="translate(-48.72 -72.08)"/><path d="M108.32,83.82a2.9,2.9,0,0,1-2.41-1.12h-0.12q0.12,1.09.13,1.27v3.54h-2.38V74.93h1.94l0.34,1.13h0.11a2.76,2.76,0,0,1,2.48-1.3,2.83,2.83,0,0,1,2.42,1.2,5.53,5.53,0,0,1,.88,3.32,6.56,6.56,0,0,1-.41,2.43,3.41,3.41,0,0,1-1.17,1.57A3,3,0,0,1,108.32,83.82Zm-0.7-7.15a1.51,1.51,0,0,0-1.29.54,3.12,3.12,0,0,0-.42,1.79v0.26a3.68,3.68,0,0,0,.42,2,1.49,1.49,0,0,0,1.32.61q1.6,0,1.6-2.64a3.77,3.77,0,0,0-.39-1.93A1.35,1.35,0,0,0,107.62,76.67Z" transform="translate(-48.72 -72.08)"/><path d="M116,78.31h1.15a5.42,5.42,0,0,1,3,.64,2.17,2.17,0,0,1,1,1.94,2.41,2.41,0,0,1-1,2.08,4.88,4.88,0,0,1-2.87.7h-3.62V74.93H116v3.38Zm2.69,2.61a0.78,0.78,0,0,0-.41-0.73A2.55,2.55,0,0,0,117.1,80H116V82h1.1Q118.72,82,118.72,80.92Zm6,2.75h-2.38V74.93h2.38v8.73Z" transform="translate(-48.72 -72.08)"/></svg>