<svg id="Слой_1" data-name="Слой 1" xmlns="http://www.w3.org/2000/svg" viewBox="0 0 286.05 15.27"><title>srv_related</title><path d="M-60.56,116.24H-57a6.85,6.85,0,0,1,3.53.69,2.41,2.41,0,0,1,1.1,2.2,2.77,2.77,0,0,1-.48,1.68,1.92,1.92,0,0,1-1.28.79v0.08a2.52,2.52,0,0,1,1.57.91,3,3,0,0,1,.48,1.77,2.91,2.91,0,0,1-1.13,2.44,4.89,4.89,0,0,1-3.07.88h-4.27V116.24Zm2.42,4.52h1.41a2.57,2.57,0,0,0,1.43-.3,1.14,1.14,0,0,0,.44-1,1,1,0,0,0-.48-0.94,3.1,3.1,0,0,0-1.52-.29h-1.27v2.54Zm0,1.92v3h1.58a2.34,2.34,0,0,0,1.48-.38,1.41,1.41,0,0,0,.48-1.17q0-1.42-2-1.42h-1.5Z" transform="translate(60.56 -116.24)"/><path d="M-44.45,127.67l-0.46-1.19H-45a3.53,3.53,0,0,1-1.24,1.05,4,4,0,0,1-1.66.29,2.68,2.68,0,0,1-2-.72,2.76,2.76,0,0,1-.72-2,2.31,2.31,0,0,1,1-2.05,5.64,5.64,0,0,1,2.93-.73l1.52,0v-0.38a1.19,1.19,0,0,0-1.36-1.33,6.19,6.19,0,0,0-2.46.63l-0.79-1.61a7.11,7.11,0,0,1,3.34-.79,4.17,4.17,0,0,1,2.7.77,2.83,2.83,0,0,1,.94,2.33v5.82h-1.66Zm-0.7-4-0.92,0a3,3,0,0,0-1.55.38,1.18,1.18,0,0,0-.51,1,1,1,0,0,0,1.16,1,1.83,1.83,0,0,0,1.32-.48,1.67,1.67,0,0,0,.5-1.27v-0.72Z" transform="translate(60.56 -116.24)"/><path d="M-36.79,127.82q-4.08,0-4.08-4.48a4.77,4.77,0,0,1,1.11-3.4,4.16,4.16,0,0,1,3.18-1.18,6.07,6.07,0,0,1,2.72.59l-0.7,1.84q-0.56-.23-1-0.37a3.4,3.4,0,0,0-1-.14q-1.86,0-1.86,2.64t1.86,2.56a4.25,4.25,0,0,0,1.27-.18,4.58,4.58,0,0,0,1.17-.57v2a3.84,3.84,0,0,1-1.17.51A6.57,6.57,0,0,1-36.79,127.82Z" transform="translate(60.56 -116.24)"/><path d="M-20.73,118.93v1.79h-2.86v6.95H-26v-6.95h-2.87v-1.79h8.11Z" transform="translate(60.56 -116.24)"/><path d="M-13.55,127.67L-14,126.48h-0.06a3.53,3.53,0,0,1-1.24,1.05,4,4,0,0,1-1.66.29,2.68,2.68,0,0,1-2-.72,2.76,2.76,0,0,1-.72-2,2.31,2.31,0,0,1,1-2.05,5.64,5.64,0,0,1,2.93-.73l1.52,0v-0.38a1.19,1.19,0,0,0-1.36-1.33,6.19,6.19,0,0,0-2.46.63l-0.79-1.61a7.11,7.11,0,0,1,3.34-.79,4.17,4.17,0,0,1,2.7.77,2.83,2.83,0,0,1,.94,2.33v5.82h-1.66Zm-0.7-4-0.92,0a3,3,0,0,0-1.55.38,1.18,1.18,0,0,0-.51,1,1,1,0,0,0,1.16,1,1.83,1.83,0,0,0,1.32-.48,1.67,1.67,0,0,0,.5-1.27v-0.72Z" transform="translate(60.56 -116.24)"/><path d="M-3.71,118.93h2.63l-3.46,4.19,3.77,4.55h-2.7l-3.57-4.43v4.43H-9.44v-8.73h2.38v4.24Z" transform="translate(60.56 -116.24)"/><path d="M9.25,123.17v-4.24h2.22v4.24l3.11-4.24H17l-3.22,4.19,3.52,4.55H14.8l-3.33-4.43v4.43H9.25v-4.43l-3.33,4.43H3.38l3.52-4.55-3.22-4.19H6.14Z" transform="translate(60.56 -116.24)"/><path d="M22.55,127.82a4.51,4.51,0,0,1-3.3-1.16,4.41,4.41,0,0,1-1.19-3.3,4.85,4.85,0,0,1,1.1-3.39,3.91,3.91,0,0,1,3-1.2,3.85,3.85,0,0,1,2.88,1.05,4,4,0,0,1,1,2.91v1.16H20.48a2.29,2.29,0,0,0,.6,1.59,2.12,2.12,0,0,0,1.58.57,6.55,6.55,0,0,0,1.49-.16,7.49,7.49,0,0,0,1.47-.52v1.84a5.62,5.62,0,0,1-1.34.46A8.43,8.43,0,0,1,22.55,127.82Zm-0.34-7.36a1.51,1.51,0,0,0-1.19.48,2.22,2.22,0,0,0-.49,1.36h3.34a2,2,0,0,0-.46-1.36A1.56,1.56,0,0,0,22.21,120.46Z" transform="translate(60.56 -116.24)"/><path d="M43.21,127.67H41v-6.88l-0.12.48a21.86,21.86,0,0,1-.76,2.49l-1.55,3.91h-1.7l-1.57-3.94a20.2,20.2,0,0,1-.72-2.41l-0.15-.53v6.88H32.2v-8.73h3.28l1.5,3.73a12,12,0,0,1,.43,1.38,11.28,11.28,0,0,1,.27,1.34q0.26-1.17.4-1.68a9.39,9.39,0,0,1,.32-0.94L40,118.93h3.25v8.73Z" transform="translate(60.56 -116.24)"/><path d="M53.65,123.28a4.69,4.69,0,0,1-1.12,3.34,4.08,4.08,0,0,1-3.13,1.2,4.38,4.38,0,0,1-2.22-.55,3.66,3.66,0,0,1-1.48-1.58,5.32,5.32,0,0,1-.52-2.41A4.67,4.67,0,0,1,46.3,120a4.1,4.1,0,0,1,3.14-1.19,4.41,4.41,0,0,1,2.22.55,3.66,3.66,0,0,1,1.48,1.57A5.27,5.27,0,0,1,53.65,123.28Zm-6,0a3.66,3.66,0,0,0,.43,2,1.52,1.52,0,0,0,1.39.66,1.5,1.5,0,0,0,1.37-.66,3.72,3.72,0,0,0,.42-2,3.61,3.61,0,0,0-.42-1.95,1.79,1.79,0,0,0-2.76,0A3.61,3.61,0,0,0,47.61,123.28Z" transform="translate(60.56 -116.24)"/><path d="M60.24,123.17v-4.24h2.22v4.24l3.11-4.24H68l-3.22,4.19,3.52,4.55H65.79l-3.33-4.43v4.43H60.24v-4.43l-3.33,4.43H54.37l3.52-4.55-3.22-4.19h2.46Z" transform="translate(60.56 -116.24)"/><path d="M73.54,127.82a4.51,4.51,0,0,1-3.3-1.16,4.41,4.41,0,0,1-1.19-3.3,4.85,4.85,0,0,1,1.1-3.39,3.91,3.91,0,0,1,3-1.2,3.85,3.85,0,0,1,2.88,1.05,4,4,0,0,1,1,2.91v1.16H71.47a2.29,2.29,0,0,0,.6,1.59,2.12,2.12,0,0,0,1.58.57,6.55,6.55,0,0,0,1.49-.16,7.49,7.49,0,0,0,1.47-.52v1.84a5.62,5.62,0,0,1-1.34.46A8.43,8.43,0,0,1,73.54,127.82Zm-0.34-7.36a1.51,1.51,0,0,0-1.19.48,2.22,2.22,0,0,0-.49,1.36h3.34a2,2,0,0,0-.46-1.36A1.56,1.56,0,0,0,73.2,120.46Z" transform="translate(60.56 -116.24)"/><path d="M86.27,118.93v1.79H83.41v6.95H81v-6.95H78.16v-1.79h8.11Z" transform="translate(60.56 -116.24)"/><path d="M94.22,122.29a5.87,5.87,0,0,0,1.92-.22,0.74,0.74,0,0,0,.57-0.7,0.68,0.68,0,0,0-.41-0.63,3.22,3.22,0,0,0-1.37-.21,7.23,7.23,0,0,0-1.36.15,7.33,7.33,0,0,0-1.39.41l-0.7-1.66a9.91,9.91,0,0,1,1.8-.5,11.44,11.44,0,0,1,2-.15,4.84,4.84,0,0,1,2.62.63,1.94,1.94,0,0,1-.76,3.62v0.08a3.09,3.09,0,0,1,1.53.75,1.79,1.79,0,0,1,.46,1.28,2.14,2.14,0,0,1-.52,1.41,3.28,3.28,0,0,1-1.49,1,7.08,7.08,0,0,1-2.3.34,8.29,8.29,0,0,1-3.36-.54v-2a7.27,7.27,0,0,0,1.47.49,7.06,7.06,0,0,0,1.55.18,4.42,4.42,0,0,0,1.74-.26,0.82,0.82,0,0,0,.58-0.75,0.84,0.84,0,0,0-.61-0.79,5.18,5.18,0,0,0-1.87-.25H93.34v-1.65h0.88Z" transform="translate(60.56 -116.24)"/><path d="M106.48,127.67L106,126.48H106a3.53,3.53,0,0,1-1.24,1.05,4,4,0,0,1-1.66.29,2.68,2.68,0,0,1-2-.72,2.76,2.76,0,0,1-.72-2,2.31,2.31,0,0,1,1-2.05,5.64,5.64,0,0,1,2.93-.73l1.52,0v-0.38a1.19,1.19,0,0,0-1.36-1.33,6.19,6.19,0,0,0-2.46.63l-0.79-1.61a7.11,7.11,0,0,1,3.34-.79,4.17,4.17,0,0,1,2.7.77,2.83,2.83,0,0,1,.94,2.33v5.82h-1.66Zm-0.7-4-0.92,0a3,3,0,0,0-1.55.38,1.18,1.18,0,0,0-.51,1,1,1,0,0,0,1.16,1,1.83,1.83,0,0,0,1.32-.48,1.67,1.67,0,0,0,.5-1.27v-0.72Z" transform="translate(60.56 -116.24)"/><path d="M112.9,118.93v3.45q0,0.55-.18,2.67l4-6.12h2.87v8.73h-2.3v-3.48q0-.93.16-2.62l-4,6.11h-2.86v-8.73h2.3Z" transform="translate(60.56 -116.24)"/><path d="M124.5,118.93v3.36h3.33v-3.36h2.38v8.73h-2.38v-3.6H124.5v3.6h-2.38v-8.73h2.38Z" transform="translate(60.56 -116.24)"/><path d="M139.94,118.93v1.79h-2.86v6.95H134.7v-6.95h-2.87v-1.79h8.11Z" transform="translate(60.56 -116.24)"/><path d="M145.52,127.82a4.51,4.51,0,0,1-3.3-1.16,4.41,4.41,0,0,1-1.19-3.3,4.85,4.85,0,0,1,1.1-3.39,3.91,3.91,0,0,1,3-1.2,3.85,3.85,0,0,1,2.88,1.05,4,4,0,0,1,1,2.91v1.16h-5.63a2.29,2.29,0,0,0,.6,1.59,2.12,2.12,0,0,0,1.58.57,6.55,6.55,0,0,0,1.49-.16,7.49,7.49,0,0,0,1.47-.52v1.84a5.62,5.62,0,0,1-1.34.46A8.43,8.43,0,0,1,145.52,127.82Zm-0.34-7.36a1.51,1.51,0,0,0-1.19.48,2.22,2.22,0,0,0-.49,1.36h3.34a2,2,0,0,0-.46-1.36A1.56,1.56,0,0,0,145.18,120.46Z" transform="translate(60.56 -116.24)"/><path d="M155.81,127.82a2.9,2.9,0,0,1-2.41-1.12h-0.12q0.12,1.09.13,1.27v3.54H151V118.93H153l0.34,1.13h0.11a2.76,2.76,0,0,1,2.48-1.3,2.83,2.83,0,0,1,2.42,1.2,5.53,5.53,0,0,1,.88,3.32,6.56,6.56,0,0,1-.41,2.43,3.4,3.4,0,0,1-1.17,1.57A3,3,0,0,1,155.81,127.82Zm-0.7-7.15a1.51,1.51,0,0,0-1.29.54,3.12,3.12,0,0,0-.42,1.79v0.26a3.68,3.68,0,0,0,.42,2,1.49,1.49,0,0,0,1.32.61q1.6,0,1.6-2.64a3.77,3.77,0,0,0-.39-1.93A1.35,1.35,0,0,0,155.11,120.67Z" transform="translate(60.56 -116.24)"/><path d="M165.09,127.82a4.51,4.51,0,0,1-3.3-1.16,4.41,4.41,0,0,1-1.19-3.3,4.85,4.85,0,0,1,1.1-3.39,3.91,3.91,0,0,1,3-1.2,3.85,3.85,0,0,1,2.88,1.05,4,4,0,0,1,1,2.91v1.16H163a2.3,2.3,0,0,0,.6,1.59,2.12,2.12,0,0,0,1.58.57,6.55,6.55,0,0,0,1.49-.16,7.49,7.49,0,0,0,1.47-.52v1.84a5.62,5.62,0,0,1-1.34.46A8.42,8.42,0,0,1,165.09,127.82Zm-0.34-7.36a1.51,1.51,0,0,0-1.19.48,2.23,2.23,0,0,0-.49,1.36h3.34a2,2,0,0,0-.46-1.36A1.56,1.56,0,0,0,164.76,120.46Z" transform="translate(60.56 -116.24)"/><path d="M174.14,127.82q-4.08,0-4.08-4.48a4.78,4.78,0,0,1,1.11-3.4,4.16,4.16,0,0,1,3.18-1.18,6.06,6.06,0,0,1,2.72.59l-0.7,1.84q-0.56-.23-1-0.37a3.4,3.4,0,0,0-1-.14q-1.86,0-1.86,2.64t1.86,2.56a4.25,4.25,0,0,0,1.27-.18,4.58,4.58,0,0,0,1.17-.57v2a3.83,3.83,0,0,1-1.17.51A6.57,6.57,0,0,1,174.14,127.82Z" transform="translate(60.56 -116.24)"/><path d="M186.76,123.28a4.69,4.69,0,0,1-1.12,3.34,4.08,4.08,0,0,1-3.13,1.2,4.38,4.38,0,0,1-2.22-.55,3.66,3.66,0,0,1-1.48-1.58,5.32,5.32,0,0,1-.52-2.41,4.67,4.67,0,0,1,1.12-3.33,4.11,4.11,0,0,1,3.14-1.19,4.41,4.41,0,0,1,2.22.55,3.66,3.66,0,0,1,1.48,1.57A5.27,5.27,0,0,1,186.76,123.28Zm-6,0a3.66,3.66,0,0,0,.43,2,1.52,1.52,0,0,0,1.39.66,1.5,1.5,0,0,0,1.37-.66,3.72,3.72,0,0,0,.42-2,3.61,3.61,0,0,0-.42-1.95,1.79,1.79,0,0,0-2.76,0A3.61,3.61,0,0,0,180.72,123.28Z" transform="translate(60.56 -116.24)"/><path d="M196.79,121.22a1.74,1.74,0,0,1-.44,1.2,2.13,2.13,0,0,1-1.3.64v0.06a2.46,2.46,0,0,1,1.47.64,1.74,1.74,0,0,1,.54,1.3,2.19,2.19,0,0,1-1,1.94,5.14,5.14,0,0,1-2.86.67h-4.48v-8.73h4.48a5,5,0,0,1,2.69.58A1.91,1.91,0,0,1,196.79,121.22Zm-2.41.19q0-.8-1.27-0.8h-2v1.73h1.73a2.4,2.4,0,0,0,1.15-.22A0.75,0.75,0,0,0,194.38,121.41Zm0.22,3.52a0.8,0.8,0,0,0-.4-0.75A2.45,2.45,0,0,0,193,124h-1.89V126H193a2,2,0,0,0,1.15-.29A0.93,0.93,0,0,0,194.59,124.93Z" transform="translate(60.56 -116.24)"/><path d="M204.5,127.67L204,126.48H204a3.52,3.52,0,0,1-1.24,1.05,4,4,0,0,1-1.66.29,2.68,2.68,0,0,1-2-.72,2.76,2.76,0,0,1-.72-2,2.31,2.31,0,0,1,1-2.05,5.64,5.64,0,0,1,2.93-.73l1.52,0v-0.38a1.19,1.19,0,0,0-1.36-1.33,6.19,6.19,0,0,0-2.46.63l-0.79-1.61a7.11,7.11,0,0,1,3.34-.79,4.17,4.17,0,0,1,2.7.77,2.83,2.83,0,0,1,.94,2.33v5.82H204.5Zm-0.7-4-0.92,0a3,3,0,0,0-1.55.38,1.18,1.18,0,0,0-.51,1,1,1,0,0,0,1.16,1,1.83,1.83,0,0,0,1.32-.48,1.67,1.67,0,0,0,.5-1.27v-0.72Z" transform="translate(60.56 -116.24)"/><path d="M215.84,118.93v1.79H213v6.95H210.6v-6.95h-2.87v-1.79h8.11Z" transform="translate(60.56 -116.24)"/><path d="M219.85,122.31h1.68a5.5,5.5,0,0,1,3,.64,2.17,2.17,0,0,1,1,1.94q0,2.78-3.86,2.78h-4.16v-8.73h2.38v3.38Zm3.25,2.61a0.78,0.78,0,0,0-.41-0.73,2.55,2.55,0,0,0-1.21-.23h-1.63V126h1.66Q223.1,126,223.1,124.92Z" transform="translate(60.56 -116.24)"/></svg>