<svg id="Слой_1" data-name="Слой 1" xmlns="http://www.w3.org/2000/svg" viewBox="0 0 186.83 99"><defs><style>.cls-1{fill:#191c20;}.cls-2{fill:none;stroke:#191c20;stroke-miterlimit:10;}</style></defs><title>card-new</title><path class="cls-1" d="M78.92,128.75v10.41H91V128.75h3.25v24.89H91V142h-12v11.67H75.71V128.75h3.21Z" transform="translate(-52.6 -117.5)"/><path class="cls-1" d="M115.85,144.55c0,6.61-4.58,9.49-8.9,9.49-4.84,0-8.57-3.54-8.57-9.19,0-6,3.91-9.49,8.86-9.49C112.38,135.36,115.85,139.09,115.85,144.55Zm-14.18.18c0,3.91,2.25,6.87,5.43,6.87s5.43-2.92,5.43-6.94c0-3-1.51-6.87-5.35-6.87S101.67,141.34,101.67,144.73Z" transform="translate(-52.6 -117.5)"/><path class="cls-1" d="M119.87,136a38.14,38.14,0,0,1,5.69-.41c3,0,7.94.48,7.94,4.47,0,2.22-1.7,3.58-3.73,4v0.07c2.62,0.37,4.54,1.85,4.54,4.43,0,4.69-5.91,5.28-9.42,5.28-2,0-4.06-.15-5-0.22V136Zm3.06,15.51a19.67,19.67,0,0,0,2.62.15c2.18,0,5.43-.52,5.43-3.1s-2.58-3.14-5.69-3.14h-2.36v6.09Zm0-8.23h2.44c2.4,0,4.87-.7,4.87-2.81,0-1.77-1.55-2.62-4.8-2.62A23,23,0,0,0,123,138v5.28Z" transform="translate(-52.6 -117.5)"/><path class="cls-1" d="M148.3,153.63L148,151.38h-0.11a6.66,6.66,0,0,1-5.47,2.66,5.09,5.09,0,0,1-5.46-5.13c0-4.32,3.84-6.68,10.75-6.65v-0.37c0-1.48-.41-4.14-4.06-4.14a8.91,8.91,0,0,0-4.65,1.33l-0.74-2.14a11.09,11.09,0,0,1,5.87-1.59c5.47,0,6.79,3.73,6.79,7.31v6.68a25.15,25.15,0,0,0,.3,4.28h-3Zm-0.48-9.12c-3.54-.07-7.57.55-7.57,4a2.88,2.88,0,0,0,3.06,3.1,4.45,4.45,0,0,0,4.32-3,3.39,3.39,0,0,0,.18-1v-3.1Z" transform="translate(-52.6 -117.5)"/><path class="cls-1" d="M169.5,153.63h-3.21v-7.5h-2.4a4.22,4.22,0,0,0-3,1c-1.33,1.07-1.81,3.29-2.51,5a11.07,11.07,0,0,1-.74,1.48h-3.47a11.66,11.66,0,0,0,1.11-2c0.78-1.74,1.22-4.06,2.81-5.39a4.26,4.26,0,0,1,2-1v-0.11c-2.33-.26-4.73-1.7-4.73-4.43a4.31,4.31,0,0,1,2.36-3.88,12.51,12.51,0,0,1,6-1.22,49.79,49.79,0,0,1,5.76.37v17.72Zm-3.21-15.73a18.14,18.14,0,0,0-2.7-.18c-2.22,0-4.84.63-4.84,3.1,0,2.29,2.84,3.1,4.76,3.1h2.77v-6Z" transform="translate(-52.6 -117.5)"/><path class="cls-1" d="M78.81,180.07v7.75h0.78l6.72-7.75h4l-7.79,8.09c2.88,0.3,4.62,2.22,6,5.43a37.67,37.67,0,0,0,1.92,4.36H87a23.75,23.75,0,0,1-1.66-3.66c-1.22-2.88-2.88-4.21-5.91-4.21H78.81v7.87H75.6V180.07h3.21Z" transform="translate(-52.6 -117.5)"/><path class="cls-1" d="M103.55,197.94l-0.26-2.25h-0.11a6.66,6.66,0,0,1-5.47,2.66,5.09,5.09,0,0,1-5.46-5.13c0-4.32,3.84-6.68,10.75-6.65V186.2c0-1.48-.41-4.14-4.06-4.14a8.9,8.9,0,0,0-4.65,1.33l-0.74-2.14a11.09,11.09,0,0,1,5.87-1.59c5.47,0,6.79,3.73,6.79,7.31v6.68a25.15,25.15,0,0,0,.3,4.28h-3Zm-0.48-9.12c-3.54-.07-7.57.55-7.57,4a2.88,2.88,0,0,0,3.06,3.1,4.45,4.45,0,0,0,4.32-3,3.39,3.39,0,0,0,.18-1v-3.1Z" transform="translate(-52.6 -117.5)"/><path class="cls-1" d="M111.45,185.9c0-2.29-.07-4.14-0.15-5.83h2.92l0.15,3.06h0.07a7,7,0,0,1,6.35-3.47c4.32,0,7.57,3.66,7.57,9.08,0,6.43-3.91,9.6-8.12,9.6a6.27,6.27,0,0,1-5.5-2.81h-0.07v9.71h-3.21V185.9Zm3.21,4.76a7.28,7.28,0,0,0,.15,1.33,5,5,0,0,0,4.87,3.8c3.43,0,5.43-2.81,5.43-6.91,0-3.58-1.88-6.65-5.32-6.65a5.18,5.18,0,0,0-4.91,4,5.26,5.26,0,0,0-.22,1.33v3.06Z" transform="translate(-52.6 -117.5)"/><path class="cls-1" d="M144.24,180.07v2.58h-5.58v15.29h-3.21V182.65h-5.58v-2.58h14.36Z" transform="translate(-52.6 -117.5)"/><path class="cls-1" d="M162.77,188.86c0,6.61-4.58,9.49-8.9,9.49-4.84,0-8.57-3.54-8.57-9.19,0-6,3.91-9.49,8.86-9.49C159.3,179.66,162.77,183.39,162.77,188.86ZM148.6,189c0,3.91,2.25,6.87,5.43,6.87s5.43-2.92,5.43-6.94c0-3-1.51-6.87-5.35-6.87S148.6,185.65,148.6,189Z" transform="translate(-52.6 -117.5)"/><path class="cls-1" d="M169.46,180.07v5.87c0,2.25.85,3.8,3.69,3.8a6.72,6.72,0,0,0,3.84-1.26v-8.42h3.21v17.87H177v-7.16h-0.07a9.39,9.39,0,0,1-4.84,1.37c-3.4,0-5.87-1.74-5.87-5.83v-6.24h3.25Z" transform="translate(-52.6 -117.5)"/><path class="cls-1" d="M188.73,180.07v7.75h0.78l6.72-7.75h4l-7.79,8.09c2.88,0.3,4.62,2.22,6,5.43a37.76,37.76,0,0,0,1.92,4.36h-3.4a23.75,23.75,0,0,1-1.66-3.66c-1.22-2.88-2.88-4.21-5.91-4.21h-0.63v7.87h-3.21V180.07h3.21Z" transform="translate(-52.6 -117.5)"/><path class="cls-1" d="M213.47,197.94l-0.26-2.25H213.1a6.66,6.66,0,0,1-5.47,2.66,5.09,5.09,0,0,1-5.46-5.13c0-4.32,3.84-6.68,10.75-6.65V186.2c0-1.48-.41-4.14-4.06-4.14a8.91,8.91,0,0,0-4.65,1.33l-0.74-2.14a11.09,11.09,0,0,1,5.87-1.59c5.47,0,6.79,3.73,6.79,7.31v6.68a25.15,25.15,0,0,0,.3,4.28h-3ZM213,188.82c-3.54-.07-7.57.55-7.57,4a2.88,2.88,0,0,0,3.06,3.1,4.45,4.45,0,0,0,4.32-3,3.39,3.39,0,0,0,.18-1v-3.1Z" transform="translate(-52.6 -117.5)"/><rect class="cls-2" x="0.5" y="0.5" width="185.83" height="98"/></svg>