<?xml version="1.0" standalone="no"?>
<!DOCTYPE svg PUBLIC "-//W3C//DTD SVG 20010904//EN"
 "http://www.w3.org/TR/2001/REC-SVG-20010904/DTD/svg10.dtd">
<svg version="1.0" xmlns="http://www.w3.org/2000/svg"
 width="1089.000000pt" height="1089.000000pt" viewBox="0 0 1089.000000 1089.000000"
 preserveAspectRatio="xMidYMid meet">
<metadata>
Created by potrace 1.14, written by Peter Selinger 2001-2017
</metadata>
<g transform="translate(0.000000,1089.000000) scale(0.100000,-0.100000)"
fill="#000000" stroke="none">
<path d="M5319 10243 c-13 -16 -12 -17 4 -4 16 13 21 21 13 21 -2 0 -10 -8
-17 -17z"/>
<path d="M4510 10136 c0 -2 7 -7 16 -10 8 -3 12 -2 9 4 -6 10 -25 14 -25 6z"/>
<path d="M6195 10130 c3 -5 8 -10 11 -10 2 0 4 5 4 10 0 6 -5 10 -11 10 -5 0
-7 -4 -4 -10z"/>
<path d="M3874 10090 c0 -13 4 -16 10 -10 7 7 7 13 0 20 -6 6 -10 3 -10 -10z"/>
<path d="M4550 10106 c0 -2 8 -10 18 -17 15 -13 16 -12 3 4 -13 16 -21 21 -21
13z"/>
<path d="M6070 9986 c0 -2 8 -10 18 -17 15 -13 16 -12 3 4 -13 16 -21 21 -21
13z"/>
<path d="M5140 9856 c0 -2 8 -10 18 -17 15 -13 16 -12 3 4 -13 16 -21 21 -21
13z"/>
<path d="M6269 9773 c-13 -16 -12 -17 4 -4 9 7 17 15 17 17 0 8 -8 3 -21 -13z"/>
<path d="M7156 9697 c3 -10 9 -15 12 -12 3 3 0 11 -7 18 -10 9 -11 8 -5 -6z"/>
<path d="M7713 9615 c0 -8 4 -15 9 -15 4 0 8 4 8 9 0 6 -4 12 -8 15 -5 3 -9
-1 -9 -9z"/>
<path d="M7639 9603 c-13 -16 -12 -17 4 -4 9 7 17 15 17 17 0 8 -8 3 -21 -13z"/>
<path d="M2869 9573 c-13 -16 -12 -17 4 -4 9 7 17 15 17 17 0 8 -8 3 -21 -13z"/>
<path d="M6790 9586 c0 -2 8 -10 18 -17 15 -13 16 -12 3 4 -13 16 -21 21 -21
13z"/>
<path d="M3345 9570 c-3 -6 1 -7 9 -4 18 7 21 14 7 14 -6 0 -13 -4 -16 -10z"/>
<path d="M5980 9576 c0 -2 8 -10 18 -17 15 -13 16 -12 3 4 -13 16 -21 21 -21
13z"/>
<path d="M6866 9572 c-3 -5 1 -9 9 -9 8 0 12 4 9 9 -3 4 -7 8 -9 8 -2 0 -6 -4
-9 -8z"/>
<path d="M3386 9528 c3 -5 10 -6 15 -3 13 9 11 12 -6 12 -8 0 -12 -4 -9 -9z"/>
<path d="M7955 9491 c-3 -5 -2 -12 3 -15 5 -3 9 1 9 9 0 17 -3 19 -12 6z"/>
<path d="M8374 9233 c-135 -137 -250 -246 -257 -245 -7 2 -9 0 -4 -4 4 -4 -26
-42 -68 -83 -41 -42 -133 -136 -205 -210 l-129 -133 5 -162 c2 -88 6 -192 8
-231 l2 -70 -262 -265 c-144 -146 -319 -323 -388 -394 -115 -117 -132 -131
-126 -101 1 5 -2 7 -6 3 -9 -10 -36 11 -28 23 3 5 -3 6 -12 2 -12 -4 -15 -3
-10 5 4 7 1 12 -8 12 -8 0 -16 3 -18 8 -1 4 -20 20 -41 35 -21 16 -34 33 -31
39 4 7 2 8 -5 4 -12 -8 -43 17 -36 28 3 3 2 4 -1 2 -6 -5 -135 80 -145 96 -3
5 -10 10 -15 10 -17 1 -44 25 -36 33 4 5 1 5 -6 1 -8 -5 -29 3 -53 18 -21 15
-39 24 -39 20 0 -3 -12 3 -27 14 -37 25 -167 86 -288 134 -76 31 -100 38 -123
40 -25 2 7 21 110 62 59 24 104 49 106 57 4 21 -226 611 -243 625 -8 5 -31 55
-53 109 -22 55 -45 101 -51 103 -14 5 -320 -116 -339 -133 -11 -10 -7 -30 26
-115 23 -56 38 -108 36 -115 -3 -6 13 -59 35 -116 39 -100 148 -381 158 -407
4 -10 -1 -10 -22 -2 -15 6 -30 8 -32 6 -3 -3 -15 -1 -28 4 -23 9 -51 13 -165
26 -84 10 -110 12 -137 13 -16 1 -20 6 -16 21 3 13 0 20 -8 21 -8 1 -27 2 -44
3 -16 1 -34 4 -40 8 -8 5 -11 80 -6 156 1 6 9 12 19 12 58 1 152 75 182 144
32 71 30 106 -6 106 -14 0 -23 -4 -20 -8 3 -5 0 -28 -6 -52 -25 -98 -146 -168
-242 -142 -81 23 -144 90 -153 164 -5 33 -9 38 -31 38 -23 0 -24 -2 -18 -42 8
-48 42 -112 78 -144 32 -30 98 -64 124 -64 21 0 22 -4 20 -87 l-1 -88 -40 0
c-47 0 -69 -11 -61 -31 4 -10 -4 -14 -29 -15 -61 -2 -131 -9 -235 -24 -3 0
-10 -4 -17 -8 -6 -4 -15 -3 -18 3 -5 8 -11 8 -19 0 -7 -5 -26 -12 -42 -15 -16
-2 -45 -8 -64 -13 -27 -6 -38 -5 -48 7 -11 14 -11 14 -6 -1 4 -13 -3 -19 -32
-27 -20 -6 -41 -8 -45 -6 -4 3 -9 1 -11 -4 -1 -6 -14 -12 -28 -15 -14 -2 -45
-11 -69 -20 -24 -9 -47 -13 -52 -10 -5 3 -9 1 -9 -5 0 -9 -28 -21 -60 -26 -3
-1 -25 -11 -49 -23 -48 -24 -66 -28 -56 -13 3 5 1 12 -4 16 -6 3 -8 -3 -6 -13
4 -25 -76 -67 -94 -49 -9 9 -11 8 -6 -4 6 -17 -39 -44 -56 -34 -5 4 -9 0 -9
-7 0 -7 -12 -18 -26 -25 -23 -11 -24 -10 -13 5 27 36 60 63 69 57 5 -3 8 0 5
7 -3 7 32 53 76 102 59 67 79 95 75 110 -3 15 8 35 38 68 l42 47 62 -25 c98
-39 212 -35 307 11 128 63 211 188 219 331 8 162 -76 304 -224 377 -59 29 -73
32 -160 32 -85 0 -102 -3 -160 -31 -117 -55 -199 -165 -222 -296 -13 -73 1
-158 39 -236 15 -31 27 -60 27 -63 1 -3 -18 -27 -42 -54 -36 -41 -44 -45 -58
-34 -14 11 -23 6 -68 -42 -240 -257 -259 -284 -250 -354 5 -41 28 -75 51 -75
7 0 13 -4 13 -9 0 -6 12 -6 30 -1 17 5 30 7 30 6 0 -5 -79 -56 -85 -56 -4 0
-3 5 1 12 4 7 3 8 -5 4 -6 -4 -9 -11 -6 -16 4 -6 -40 -42 -55 -44 -2 -1 -14
-10 -25 -21 -12 -11 -33 -30 -48 -42 l-27 -23 -1 28 c-3 102 -32 166 -114 248
-98 98 -227 147 -385 146 -90 -1 -103 -3 -184 -26 -51 -15 -140 -64 -184 -101
-36 -30 -87 -105 -106 -155 -23 -58 -23 -161 0 -220 23 -59 75 -131 119 -164
28 -22 34 -32 31 -54 -2 -15 -7 -46 -11 -68 -3 -23 -2 -45 3 -48 5 -3 49 10
97 30 78 31 94 35 139 28 68 -10 216 -11 216 -1 0 4 9 7 20 7 19 0 19 -1 -2
-25 -11 -13 -25 -22 -29 -19 -4 2 -11 -1 -15 -7 -4 -8 -3 -9 4 -5 18 11 14 -3
-9 -35 -11 -16 -25 -27 -30 -24 -5 4 -7 0 -4 -7 3 -7 -5 -24 -16 -38 -11 -14
-17 -19 -13 -11 4 9 3 12 -4 7 -6 -4 -9 -12 -7 -19 7 -18 -22 -50 -37 -42 -10
6 -10 5 -1 -5 12 -13 1 -40 -36 -83 -8 -10 -16 -23 -17 -30 -4 -25 -61 -117
-68 -110 -4 4 -4 -1 0 -10 4 -11 -1 -25 -11 -37 -10 -11 -14 -20 -9 -20 5 0 2
-6 -6 -13 -8 -7 -15 -16 -15 -22 0 -21 -38 -104 -45 -100 -5 3 -6 -5 -2 -17 4
-16 2 -19 -8 -13 -10 6 -12 4 -7 -8 6 -17 -37 -152 -56 -176 -9 -11 -9 -13 0
-8 8 5 8 -2 0 -28 -9 -32 -37 -50 -37 -25 0 7 -7 7 -21 0 -11 -7 -23 -9 -26
-6 -11 11 -64 -26 -83 -57 -25 -40 -25 -69 -1 -91 11 -10 25 -31 31 -47 8 -17
20 -29 31 -29 11 0 19 -4 19 -10 0 -5 7 -7 15 -4 8 4 15 1 15 -6 0 -7 -12 -10
-31 -8 -29 3 -32 0 -35 -30 -2 -18 -11 -46 -19 -62 -9 -17 -12 -30 -7 -30 15
0 66 -48 68 -64 2 -13 -2 -14 -17 -5 -11 6 -17 15 -13 22 4 7 4 9 0 5 -4 -3
-19 0 -33 7 -22 12 -31 10 -73 -12 -64 -33 -126 -33 -183 1 -43 24 -44 25 -73
7 -66 -41 -95 -95 -114 -216 -6 -38 -13 -82 -16 -97 l-6 -28 261 0 261 0 1
-42 c1 -24 2 -65 3 -93 0 -27 5 -53 10 -57 6 -4 4 -14 -5 -24 -9 -11 -9 -15
-2 -10 9 5 13 0 14 -16 1 -13 3 -42 5 -66 2 -31 0 -42 -9 -39 -7 2 -11 13 -9
25 2 12 -2 28 -9 35 -15 16 -69 10 -69 -9 0 -25 -20 -25 -30 0 -16 42 -94 28
-83 -14 6 -23 -21 -29 -30 -6 -8 19 -44 9 -62 -17 -9 -13 -11 -26 -5 -37 12
-22 2 -32 -20 -20 -13 7 -22 5 -32 -8 -23 -26 -28 -60 -11 -66 20 -8 11 -31
-13 -31 -16 0 -19 -7 -19 -40 0 -29 4 -40 15 -40 26 0 30 -19 7 -37 -21 -16
-21 -19 -7 -45 11 -18 24 -28 40 -28 13 0 25 -6 27 -12 3 -7 0 -13 -6 -13 -22
0 -10 -39 18 -60 18 -12 28 -28 27 -38 -2 -9 -7 -57 -11 -106 -4 -49 -8 -98
-10 -110 -2 -11 -6 -61 -10 -110 -4 -49 -8 -101 -10 -115 -10 -82 -16 -181
-11 -181 3 0 24 20 47 45 23 25 45 45 48 45 4 0 22 -25 40 -55 19 -31 36 -54
38 -52 6 6 10 40 18 132 12 136 14 158 20 163 3 3 5 -6 6 -19 0 -13 2 -31 4
-39 1 -8 8 -51 14 -95 22 -151 19 -146 53 -84 16 30 33 58 39 64 6 6 27 -9 59
-40 28 -27 50 -45 50 -40 -1 17 -24 172 -35 235 -2 14 -7 45 -10 70 -7 53 -14
95 -20 130 -2 14 -7 45 -10 70 -3 25 -8 57 -11 73 -4 21 0 32 18 47 20 16 21
21 10 40 -10 17 -10 21 4 27 9 3 20 0 25 -8 8 -12 10 -12 18 1 8 12 11 11 16
-5 9 -26 25 -65 36 -87 13 -25 11 -51 -3 -42 -7 4 -8 3 -4 -5 4 -6 11 -9 16
-6 5 3 16 -11 25 -31 18 -44 18 -47 3 -39 -7 4 -4 -2 7 -12 28 -25 49 -68 42
-87 -4 -9 -1 -15 5 -13 7 1 24 -20 38 -48 14 -27 28 -51 33 -53 4 -2 7 -8 7
-14 0 -5 9 -23 21 -39 16 -23 18 -33 9 -43 -8 -10 -8 -16 0 -21 6 -4 9 -2 8 3
-2 6 1 11 5 11 8 2 57 -64 57 -75 0 -3 11 -17 24 -31 14 -15 22 -32 18 -41 -3
-10 -1 -13 6 -9 6 4 21 -7 33 -25 13 -18 29 -39 37 -47 7 -7 11 -15 9 -18 -3
-2 -104 -4 -225 -3 -282 0 -262 14 -265 -178 l-2 -142 30 -1 c17 0 193 0 393
-1 268 0 362 -3 362 -11 0 -8 3 -8 8 -2 10 14 23 13 49 -6 21 -14 -13 -16
-403 -16 -234 -1 -427 -3 -430 -6 -2 -2 -5 -164 -6 -361 -2 -341 -1 -357 18
-371 16 -12 84 -14 425 -15 366 0 408 2 420 17 11 13 15 90 19 365 l5 348 39
-26 c30 -21 35 -28 25 -36 -10 -7 -9 -8 5 -4 11 4 22 3 25 -2 8 -12 241 -152
252 -152 5 0 9 -5 9 -11 0 -5 -5 -7 -12 -3 -7 4 -8 3 -4 -5 6 -9 11 -9 21 -1
7 6 15 7 17 2 1 -4 21 -16 43 -24 22 -9 39 -21 38 -27 -2 -6 3 -8 10 -5 7 2
40 -7 73 -22 76 -34 182 -74 213 -80 14 -3 28 -7 33 -10 5 -3 21 -8 36 -10 15
-3 39 -11 55 -19 15 -8 24 -9 21 -3 -5 7 -2 8 7 2 16 -10 20 -11 50 -13 11 0
18 -4 16 -8 -3 -5 9 -8 26 -9 58 -1 127 -15 122 -24 -3 -5 0 -12 6 -16 8 -5 9
-3 4 5 -6 10 8 12 66 6 108 -11 530 -14 557 -4 17 7 21 6 16 -3 -5 -7 -3 -8 7
-2 15 9 21 10 84 18 35 5 99 16 160 30 11 2 58 14 105 26 47 12 92 23 100 24
8 0 18 5 21 9 4 5 18 10 32 10 14 1 23 5 20 9 -2 5 4 9 14 10 30 2 36 4 86 27
27 13 55 20 63 17 9 -3 12 -1 9 4 -3 6 6 15 22 20 15 6 40 17 56 26 15 8 27
12 27 7 0 -4 4 -3 8 2 4 6 25 19 47 30 22 11 42 23 45 26 7 9 69 40 76 38 4 0
10 3 13 8 3 4 15 15 25 23 18 13 19 13 12 0 -4 -8 1 -5 10 7 9 13 21 23 26 23
5 0 18 9 30 20 12 10 25 17 30 14 4 -3 8 -1 8 3 0 5 20 23 45 41 l45 32 0
-138 c0 -150 6 -169 60 -197 24 -12 109 -15 538 -15 334 0 520 4 540 11 35 12
61 46 66 87 2 16 6 34 10 40 3 6 3 13 -1 15 -5 3 -8 154 -8 336 0 290 -1 331
-15 331 -13 1 -13 2 1 10 23 14 18 187 -7 229 -30 51 -60 56 -306 56 l-223 0
50 101 c28 56 54 99 59 96 5 -3 6 0 2 7 -4 6 2 30 13 52 12 22 19 45 16 50 -4
5 -1 9 4 9 6 0 10 3 10 8 -3 19 2 33 10 27 5 -3 13 0 17 6 4 8 3 9 -4 5 -15
-9 -15 2 -1 42 6 18 14 30 18 27 4 -2 7 6 6 18 -1 12 7 49 17 82 21 69 57 229
65 295 3 25 10 51 17 59 9 12 8 13 -3 6 -9 -5 -12 -4 -7 3 4 6 9 46 13 89 3
43 9 86 14 95 6 11 5 19 -2 24 -8 4 -7 9 2 15 8 5 9 9 3 9 -6 0 -10 12 -8 28
6 60 7 142 1 148 -3 4 -2 15 4 25 6 13 6 19 -1 19 -5 0 -10 7 -10 16 0 8 4 13
9 9 5 -3 13 -1 16 5 4 6 1 9 -7 8 -9 -2 -14 12 -16 45 -2 38 0 47 10 42 7 -4
6 -1 -2 7 -15 13 -20 43 -23 125 -1 22 -6 39 -10 36 -5 -3 -7 11 -4 31 3 20 1
33 -4 30 -5 -3 -9 5 -9 17 0 12 -5 40 -11 63 -6 22 -14 57 -19 76 -10 39 -41
148 -48 168 -3 9 11 12 50 12 113 0 267 59 348 132 166 151 225 417 138 623
-60 145 -193 263 -338 301 -92 24 -240 24 -310 0 -109 -37 -227 -130 -287
-224 l-35 -54 -16 24 c-9 12 -27 31 -40 42 -13 10 -21 21 -18 24 3 3 -2 11
-12 18 -16 12 -16 13 1 19 9 4 17 11 17 17 0 5 24 33 53 62 28 29 195 197 369
373 l318 320 77 -3 c43 -1 136 -3 208 -4 71 -1 135 -6 141 -11 14 -11 155 113
193 169 14 22 28 32 37 28 9 -3 12 -1 9 4 -4 6 11 28 32 49 451 454 663 671
663 678 0 4 -132 8 -292 8 l-293 0 0 298 c0 163 -1 297 -3 297 -2 0 -114 -111
-248 -247z m-2480 -523 c18 -55 16 -65 -13 -73 -16 -4 -23 5 -39 47 l-20 51
27 12 c14 7 27 12 27 13 1 0 9 -23 18 -50z m-1247 -40 c67 -22 130 -76 164
-142 69 -135 15 -306 -121 -382 -48 -27 -64 -31 -130 -31 -61 0 -84 5 -125 27
-162 85 -206 283 -96 437 62 87 196 126 308 91z m1027 -45 c20 -50 16 -75 -12
-75 -13 0 -24 13 -36 43 -24 63 -23 65 24 76 3 0 13 -19 24 -44z m200 -217
c-6 -5 -11 -16 -10 -25 2 -10 1 -12 -1 -5 -3 8 -13 12 -25 9 -17 -5 -19 -2
-14 31 3 20 5 38 6 40 0 2 13 -7 29 -20 20 -16 25 -25 15 -30z m152 -106 c0
-20 4 -50 8 -67 4 -20 0 -16 -11 13 -10 24 -22 41 -29 38 -7 -3 -17 8 -22 23
-9 25 -7 30 11 39 29 13 41 0 43 -46z m-136 27 c0 -13 71 -192 80 -203 5 -4
21 10 36 33 15 23 29 39 32 37 5 -5 -38 -69 -50 -74 -18 -8 -7 -53 15 -61 38
-15 48 -33 34 -61 -20 -40 -84 -22 -73 20 2 8 5 21 7 29 3 10 -11 18 -47 26
-61 15 -74 21 -74 40 0 8 -13 21 -30 30 -33 17 -38 36 -14 59 19 20 29 20 48
0 12 -11 13 -20 6 -34 -6 -11 -8 -31 -4 -44 5 -19 16 -27 55 -36 28 -7 53 -10
56 -7 3 3 -16 59 -42 124 -26 65 -50 124 -53 132 -3 9 -1 12 6 7 7 -4 12 -11
12 -17z m2003 -4108 c40 -16 58 -66 55 -154 l-3 -71 -53 -1 -53 -1 2 64 c2 69
-5 81 -47 76 -41 -4 -50 -19 -49 -78 1 -32 -3 -57 -9 -59 -10 -3 -394 -2 -454
2 -22 1 -22 2 9 44 17 23 34 42 39 42 5 0 12 4 17 9 5 5 3 6 -4 2 -17 -9 -16
4 1 26 7 10 17 14 21 10 5 -4 5 -1 0 7 -4 7 -4 16 1 20 5 3 16 19 24 35 8 16
23 30 33 32 11 1 20 4 22 6 9 8 423 -2 448 -11z m-85 -121 c4 0 5 -29 4 -65
-4 -62 -3 -65 20 -66 l23 -2 -22 -4 c-18 -3 -23 -11 -23 -37 0 -39 -8 -50 -27
-35 -9 8 -13 41 -13 116 0 92 2 104 16 99 9 -3 19 -6 22 -6z m-511 -136 c-3
-3 -12 -4 -19 -1 -8 3 -5 6 6 6 11 1 17 -2 13 -5z m70 0 c-3 -3 -12 -4 -19 -1
-8 3 -5 6 6 6 11 1 17 -2 13 -5z m130 0 c-3 -3 -12 -4 -19 -1 -8 3 -5 6 6 6
11 1 17 -2 13 -5z m-4021 -197 c31 -33 34 -40 23 -55 -7 -9 -9 -14 -5 -10 5 4
16 2 25 -5 14 -11 14 -10 2 6 -27 34 1 16 52 -35 28 -28 51 -56 49 -61 -1 -4
2 -6 7 -3 5 4 12 2 16 -3 3 -7 -120 -10 -342 -11 l-348 0 1 107 c1 60 2 109 3
109 0 1 109 1 241 0 l241 -1 35 -38z m3835 16 c0 -10 2 -28 3 -40 5 -44 -7
-48 -131 -44 -33 1 -33 1 -33 51 l0 50 80 0 c69 0 80 -2 81 -17z m255 -33 l0
-50 -41 -1 c-51 -2 -107 0 -111 3 -4 5 -6 32 -5 66 l1 32 78 0 78 0 0 -50z
m255 43 c0 -5 2 -27 2 -51 2 -48 8 -46 -118 -43 l-44 1 2 50 1 50 78 0 c43 0
78 -3 79 -7z m-766 -65 c-1 -16 -9 -24 -26 -26 l-24 -4 24 26 c14 14 25 26 26
26 1 0 1 -10 0 -22z m-15 -117 c11 -1 15 -14 15 -51 0 -54 3 -52 -65 -52 -101
-1 -99 -2 -95 41 4 47 12 64 29 58 7 -3 18 -2 23 1 6 4 26 6 45 5 18 -1 40 -2
48 -2z m268 -5 c8 -5 7 -65 -2 -91 -3 -8 -95 -11 -148 -6 -12 1 -10 99 2 103
16 5 138 1 148 -6z m248 5 c15 -1 12 -95 -3 -101 -18 -7 -143 4 -143 13 0 4 0
25 0 46 0 36 3 40 28 43 23 3 82 2 118 -1z m251 -4 c5 -3 9 -25 9 -49 l-1 -43
-50 -5 c-28 -3 -64 -3 -80 0 -25 4 -29 9 -28 38 2 58 3 60 20 64 25 5 120 1
130 -5z m-4730 -159 c11 -14 10 -64 0 -75 -4 -3 -29 -7 -57 -8 -54 -2 -67 8
-66 50 2 35 16 45 65 45 27 0 53 -6 58 -12z m211 -26 c5 -46 -10 -59 -63 -57
-47 1 -65 14 -65 47 0 42 10 49 69 46 55 -3 56 -3 59 -36z m199 26 c14 -24 11
-68 -6 -77 -18 -9 -97 -8 -106 1 -11 11 -13 63 -3 76 6 6 32 12 59 12 27 0 51
-5 56 -12z m210 0 c14 -23 11 -68 -6 -77 -17 -8 -98 -7 -107 2 -10 10 -11 62
-2 75 6 6 32 12 59 12 27 0 51 -5 56 -12z m3354 -38 c1 -8 2 -31 3 -50 l0 -35
-79 0 -80 0 0 45 c-1 25 3 48 7 51 4 3 39 5 78 5 55 -1 70 -4 71 -16z m259
-37 l0 -53 -80 0 -80 0 0 53 0 53 80 0 80 -1 0 -52z m256 19 c2 -20 -1 -30 -8
-26 -6 4 -5 -2 1 -15 16 -29 -14 -42 -35 -15 -10 14 -13 15 -9 3 5 -14 -3 -16
-49 -16 l-56 1 0 50 0 51 77 0 77 -1 2 -32z m236 29 c12 -1 16 -9 15 -28 -1
-16 -6 -31 -12 -35 -6 -5 -5 -8 2 -8 7 0 10 -7 7 -15 -4 -8 -15 -15 -26 -15
-13 0 -17 4 -12 13 6 9 4 9 -7 1 -17 -13 -109 -16 -110 -3 -3 35 -1 77 4 85 5
8 54 10 139 5z m-4738 -152 c-3 -5 0 -9 5 -9 12 0 15 -49 3 -65 -10 -16 -90
-19 -108 -5 -20 17 -18 67 4 79 21 12 104 12 96 0z m214 -1 c18 -18 15 -75 -4
-82 -27 -10 -89 -7 -102 6 -16 16 -15 75 1 81 24 10 93 7 105 -5z m209 -1 c11
-17 11 -49 1 -70 -7 -14 -20 -17 -59 -16 -27 2 -53 7 -58 13 -10 13 -9 56 2
73 9 15 104 15 114 0z m211 -1 c10 -18 10 -60 0 -73 -14 -17 -103 -17 -116 0
-11 12 -8 60 4 79 8 12 104 7 112 -6z m-629 -185 c16 -15 20 -49 7 -69 -10
-16 -101 -16 -113 1 -8 10 -9 29 -4 66 0 6 18 11 39 13 52 5 55 5 71 -11z
m214 0 c5 -5 7 -24 5 -42 -3 -34 -3 -34 -60 -37 -54 -3 -58 -1 -64 22 -9 38
-1 60 26 66 31 8 81 3 93 -9z m206 4 c6 -3 11 -22 11 -40 0 -39 -19 -49 -86
-43 -36 3 -39 5 -42 38 -2 21 2 38 11 45 15 11 89 11 106 0z m210 -1 c10 -9 8
-239 -2 -251 -5 -7 -31 -13 -57 -13 -26 0 -52 6 -57 13 -14 18 -10 247 5 256
13 8 102 4 111 -5z m-623 -198 c13 -52 4 -61 -61 -61 -58 0 -60 1 -63 28 -6
47 2 54 62 56 51 1 56 -1 62 -23z m209 -21 l0 -40 -60 0 c-58 0 -60 1 -63 28
-6 51 2 58 65 55 l58 -3 0 -40z m206 33 c0 -7 2 -22 4 -33 2 -11 1 -25 -3 -32
-10 -16 -97 -20 -116 -4 -15 13 -16 47 -1 71 9 15 115 13 116 -2z"/>
<path d="M3640 3445 c-1 -5 -2 -13 -1 -17 0 -5 -7 -8 -16 -8 -17 -1 -17 -1 -1
-14 10 -7 15 -16 11 -19 -3 -4 -1 -7 5 -7 7 0 12 6 12 14 0 8 8 17 18 19 15 4
15 5 0 6 -9 0 -19 9 -21 19 -3 9 -6 13 -7 7z"/>
<path d="M3610 3230 c0 -5 16 -10 36 -10 21 0 33 4 29 10 -3 6 -19 10 -36 10
-16 0 -29 -4 -29 -10z"/>
<path d="M3613 2964 c-8 -22 7 -31 39 -25 19 4 25 10 19 19 -12 19 -51 23 -58
6z"/>
<path d="M3260 9456 c0 -2 8 -10 18 -17 15 -13 16 -12 3 4 -13 16 -21 21 -21
13z"/>
<path d="M4433 9365 c0 -8 4 -12 9 -9 4 3 8 9 8 15 0 5 -4 9 -8 9 -5 0 -9 -7
-9 -15z"/>
<path d="M6513 9365 c0 -8 4 -12 9 -9 5 3 6 10 3 15 -9 13 -12 11 -12 -6z"/>
<path d="M3996 9323 c-6 -14 -5 -15 5 -6 7 7 10 15 7 18 -3 3 -9 -2 -12 -12z"/>
<path d="M6860 9336 c0 -2 8 -10 18 -17 15 -13 16 -12 3 4 -13 16 -21 21 -21
13z"/>
<path d="M3875 9299 c-4 -6 -5 -12 -2 -15 2 -3 7 2 10 11 7 17 1 20 -8 4z"/>
<path d="M6114 9296 c1 -8 5 -18 8 -22 4 -3 5 1 4 10 -1 8 -5 18 -8 22 -4 3
-5 -1 -4 -10z"/>
<path d="M7999 9283 c-13 -16 -12 -17 4 -4 9 7 17 15 17 17 0 8 -8 3 -21 -13z"/>
<path d="M3669 9253 c-13 -16 -12 -17 4 -4 16 13 21 21 13 21 -2 0 -10 -8 -17
-17z"/>
<path d="M6790 9266 c0 -2 8 -10 18 -17 15 -13 16 -12 3 4 -13 16 -21 21 -21
13z"/>
<path d="M6066 9248 c3 -5 10 -6 15 -3 13 9 11 12 -6 12 -8 0 -12 -4 -9 -9z"/>
<path d="M6865 9250 c-3 -6 1 -7 9 -4 18 7 21 14 7 14 -6 0 -13 -4 -16 -10z"/>
<path d="M7105 9250 c-3 -6 1 -7 9 -4 18 7 21 14 7 14 -6 0 -13 -4 -16 -10z"/>
<path d="M6109 9213 c-13 -16 -12 -17 4 -4 16 13 21 21 13 21 -2 0 -10 -8 -17
-17z"/>
<path d="M6150 9186 c0 -2 8 -10 18 -17 15 -13 16 -12 3 4 -13 16 -21 21 -21
13z"/>
<path d="M8116 9137 c3 -10 9 -15 12 -12 3 3 0 11 -7 18 -10 9 -11 8 -5 -6z"/>
<path d="M7585 9090 c-3 -6 1 -7 9 -4 18 7 21 14 7 14 -6 0 -13 -4 -16 -10z"/>
<path d="M7715 9059 c-4 -6 -5 -12 -2 -15 2 -3 7 2 10 11 7 17 1 20 -8 4z"/>
<path d="M3639 9043 c-13 -16 -12 -17 4 -4 16 13 21 21 13 21 -2 0 -10 -8 -17
-17z"/>
<path d="M8119 9043 c-13 -16 -12 -17 4 -4 9 7 17 15 17 17 0 8 -8 3 -21 -13z"/>
<path d="M7029 8933 c-13 -16 -12 -17 4 -4 9 7 17 15 17 17 0 8 -8 3 -21 -13z"/>
<path d="M6946 8932 c-2 -4 4 -8 14 -8 10 0 16 4 14 8 -3 4 -9 8 -14 8 -5 0
-11 -4 -14 -8z"/>
<path d="M3470 8906 c0 -2 8 -10 18 -17 15 -13 16 -12 3 4 -13 16 -21 21 -21
13z"/>
<path d="M3555 8859 c-4 -6 -5 -12 -2 -15 2 -3 7 2 10 11 7 17 1 20 -8 4z"/>
<path d="M2480 8850 c-9 -6 -10 -10 -3 -10 6 0 15 5 18 10 8 12 4 12 -15 0z"/>
<path d="M2660 8856 c0 -2 8 -10 18 -17 15 -13 16 -12 3 4 -13 16 -21 21 -21
13z"/>
<path d="M2716 8812 c-3 -5 1 -9 9 -9 8 0 12 4 9 9 -3 4 -7 8 -9 8 -2 0 -6 -4
-9 -8z"/>
<path d="M5242 8770 c-38 -9 -77 -42 -98 -82 l-15 -28 41 0 c34 0 41 -3 38
-17 -2 -12 -14 -19 -33 -21 -50 -5 -59 -10 -45 -27 7 -8 17 -12 22 -9 18 11
59 -6 56 -24 -3 -17 -8 -19 -59 -21 -44 -2 -32 -31 13 -31 26 0 41 -5 45 -15
8 -21 -2 -29 -40 -31 -18 -1 -35 -2 -39 -3 -9 -1 0 -48 16 -80 69 -133 268
-98 293 52 5 33 5 33 -34 33 -32 -1 -38 2 -41 22 -3 20 1 22 37 22 30 0 41 4
41 15 0 10 -10 15 -34 15 -41 0 -63 21 -41 40 8 7 28 10 45 8 24 -4 30 -1 30
14 0 14 -8 18 -39 18 -24 0 -41 5 -44 14 -8 20 2 26 40 26 38 0 40 4 13 47
-32 53 -101 79 -168 63z"/>
<path d="M1950 8731 c0 -6 4 -13 10 -16 6 -3 7 1 4 9 -7 18 -14 21 -14 7z"/>
<path d="M2380 8696 c0 -2 8 -10 18 -17 15 -13 16 -12 3 4 -13 16 -21 21 -21
13z"/>
<path d="M9466 8572 c-3 -5 1 -9 9 -9 8 0 12 4 9 9 -3 4 -7 8 -9 8 -2 0 -6 -4
-9 -8z"/>
<path d="M2780 8496 c0 -2 8 -10 18 -17 15 -13 16 -12 3 4 -13 16 -21 21 -21
13z"/>
<path d="M2955 8461 c-3 -5 -2 -12 3 -15 5 -3 9 1 9 9 0 17 -3 19 -12 6z"/>
<path d="M2913 8415 c0 -8 4 -15 9 -15 4 0 8 4 8 9 0 6 -4 12 -8 15 -5 3 -9
-1 -9 -9z"/>
<path d="M3932 8375 c-63 -36 -227 -82 -302 -84 -129 -4 -140 -6 -175 -34 -47
-38 -49 -86 -4 -128 17 -16 35 -29 40 -29 5 0 6 -23 3 -52 -4 -29 -7 -71 -8
-93 -1 -37 1 -40 29 -43 46 -4 57 10 62 74 8 115 5 108 49 110 53 2 216 -42
288 -77 32 -16 59 -29 60 -29 0 0 2 92 2 205 1 113 1 205 0 205 0 -1 -20 -12
-44 -25z"/>
<path d="M6351 8362 c204 -156 449 -336 467 -343 14 -6 29 -6 36 -1 6 5 116
87 244 181 127 95 232 175 232 177 0 2 -226 4 -501 4 -488 0 -501 0 -478 -18z"/>
<path d="M2350 8331 c0 -6 4 -13 10 -16 6 -3 7 1 4 9 -7 18 -14 21 -14 7z"/>
<path d="M6330 8062 c0 -155 3 -283 8 -285 4 -3 81 66 170 152 l164 156 -139
104 c-76 58 -153 115 -170 129 l-33 24 0 -280z"/>
<path d="M7167 8215 c-92 -69 -167 -127 -167 -129 0 -2 30 -33 68 -69 200
-192 257 -245 262 -241 4 4 8 564 4 564 0 0 -76 -56 -167 -125z"/>
<path d="M2865 8209 c-3 -4 2 -6 10 -5 21 3 28 13 10 13 -9 0 -18 -4 -20 -8z"/>
<path d="M675 8179 c-4 -6 -5 -12 -2 -15 2 -3 7 2 10 11 7 17 1 20 -8 4z"/>
<path d="M1876 8177 c3 -10 9 -15 12 -12 3 3 0 11 -7 18 -10 9 -11 8 -5 -6z"/>
<path d="M9910 8186 c0 -2 8 -10 18 -17 15 -13 16 -12 3 4 -13 16 -21 21 -21
13z"/>
<path d="M8587 8169 c7 -7 15 -10 18 -7 3 3 -2 9 -12 12 -14 6 -15 5 -6 -5z"/>
<path d="M9675 8170 c-3 -5 -1 -10 4 -10 6 0 11 5 11 10 0 6 -2 10 -4 10 -3 0
-8 -4 -11 -10z"/>
<path d="M3165 8140 c-38 -37 -74 -43 -120 -20 l-35 18 30 -34 c33 -39 37 -68
15 -120 l-15 -36 29 31 c37 39 68 43 125 15 16 -8 30 -14 32 -14 1 0 -10 13
-26 29 -40 40 -46 72 -22 121 11 22 19 40 18 40 -1 0 -15 -13 -31 -30z"/>
<path d="M830 8091 c0 -6 4 -13 10 -16 6 -3 7 1 4 9 -7 18 -14 21 -14 7z"/>
<path d="M8660 8096 c0 -2 8 -10 18 -17 15 -13 16 -12 3 4 -13 16 -21 21 -21
13z"/>
<path d="M8916 8083 c-6 -14 -5 -15 5 -6 7 7 10 15 7 18 -3 3 -9 -2 -12 -12z"/>
<path d="M10229 8053 c-13 -16 -12 -17 4 -4 9 7 17 15 17 17 0 8 -8 3 -21 -13z"/>
<path d="M2060 8056 c0 -2 8 -10 18 -17 15 -13 16 -12 3 4 -13 16 -21 21 -21
13z"/>
<path d="M2707 8049 c7 -7 15 -10 18 -7 3 3 -2 9 -12 12 -14 6 -15 5 -6 -5z"/>
<path d="M6600 7968 c-52 -50 -127 -122 -166 -159 -62 -60 -69 -72 -38 -68 4
0 11 -5 15 -13 6 -9 9 -9 9 -1 0 9 106 12 436 12 240 0 439 2 441 4 2 2 -32
37 -74 77 -43 40 -117 111 -165 157 -48 45 -90 83 -93 83 -4 0 -33 -20 -65
-45 -32 -25 -62 -45 -67 -45 -5 0 -35 20 -68 45 -33 25 -62 45 -65 45 -3 0
-48 -41 -100 -92z"/>
<path d="M829 8013 c-13 -16 -12 -17 4 -4 16 13 21 21 13 21 -2 0 -10 -8 -17
-17z"/>
<path d="M8669 8013 c-13 -16 -12 -17 4 -4 9 7 17 15 17 17 0 8 -8 3 -21 -13z"/>
<path d="M5515 7989 c-3 -4 2 -6 10 -5 21 3 28 13 10 13 -9 0 -18 -4 -20 -8z"/>
<path d="M8470 7976 c0 -2 7 -7 16 -10 8 -3 12 -2 9 4 -6 10 -25 14 -25 6z"/>
<path d="M9030 7976 c0 -2 7 -7 16 -10 8 -3 12 -2 9 4 -6 10 -25 14 -25 6z"/>
<path d="M2399 7923 c-13 -16 -12 -17 4 -4 16 13 21 21 13 21 -2 0 -10 -8 -17
-17z"/>
<path d="M10235 7899 c-4 -6 -5 -12 -2 -15 2 -3 7 2 10 11 7 17 1 20 -8 4z"/>
<path d="M10156 7892 c-3 -5 1 -9 9 -9 8 0 12 4 9 9 -3 4 -7 8 -9 8 -2 0 -6
-4 -9 -8z"/>
<path d="M2416 7873 c-77 -20 -138 -104 -138 -187 0 -75 38 -138 106 -173 73
-38 190 -2 238 74 36 59 33 147 -7 204 -45 63 -132 99 -199 82z m39 -69 c1
-25 -3 -34 -14 -34 -30 0 -43 16 -36 41 l6 24 -19 -24 c-14 -18 -21 -21 -27
-11 -9 15 23 43 41 36 6 -2 17 0 25 4 18 12 23 5 24 -36z m59 12 c18 -23 19
-28 6 -36 -34 -22 -50 -12 -50 31 0 46 12 48 44 5z m39 6 c10 -10 14 -22 10
-25 -12 -12 -20 -8 -31 18 -14 29 -2 33 21 7z m-180 -81 c-7 -40 -17 -51 -50
-51 -29 0 -31 32 -3 78 17 28 22 31 39 20 15 -9 18 -19 14 -47z m244 -2 c14
-33 5 -47 -31 -45 -26 1 -29 5 -33 40 -3 28 1 42 14 51 19 14 27 7 50 -46z
m-163 6 c12 -31 -1 -49 -37 -53 -39 -4 -44 5 -31 54 4 16 12 19 34 16 16 -2
31 -10 34 -17z m88 -2 c8 -36 -2 -50 -37 -51 -33 -1 -35 0 -35 31 0 30 3 33
34 35 25 2 35 -2 38 -15z m-171 -90 c0 -16 2 -35 4 -44 1 -8 -6 -21 -16 -27
-17 -11 -22 -8 -39 20 -11 18 -20 43 -20 56 0 19 5 22 35 22 31 0 35 -3 36
-27z m84 -5 c2 -23 -6 -34 -17 -26 -2 1 -13 -4 -24 -10 -19 -10 -23 -9 -28 11
-13 50 -8 58 31 55 33 -3 37 -6 38 -30z m87 -7 c-4 -38 -5 -39 -29 -30 -13 5
-29 7 -34 3 -5 -3 -9 11 -9 30 0 35 1 36 38 36 l38 0 -4 -39z m80 33 c9 -8 -9
-66 -25 -81 -8 -8 -21 -11 -31 -7 -16 6 -18 36 -7 92 2 5 58 2 63 -4z m-167
-111 c-1 -30 -5 -38 -20 -39 -22 0 -75 26 -75 38 0 19 20 15 35 -8 9 -14 19
-23 22 -21 2 3 -3 16 -12 30 -17 27 -11 35 31 36 17 1 20 -5 19 -36z m62 29
c9 -6 8 -16 -7 -40 -26 -43 -40 -40 -40 8 0 41 16 52 47 32z m44 -27 c0 -6
-10 -17 -22 -25 -13 -8 -21 -10 -18 -5 3 6 9 18 12 28 7 19 29 20 28 2z"/>
<path d="M10235 7819 c-4 -6 -5 -12 -2 -15 2 -3 7 2 10 11 7 17 1 20 -8 4z"/>
<path d="M8002 7808 c-18 -18 -15 -41 8 -61 12 -10 18 -23 14 -30 -4 -6 1 -4
11 5 17 16 17 18 -4 44 -16 20 -18 30 -10 40 14 17 -2 19 -19 2z"/>
<path d="M8319 7803 c-13 -16 -12 -17 4 -4 9 7 17 15 17 17 0 8 -8 3 -21 -13z"/>
<path d="M8087 7770 c-22 -26 -21 -36 3 -67 11 -14 18 -29 15 -33 -2 -3 2 -7
8 -7 20 0 20 54 1 61 -12 5 -15 14 -10 36 7 36 6 36 -17 10z"/>
<path d="M910 7770 c0 -5 5 -10 11 -10 5 0 7 5 4 10 -3 6 -8 10 -11 10 -2 0
-4 -4 -4 -10z"/>
<path d="M8309 7733 c-13 -16 -12 -17 4 -4 9 7 17 15 17 17 0 8 -8 3 -21 -13z"/>
<path d="M9910 7656 c0 -2 7 -7 16 -10 8 -3 12 -2 9 4 -6 10 -25 14 -25 6z"/>
<path d="M7874 7626 c-5 -14 -7 -52 -5 -96 2 -46 52 -109 107 -136 51 -25 121
-37 130 -22 3 4 13 8 23 8 22 0 98 64 106 89 5 16 46 37 66 33 6 -1 7 8 10 53
2 27 -28 68 -42 59 -5 -3 -12 2 -15 10 -5 14 -33 16 -190 16 -148 0 -186 -3
-190 -14z m411 -72 c0 -20 -6 -30 -19 -32 -14 -3 -17 0 -12 13 3 9 6 26 6 37
0 11 5 18 12 16 7 -3 13 -18 13 -34z"/>
<path d="M10076 7617 c3 -10 9 -15 12 -12 3 3 0 11 -7 18 -10 9 -11 8 -5 -6z"/>
<path d="M9100 7576 c0 -2 8 -10 18 -17 15 -13 16 -12 3 4 -13 16 -21 21 -21
13z"/>
<path d="M9185 7490 c-3 -6 1 -7 9 -4 18 7 21 14 7 14 -6 0 -13 -4 -16 -10z"/>
<path d="M2128 7469 c-27 -15 -21 -31 23 -66 53 -43 119 -128 156 -201 6 -13
43 23 43 41 0 32 -71 135 -129 190 -52 49 -64 53 -93 36z"/>
<path d="M8630 7426 c0 -2 8 -10 18 -17 15 -13 16 -12 3 4 -13 16 -21 21 -21
13z"/>
<path d="M2052 7395 c-139 -117 -16 -460 268 -742 105 -105 195 -165 259 -171
56 -5 147 33 180 75 19 24 20 27 4 56 -9 18 -44 60 -79 94 -70 71 -99 79 -140
38 -14 -14 -29 -25 -35 -25 -51 0 -150 89 -231 208 -91 135 -98 174 -38 222
47 37 49 56 15 110 -33 53 -139 160 -158 160 -9 0 -29 -11 -45 -25z"/>
<path d="M1156 7363 c-6 -14 -5 -15 5 -6 7 7 10 15 7 18 -3 3 -9 -2 -12 -12z"/>
<path d="M10236 7372 c-3 -5 1 -9 9 -9 8 0 12 4 9 9 -3 4 -7 8 -9 8 -2 0 -6
-4 -9 -8z"/>
<path d="M8365 7332 c-25 -23 -25 -23 -25 -223 0 -263 -13 -247 206 -249 88
-1 165 -1 172 -1 43 4 51 6 47 10 -3 2 3 9 11 16 10 7 18 29 20 53 1 23 5 46
8 51 4 5 2 12 -3 15 -5 3 -5 21 -1 41 4 19 5 35 1 35 -7 0 -6 118 2 126 3 3 2
16 -3 28 -4 13 -4 29 1 39 6 10 6 17 1 17 -11 0 -25 36 -23 60 0 10 -2 11 -5
3 -3 -8 -16 -10 -33 -7 -16 3 -101 7 -190 7 -156 2 -162 1 -186 -21z m243 -91
c24 -2 84 -70 92 -104 17 -76 -37 -156 -112 -164 -95 -11 -167 62 -153 155 7
47 37 92 62 92 7 0 13 4 13 9 0 11 26 18 60 15 14 -1 31 -2 38 -3z"/>
<path d="M8545 7177 c-16 -10 -20 -21 -17 -60 2 -37 -1 -47 -10 -41 -10 6 -11
5 -1 -8 7 -8 10 -18 6 -21 -15 -16 13 -5 62 23 48 28 85 67 50 54 -7 -3 -30 5
-49 18 -27 19 -33 27 -24 36 14 14 10 14 -17 -1z"/>
<path d="M10350 7329 c0 -5 5 -7 10 -4 6 3 10 8 10 11 0 2 -4 4 -10 4 -5 0
-10 -5 -10 -11z"/>
<path d="M10115 7219 c-4 -6 -5 -12 -2 -15 2 -3 7 2 10 11 7 17 1 20 -8 4z"/>
<path d="M10350 7226 c0 -2 8 -10 18 -17 15 -13 16 -12 3 4 -13 16 -21 21 -21
13z"/>
<path d="M10039 7203 c-13 -16 -12 -17 4 -4 9 7 17 15 17 17 0 8 -8 3 -21 -13z"/>
<path d="M9154 7136 c1 -8 5 -18 8 -22 4 -3 5 1 4 10 -1 8 -5 18 -8 22 -4 3
-5 -1 -4 -10z"/>
<path d="M10030 7146 c0 -2 8 -10 18 -17 15 -13 16 -12 3 4 -13 16 -21 21 -21
13z"/>
<path d="M10435 7139 c-4 -6 -5 -12 -2 -15 2 -3 7 2 10 11 7 17 1 20 -8 4z"/>
<path d="M8916 7123 c-6 -14 -5 -15 5 -6 7 7 10 15 7 18 -3 3 -9 -2 -12 -12z"/>
<path d="M10240 7130 c-9 -6 -10 -10 -3 -10 6 0 15 5 18 10 8 12 4 12 -15 0z"/>
<path d="M10235 7050 c3 -5 8 -10 11 -10 2 0 4 5 4 10 0 6 -5 10 -11 10 -5 0
-7 -4 -4 -10z"/>
<path d="M8990 6971 c0 -6 4 -13 10 -16 6 -3 7 1 4 9 -7 18 -14 21 -14 7z"/>
<path d="M8995 6901 c-3 -5 -2 -12 3 -15 5 -3 9 1 9 9 0 17 -3 19 -12 6z"/>
<path d="M10359 6883 c-13 -16 -12 -17 4 -4 9 7 17 15 17 17 0 8 -8 3 -21 -13z"/>
<path d="M1745 6876 c-96 -43 -131 -150 -81 -248 26 -52 67 -120 76 -128 3 -3
21 -24 39 -48 31 -39 35 -42 51 -27 9 8 20 12 24 8 4 -5 7 -3 6 2 -4 19 0 31
18 51 34 38 90 130 105 173 48 144 -100 279 -238 217z m116 -79 c38 -25 50
-59 36 -100 -20 -60 -99 -77 -142 -31 -43 47 -29 114 28 139 41 18 39 19 78
-8z"/>
<path d="M2616 6838 c-25 -14 -19 -42 15 -62 41 -24 136 -124 150 -158 6 -16
18 -28 25 -28 17 0 44 40 41 61 -6 38 -73 118 -132 159 -48 32 -76 41 -99 28z"/>
<path d="M3135 6801 c-3 -5 -2 -12 3 -15 5 -3 9 1 9 9 0 17 -3 19 -12 6z"/>
<path d="M9980 6776 c0 -2 8 -10 18 -17 15 -13 16 -12 3 4 -13 16 -21 21 -21
13z"/>
<path d="M10115 6739 c-4 -6 -5 -12 -2 -15 2 -3 7 2 10 11 7 17 1 20 -8 4z"/>
<path d="M8682 6714 c-112 -33 -174 -114 -176 -229 -1 -59 4 -73 67 -197 37
-73 70 -151 75 -173 l8 -40 95 -3 96 -3 12 54 c6 30 32 89 56 132 81 142 100
219 73 306 -34 117 -182 190 -306 153z"/>
<path d="M10070 6689 c0 -5 5 -7 10 -4 6 3 10 8 10 11 0 2 -4 4 -10 4 -5 0
-10 -5 -10 -11z"/>
<path d="M10150 6546 c0 -2 8 -10 18 -17 15 -13 16 -12 3 4 -13 16 -21 21 -21
13z"/>
<path d="M10230 6531 c0 -6 4 -13 10 -16 6 -3 7 1 4 9 -7 18 -14 21 -14 7z"/>
<path d="M2072 6367 c-21 -34 -32 -65 -30 -84 1 -16 -7 -43 -18 -59 -10 -16
-30 -51 -44 -79 -13 -27 -28 -53 -33 -56 -5 -3 -8 -10 -8 -15 1 -17 -23 -63
-31 -58 -4 3 -5 -2 -2 -10 5 -13 1 -15 -23 -10 -20 4 -33 1 -42 -10 -7 -9 -18
-13 -24 -9 -6 3 -7 1 -3 -5 9 -14 -55 -143 -67 -135 -6 3 -7 1 -4 -4 7 -11
-86 -207 -94 -199 -8 8 -3 -79 5 -92 13 -22 65 -43 100 -40 19 1 32 6 30 10
-3 4 -1 8 4 8 5 0 40 62 78 138 37 75 78 154 91 175 29 46 35 90 16 117 -13
19 -12 27 18 86 23 48 35 62 41 52 7 -9 8 -8 4 6 -8 23 47 134 80 161 13 11
33 44 44 73 l20 52 -32 20 c-18 11 -35 20 -38 20 -3 0 -20 -24 -38 -53z m-202
-450 c0 -18 -149 -309 -167 -327 -14 -13 -15 -11 -9 20 3 19 12 40 19 45 6 6
12 15 12 20 0 6 29 67 65 137 57 113 80 143 80 105z m70 -30 c0 -19 -99 -210
-113 -219 -7 -4 -9 -8 -4 -8 4 0 -5 -24 -19 -52 -32 -63 -30 -62 -43 -54 -11
7 3 48 25 76 7 8 14 22 15 30 2 8 31 66 63 128 55 104 76 132 76 99z"/>
<path d="M7952 6327 c-12 -6 -25 -20 -28 -31 -3 -12 -4 -170 -2 -353 3 -315 4
-333 22 -346 16 -12 64 -15 228 -15 186 0 211 2 231 18 22 18 22 19 22 360 0
341 0 342 -22 360 -20 16 -45 18 -225 18 -122 0 -212 -4 -226 -11z m367 -42
c16 -8 40 -29 53 -47 23 -32 23 -37 23 -280 0 -233 -1 -248 -21 -274 -46 -63
-63 -68 -202 -68 -140 0 -161 7 -205 68 -21 30 -22 41 -24 265 -2 261 2 281
59 324 26 21 47 27 98 29 110 5 189 -1 219 -17z"/>
<path d="M8118 6246 c-41 -27 -55 -63 -42 -113 30 -122 209 -91 199 34 -4 46
-16 67 -47 84 -37 20 -77 18 -110 -5z m103 -7 c30 -16 48 -66 38 -103 -16 -55
-79 -83 -129 -56 -57 30 -58 127 -3 159 24 14 69 14 94 0z"/>
<path d="M8151 6176 c-9 -11 -8 -18 4 -30 19 -19 27 -20 43 -4 7 7 8 17 1 30
-12 21 -32 23 -48 4z"/>
<path d="M7990 6250 c0 -5 5 -10 10 -10 6 0 10 5 10 10 0 6 -4 10 -10 10 -5 0
-10 -4 -10 -10z"/>
<path d="M8340 6250 c0 -5 5 -10 11 -10 5 0 7 5 4 10 -3 6 -8 10 -11 10 -2 0
-4 -4 -4 -10z"/>
<path d="M8092 5999 c-124 -62 -143 -225 -36 -318 38 -34 85 -46 150 -38 56 6
110 47 140 106 79 158 -94 329 -254 250z m151 -8 c64 -25 107 -97 102 -172 -6
-94 -78 -163 -169 -163 -65 0 -109 23 -143 75 -95 145 48 321 210 260z"/>
<path d="M8131 5869 c-10 -11 -18 -26 -17 -32 7 -41 20 -56 48 -63 27 -5 36
-2 55 20 19 22 21 31 12 53 -18 48 -64 58 -98 22z"/>
<path d="M436 6292 c-3 -5 1 -9 9 -9 8 0 12 4 9 9 -3 4 -7 8 -9 8 -2 0 -6 -4
-9 -8z"/>
<path d="M10230 6226 c0 -2 8 -10 18 -17 15 -13 16 -12 3 4 -13 16 -21 21 -21
13z"/>
<path d="M2293 6110 c-109 -48 -67 -223 52 -215 11 1 30 2 41 3 13 1 26 13 34
31 6 16 20 37 31 47 24 22 24 51 -1 91 -34 57 -91 73 -157 43z"/>
<path d="M8653 6043 c-6 -15 6 -35 16 -28 5 2 7 -6 5 -18 -14 -104 -14 -106
19 -121 58 -25 67 -26 111 -5 42 21 43 22 36 61 -4 22 -3 56 2 75 5 19 7 38 3
41 -12 13 -187 8 -192 -5z"/>
<path d="M2540 6003 c-117 -48 -138 -193 -38 -265 25 -17 46 -23 90 -23 48 0
62 5 95 31 53 43 70 109 44 169 -24 54 -71 87 -130 91 -25 2 -53 1 -61 -3z"/>
<path d="M2069 5893 c-13 -16 -12 -17 4 -4 9 7 17 15 17 17 0 8 -8 3 -21 -13z"/>
<path d="M2202 5885 c-38 -31 -58 -74 -71 -150 -20 -121 -30 -108 83 -107 71
0 101 5 107 14 22 39 67 88 91 98 27 12 27 13 12 42 -8 16 -16 44 -17 62 -2
32 -3 33 -43 28 -28 -3 -54 2 -84 17 -24 12 -45 21 -46 21 -1 0 -16 -11 -32
-25z"/>
<path d="M1467 5889 c7 -7 15 -10 18 -7 3 3 -2 9 -12 12 -14 6 -15 5 -6 -5z"/>
<path d="M9075 5810 c3 -5 8 -10 11 -10 2 0 4 5 4 10 0 6 -5 10 -11 10 -5 0
-7 -4 -4 -10z"/>
<path d="M1560 5770 c-9 -6 -10 -10 -3 -10 6 0 15 5 18 10 8 12 4 12 -15 0z"/>
<path d="M1315 5699 c-4 -6 -5 -12 -2 -15 2 -3 7 2 10 11 7 17 1 20 -8 4z"/>
<path d="M1430 5610 c0 -5 5 -10 11 -10 5 0 7 5 4 10 -3 6 -8 10 -11 10 -2 0
-4 -4 -4 -10z"/>
<path d="M7959 5394 c-18 -19 -40 -36 -48 -38 -9 -2 -28 -7 -43 -10 -36 -8
-55 -48 -52 -113 1 -29 2 -57 3 -62 0 -5 92 -9 214 -9 204 1 213 2 247 24 63
42 157 40 208 -5 19 -16 39 -18 147 -19 l125 0 0 69 c0 57 -4 72 -23 95 l-23
27 -220 -1 -219 0 -38 36 -38 37 -104 1 -104 1 -32 -33z"/>
<path d="M9950 5411 c0 -6 4 -13 10 -16 6 -3 7 1 4 9 -7 18 -14 21 -14 7z"/>
<path d="M1831 5380 c-161 -59 -265 -216 -257 -388 5 -92 28 -156 82 -228 13
-17 20 -35 16 -39 -4 -5 -2 -5 4 -2 6 3 22 -5 36 -17 25 -24 85 -59 103 -61 6
-1 9 -7 7 -15 -2 -10 0 -11 11 -2 10 8 16 9 24 1 17 -17 151 -14 214 4 108 32
193 109 246 223 23 51 27 72 28 155 0 90 -2 99 -38 171 -43 87 -98 142 -185
185 -75 37 -209 43 -291 13z m37 -249 c86 -93 97 -97 227 -77 111 16 129 15
133 -6 3 -18 -11 -24 -78 -32 -126 -15 -146 -19 -159 -31 -10 -10 -11 -18 -4
-27 20 -24 123 -210 123 -222 -1 -17 -25 18 -85 125 -30 53 -66 104 -80 113
-14 9 -25 22 -25 29 0 6 -25 37 -55 67 -73 74 -107 118 -100 130 13 21 32 8
103 -69z"/>
<path d="M599 5363 c-13 -16 -12 -17 4 -4 16 13 21 21 13 21 -2 0 -10 -8 -17
-17z"/>
<path d="M2774 5346 c1 -8 5 -18 8 -22 4 -3 5 1 4 10 -1 8 -5 18 -8 22 -4 3
-5 -1 -4 -10z"/>
<path d="M195 5330 c-3 -5 -1 -10 4 -10 6 0 11 5 11 10 0 6 -2 10 -4 10 -3 0
-8 -4 -11 -10z"/>
<path d="M387 5329 c7 -7 15 -10 18 -7 3 3 -2 9 -12 12 -14 6 -15 5 -6 -5z"/>
<path d="M9670 5332 c0 -5 7 -9 15 -9 8 0 12 4 9 9 -3 4 -9 8 -15 8 -5 0 -9
-4 -9 -8z"/>
<path d="M8919 5283 c-13 -16 -12 -17 4 -4 9 7 17 15 17 17 0 8 -8 3 -21 -13z"/>
<path d="M8990 5261 c-12 -12 -15 -49 -14 -181 1 -91 -1 -156 -4 -146 -2 11
-9 25 -16 32 -30 34 -34 42 -28 50 4 5 -1 2 -10 -5 -9 -7 -21 -10 -25 -8 -26
16 -6 -58 40 -151 54 -112 63 -125 87 -135 10 -3 6 -6 -9 -6 -24 -1 -24 -1
-16 -88 4 -49 7 -98 6 -110 -1 -25 -6 -24 142 -25 37 0 70 2 73 5 3 3 8 27 10
54 4 56 12 113 18 130 6 13 -28 46 -37 36 -10 -10 -9 -2 12 52 15 38 19 73 17
150 -1 99 -1 100 -26 101 -14 0 -35 6 -48 13 -16 8 -27 9 -36 2 -8 -7 -15 -4
-24 10 -12 19 -15 19 -36 6 l-23 -15 0 105 c-1 89 -4 107 -20 122 -17 16 -20
16 -33 2z"/>
<path d="M956 5257 c3 -10 9 -15 12 -12 3 3 0 11 -7 18 -10 9 -11 8 -5 -6z"/>
<path d="M8339 5166 c-82 -29 -115 -108 -80 -194 30 -71 141 -96 202 -45 119
100 23 289 -122 239z"/>
<path d="M7821 5130 c-4 -8 -7 -88 -6 -176 1 -187 8 -208 72 -218 21 -2 215
-4 431 -3 l394 2 24 28 c23 27 24 32 24 205 l0 177 -107 0 c-60 0 -109 -4
-111 -8 -2 -4 2 -24 8 -45 15 -56 12 -93 -11 -137 -75 -139 -262 -130 -323 16
-18 43 -18 93 1 136 7 18 13 34 13 35 0 2 -90 3 -201 3 -169 0 -202 -2 -208
-15z"/>
<path d="M516 5132 c-3 -5 1 -9 9 -9 8 0 12 4 9 9 -3 4 -7 8 -9 8 -2 0 -6 -4
-9 -8z"/>
<path d="M870 5130 c0 -5 5 -10 11 -10 5 0 7 5 4 10 -3 6 -8 10 -11 10 -2 0
-4 -4 -4 -10z"/>
<path d="M550 5096 c0 -2 7 -7 16 -10 8 -3 12 -2 9 4 -6 10 -25 14 -25 6z"/>
<path d="M10036 5043 c-6 -14 -5 -15 5 -6 7 7 10 15 7 18 -3 3 -9 -2 -12 -12z"/>
<path d="M10034 4976 c1 -8 5 -18 8 -22 4 -3 5 1 4 10 -1 8 -5 18 -8 22 -4 3
-5 -1 -4 -10z"/>
<path d="M9749 4933 c-13 -16 -12 -17 4 -4 9 7 17 15 17 17 0 8 -8 3 -21 -13z"/>
<path d="M9554 4899 c-3 -6 -2 -15 3 -20 5 -5 9 -1 9 11 0 23 -2 24 -12 9z"/>
<path d="M825 4890 c-3 -6 1 -7 9 -4 18 7 21 14 7 14 -6 0 -13 -4 -16 -10z"/>
<path d="M1474 4816 c1 -8 5 -18 8 -22 4 -3 5 1 4 10 -1 8 -5 18 -8 22 -4 3
-5 -1 -4 -10z"/>
<path d="M8913 4805 c0 -8 4 -12 9 -9 5 3 6 10 3 15 -9 13 -12 11 -12 -6z"/>
<path d="M10065 4770 c-3 -6 1 -7 9 -4 18 7 21 14 7 14 -6 0 -13 -4 -16 -10z"/>
<path d="M1469 4733 c-13 -16 -12 -17 4 -4 9 7 17 15 17 17 0 8 -8 3 -21 -13z"/>
<path d="M350 4731 c0 -6 4 -13 10 -16 6 -3 7 1 4 9 -7 18 -14 21 -14 7z"/>
<path d="M150 4691 c0 -6 4 -13 10 -16 6 -3 7 1 4 9 -7 18 -14 21 -14 7z"/>
<path d="M9390 4666 c0 -2 8 -10 18 -17 15 -13 16 -12 3 4 -13 16 -21 21 -21
13z"/>
<path d="M820 4656 c0 -2 8 -10 18 -17 15 -13 16 -12 3 4 -13 16 -21 21 -21
13z"/>
<path d="M1600 4650 c-9 -6 -10 -10 -3 -10 6 0 15 5 18 10 8 12 4 12 -15 0z"/>
<path d="M229 4613 c-13 -16 -12 -17 4 -4 9 7 17 15 17 17 0 8 -8 3 -21 -13z"/>
<path d="M829 4573 c-13 -16 -12 -17 4 -4 9 7 17 15 17 17 0 8 -8 3 -21 -13z"/>
<path d="M1430 4526 c7 -7 13 -7 20 0 6 6 3 10 -10 10 -13 0 -16 -4 -10 -10z"/>
<path d="M1507 4529 c7 -7 15 -10 18 -7 3 3 -2 9 -12 12 -14 6 -15 5 -6 -5z"/>
<path d="M8508 4522 c-16 -3 -17 -18 -15 -150 l2 -146 135 -1 c74 -1 140 0
146 2 17 6 -3 101 -32 150 -30 52 -67 88 -114 113 -44 22 -100 37 -122 32z"/>
<path d="M8376 4473 c-89 -26 -137 -69 -187 -163 -34 -66 -33 -175 3 -250 66
-140 201 -200 354 -159 98 26 204 155 204 248 l0 37 -145 -1 c-93 0 -145 3
-146 10 0 5 -2 73 -2 149 -2 157 0 153 -81 129z"/>
<path d="M2222 4450 c-34 -32 -60 -37 -94 -19 -29 16 -33 4 -8 -23 17 -18 21
-31 17 -66 -3 -24 -13 -53 -23 -65 -11 -12 0 -5 24 16 44 38 69 45 104 26 26
-14 33 -6 13 15 -25 24 -30 78 -11 114 9 18 15 32 14 32 -2 0 -18 -14 -36 -30z"/>
<path d="M470 4456 c0 -2 7 -7 16 -10 8 -3 12 -2 9 4 -6 10 -25 14 -25 6z"/>
<path d="M1680 4370 c-9 -6 -10 -10 -3 -10 6 0 15 5 18 10 8 12 4 12 -15 0z"/>
<path d="M1850 4350 c-6 -11 -8 -81 -6 -169 2 -83 1 -149 -4 -146 -4 2 -13 18
-20 34 -13 32 -31 44 -55 35 -23 -9 -18 -39 17 -111 17 -36 31 -72 31 -79 0
-7 4 -11 8 -9 4 3 9 -5 13 -18 3 -12 17 -34 31 -49 19 -21 22 -28 10 -28 -14
0 -20 -18 -15 -49 1 -8 5 -50 8 -94 l7 -81 90 1 c50 1 97 2 107 2 13 1 17 15
21 69 3 37 7 81 10 97 4 34 -9 69 -24 60 -5 -4 -9 1 -9 9 0 8 4 17 9 20 13 9
31 115 30 181 -1 82 -6 97 -33 93 -13 -1 -31 4 -40 12 -14 11 -22 11 -36 2
-14 -9 -19 -8 -24 3 -7 18 -37 20 -54 3 -9 -9 -12 7 -13 73 -1 46 -1 88 0 93
9 44 -40 81 -59 46z"/>
<path d="M1756 4297 c3 -10 9 -15 12 -12 3 3 0 11 -7 18 -10 9 -11 8 -5 -6z"/>
<path d="M2280 4306 c0 -2 8 -10 18 -17 15 -13 16 -12 3 4 -13 16 -21 21 -21
13z"/>
<path d="M10790 4288 c0 -4 4 -8 9 -8 6 0 12 4 15 8 3 5 -1 9 -9 9 -8 0 -15
-4 -15 -9z"/>
<path d="M9875 4251 c-3 -5 -2 -12 3 -15 5 -3 9 1 9 9 0 17 -3 19 -12 6z"/>
<path d="M3086 4232 c-3 -5 1 -9 9 -9 8 0 12 4 9 9 -3 4 -7 8 -9 8 -2 0 -6 -4
-9 -8z"/>
<path d="M9940 4096 c0 -2 8 -10 18 -17 15 -13 16 -12 3 4 -13 16 -21 21 -21
13z"/>
<path d="M9907 4049 c7 -7 15 -10 18 -7 3 3 -2 9 -12 12 -14 6 -15 5 -6 -5z"/>
<path d="M3256 3992 c-3 -5 1 -9 9 -9 8 0 12 4 9 9 -3 4 -7 8 -9 8 -2 0 -6 -4
-9 -8z"/>
<path d="M9470 3931 c0 -6 4 -13 10 -16 6 -3 7 1 4 9 -7 18 -14 21 -14 7z"/>
<path d="M1636 3892 c-3 -5 1 -9 9 -9 8 0 12 4 9 9 -3 4 -7 8 -9 8 -2 0 -6 -4
-9 -8z"/>
<path d="M9479 3868 c-5 -18 -6 -38 -1 -34 7 8 12 36 6 36 -2 0 -4 -1 -5 -2z"/>
<path d="M430 3811 c0 -6 4 -13 10 -16 6 -3 7 1 4 9 -7 18 -14 21 -14 7z"/>
<path d="M9395 3770 c3 -5 8 -10 11 -10 2 0 4 5 4 10 0 6 -5 10 -11 10 -5 0
-7 -4 -4 -10z"/>
<path d="M8265 3751 c-45 -11 -71 -31 -94 -72 -22 -38 -28 -113 -11 -124 6 -3
10 -15 10 -26 0 -10 5 -19 10 -19 6 0 10 -5 10 -11 0 -6 11 -25 25 -43 14 -18
22 -36 17 -41 -4 -5 -2 -6 3 -2 6 3 21 -10 34 -29 28 -40 32 -41 51 -13 8 11
25 33 37 47 13 15 23 31 23 35 0 5 6 5 13 1 6 -4 9 -3 4 1 -4 5 -1 18 6 29 30
46 49 115 43 151 -9 44 -57 101 -94 109 -15 4 -34 8 -42 10 -8 2 -28 1 -45 -3z
m82 -83 c33 -30 31 -80 -3 -107 -34 -27 -57 -26 -88 2 -36 32 -39 74 -6 107
26 26 68 25 97 -2z"/>
<path d="M2358 3732 c-35 -3 -38 -6 -38 -33 0 -16 -6 -29 -12 -30 -71 -5 -79
-14 -66 -71 17 -77 58 -137 113 -165 56 -30 106 -76 103 -97 -5 -30 -52 -61
-101 -65 -5 -1 -7 -9 -5 -18 3 -15 18 -18 121 -18 81 0 121 3 128 11 11 13
-16 34 -43 34 -22 0 -65 44 -62 63 3 22 36 51 96 82 72 38 128 128 128 206 0
26 -21 43 -46 38 -28 -5 -43 3 -39 19 7 38 -8 44 -126 46 -63 0 -131 0 -151
-2z m-32 -121 c3 -14 11 -52 19 -84 15 -68 4 -72 -37 -11 -30 45 -45 103 -28
114 22 14 41 6 46 -19z m357 20 c13 -1 -2 -61 -26 -104 -23 -42 -77 -85 -62
-51 16 41 35 117 35 144 0 15 5 19 23 16 12 -3 26 -5 30 -5z"/>
<path d="M1514 3696 c1 -8 5 -18 8 -22 4 -3 5 1 4 10 -1 8 -5 18 -8 22 -4 3
-5 -1 -4 -10z"/>
<path d="M1439 3683 c-13 -16 -12 -17 4 -4 9 7 17 15 17 17 0 8 -8 3 -21 -13z"/>
<path d="M10100 3696 c0 -2 8 -10 18 -17 15 -13 16 -12 3 4 -13 16 -21 21 -21
13z"/>
<path d="M9909 3653 c-13 -16 -12 -17 4 -4 9 7 17 15 17 17 0 8 -8 3 -21 -13z"/>
<path d="M540 3576 c0 -2 8 -10 18 -17 15 -13 16 -12 3 4 -13 16 -21 21 -21
13z"/>
<path d="M9635 3459 c-4 -6 -5 -12 -2 -15 2 -3 7 2 10 11 7 17 1 20 -8 4z"/>
<path d="M8033 3375 c0 -8 4 -15 9 -15 4 0 8 4 8 9 0 6 -4 12 -8 15 -5 3 -9
-1 -9 -9z"/>
<path d="M8709 3373 c-13 -16 -12 -17 4 -4 9 7 17 15 17 17 0 8 -8 3 -21 -13z"/>
<path d="M3974 3326 c1 -8 5 -18 8 -22 4 -3 5 1 4 10 -1 8 -5 18 -8 22 -4 3
-5 -1 -4 -10z"/>
<path d="M4235 3171 c-3 -5 -2 -12 3 -15 5 -3 9 1 9 9 0 17 -3 19 -12 6z"/>
<path d="M6513 3169 c-54 -13 -143 -73 -182 -122 -95 -121 -95 -319 0 -434
157 -192 461 -163 573 54 21 41 44 141 40 173 -11 83 -17 106 -38 149 -72 140
-239 217 -393 180z m171 -209 c163 -95 212 -128 203 -136 -13 -12 -425 -254
-433 -254 -2 0 -4 117 -4 261 0 157 4 259 9 257 5 -1 106 -59 225 -128z"/>
<path d="M4293 3145 c0 -8 4 -12 9 -9 5 3 6 10 3 15 -9 13 -12 11 -12 -6z"/>
<path d="M8980 3136 c0 -2 8 -10 18 -17 15 -13 16 -12 3 4 -13 16 -21 21 -21
13z"/>
<path d="M4196 3020 c-105 -38 -163 -89 -217 -190 -19 -37 -24 -60 -24 -130 0
-118 28 -176 138 -284 101 -99 123 -128 177 -235 l43 -83 51 98 c41 81 67 117
146 197 136 140 163 191 163 313 0 221 -259 391 -477 314z m223 -168 c87 -69
95 -197 17 -264 -45 -39 -78 -50 -137 -46 -139 10 -211 154 -134 270 54 82
177 102 254 40z"/>
<path d="M5773 3005 c0 -8 4 -12 9 -9 5 3 6 10 3 15 -9 13 -12 11 -12 -6z"/>
<path d="M7598 3004 c-16 -8 -28 -12 -28 -8 0 4 -9 -5 -20 -19 -18 -23 -25
-25 -77 -20 -49 4 -63 1 -93 -19 -19 -13 -43 -40 -53 -60 -12 -25 -30 -41 -56
-51 -79 -32 -119 -112 -99 -201 15 -68 65 -119 131 -132 12 -2 141 -5 287 -5
219 -2 271 1 302 14 20 8 40 12 44 9 4 -4 4 -2 0 5 -3 6 0 15 8 20 32 18 55
80 52 140 -2 50 -8 67 -45 121 -24 34 -47 62 -52 62 -6 0 -16 15 -24 33 -35
84 -100 127 -192 127 -32 -1 -70 -8 -85 -16z"/>
<path d="M8700 3016 c0 -2 8 -10 18 -17 15 -13 16 -12 3 4 -13 16 -21 21 -21
13z"/>
<path d="M4834 2992 c4 -3 14 -7 22 -8 9 -1 13 0 10 4 -4 3 -14 7 -22 8 -9 1
-13 0 -10 -4z"/>
<path d="M4975 2981 c-3 -5 -2 -12 3 -15 5 -3 9 1 9 9 0 17 -3 19 -12 6z"/>
<path d="M5215 2961 c-3 -5 -2 -12 3 -15 5 -3 9 1 9 9 0 17 -3 19 -12 6z"/>
<path d="M5333 2955 c0 -8 4 -12 9 -9 5 3 6 10 3 15 -9 13 -12 11 -12 -6z"/>
<path d="M5133 2945 c0 -8 4 -12 9 -9 5 3 6 10 3 15 -9 13 -12 11 -12 -6z"/>
<path d="M1310 2891 c0 -6 4 -13 10 -16 6 -3 7 1 4 9 -7 18 -14 21 -14 7z"/>
<path d="M5318 2812 c-17 -3 -23 -23 -19 -63 1 -10 -15 -24 -46 -37 -47 -20
-48 -20 -69 -1 -30 28 -56 23 -97 -19 -42 -43 -46 -66 -16 -98 19 -21 20 -24
5 -52 -9 -17 -16 -38 -16 -47 0 -11 -10 -15 -39 -15 -22 0 -43 -4 -46 -10 -9
-14 -10 -124 -1 -138 4 -7 22 -12 41 -12 31 0 36 -4 54 -46 17 -37 18 -49 8
-65 -6 -10 -15 -19 -19 -19 -21 0 -4 -50 30 -85 45 -47 63 -51 92 -20 l21 23
49 -21 c46 -19 49 -23 52 -61 l3 -41 73 -2 c78 -1 74 -5 75 63 1 16 13 27 48
42 47 19 48 19 65 1 28 -31 67 -24 107 20 38 42 40 66 7 96 -17 15 -17 18 3
66 20 46 23 49 59 49 31 0 39 4 43 23 4 18 2 90 -4 130 0 4 -18 7 -40 7 -36 0
-39 3 -55 43 -20 54 -20 60 4 82 26 23 18 49 -26 93 -38 37 -73 41 -92 11 -9
-14 -19 -18 -30 -13 -9 3 -33 12 -52 19 -30 11 -34 17 -35 49 -1 20 -4 39 -8
43 -8 7 -102 11 -129 5z m150 -292 c42 -31 66 -89 59 -141 -16 -121 -157 -175
-246 -94 -98 89 -57 236 74 265 38 8 75 -2 113 -30z"/>
<path d="M8466 2812 c-3 -5 1 -9 9 -9 8 0 12 4 9 9 -3 4 -7 8 -9 8 -2 0 -6 -4
-9 -8z"/>
<path d="M8240 2770 c-9 -6 -10 -10 -3 -10 6 0 15 5 18 10 8 12 4 12 -15 0z"/>
<path d="M1239 2723 c-13 -16 -12 -17 4 -4 9 7 17 15 17 17 0 8 -8 3 -21 -13z"/>
<path d="M1230 2666 c0 -2 8 -10 18 -17 15 -13 16 -12 3 4 -13 16 -21 21 -21
13z"/>
<path d="M3401 2639 l-24 -10 34 -24 c19 -13 44 -31 57 -40 26 -19 28 -35 7
-75 -19 -38 -35 -38 -90 0 -56 39 -65 38 -55 -4 19 -86 82 -146 161 -153 28
-2 58 -7 69 -11 10 -4 101 -87 202 -184 229 -221 238 -228 268 -228 36 0 51
13 56 48 4 27 -2 38 -45 83 -28 29 -51 57 -51 63 0 5 -3 7 -6 3 -4 -3 -12 -1
-19 6 -6 7 -81 77 -164 157 -84 80 -157 152 -162 162 -5 9 -12 40 -15 69 -4
30 -14 64 -23 76 -38 52 -142 84 -200 62z m424 -431 c68 -66 122 -125 118
-131 -3 -5 -2 -7 4 -4 9 6 62 -37 92 -75 11 -15 11 -21 1 -33 -7 -8 -18 -15
-24 -15 -6 0 -50 37 -98 83 -48 45 -130 122 -182 171 -67 62 -96 95 -96 111 0
27 17 36 42 23 10 -4 74 -63 143 -130z"/>
<path d="M2424 2572 c4 -3 14 -7 22 -8 9 -1 13 0 10 4 -4 3 -14 7 -22 8 -9 1
-13 0 -10 -4z"/>
<path d="M2555 2539 c-4 -6 -5 -12 -2 -15 2 -3 7 2 10 11 7 17 1 20 -8 4z"/>
<path d="M1915 2491 c-3 -5 -2 -12 3 -15 5 -3 9 1 9 9 0 17 -3 19 -12 6z"/>
<path d="M5884 2445 c-12 -8 -14 -59 -12 -280 l3 -270 210 0 210 0 3 269 c1
178 -1 273 -8 280 -14 14 -387 15 -406 1z m144 -112 c-10 -2 -28 -2 -40 0 -13
2 -5 4 17 4 22 1 32 -1 23 -4z m65 0 c-7 -2 -21 -2 -30 0 -10 3 -4 5 12 5 17
0 24 -2 18 -5z m50 0 c-7 -2 -19 -2 -25 0 -7 3 -2 5 12 5 14 0 19 -2 13 -5z
m-149 -21 c3 -5 -1 -9 -9 -9 -8 0 -12 4 -9 9 3 4 7 8 9 8 2 0 6 -4 9 -8z m66
-7 c0 -1 -12 -2 -26 -2 -17 0 -22 2 -13 7 10 7 39 3 39 -5z m65 -3 c-3 -3 -11
0 -18 7 -9 10 -8 11 6 5 10 -3 15 -9 12 -12z m85 7 c0 -4 -9 -7 -19 -6 -11 0
-18 4 -16 7 6 9 35 8 35 -1z m-227 -26 c-7 -2 -21 -2 -30 0 -10 3 -4 5 12 5
17 0 24 -2 18 -5z m110 0 c-18 -2 -48 -2 -65 0 -18 2 -4 4 32 4 36 0 50 -2 33
-4z m-123 -17 c0 -3 -4 -8 -10 -11 -5 -3 -10 -1 -10 4 0 6 5 11 10 11 6 0 10
-2 10 -4z m115 -6 c3 -5 1 -10 -4 -10 -6 0 -11 5 -11 10 0 6 2 10 4 10 3 0 8
-4 11 -10z m80 -8 c-3 -3 -11 0 -18 7 -9 10 -8 11 6 5 10 -3 15 -9 12 -12z
m-158 2 c-3 -3 -12 -4 -19 -1 -8 3 -5 6 6 6 11 1 17 -2 13 -5z m120 0 c-3 -3
-12 -4 -19 -1 -8 3 -5 6 6 6 11 1 17 -2 13 -5z m-139 -41 c-10 -2 -26 -2 -35
0 -10 3 -2 5 17 5 19 0 27 -2 18 -5z m130 0 c-21 -2 -55 -2 -75 0 -21 2 -4 4
37 4 41 0 58 -2 38 -4z m-142 -25 c-10 -6 -22 -6 -26 -2 -5 5 3 10 18 11 22 1
24 0 8 -9z m200 -1 c4 -3 -4 -4 -16 -2 -30 6 -40 16 -12 12 12 -2 24 -6 28
-10z m34 9 c0 -3 -4 -8 -10 -11 -5 -3 -10 -1 -10 4 0 6 5 11 10 11 6 0 10 -2
10 -4z m-64 -29 c4 -3 -45 -6 -107 -5 -63 1 -98 4 -79 7 45 8 178 6 186 -2z
m57 -4 c-7 -2 -21 -2 -30 0 -10 3 -4 5 12 5 17 0 24 -2 18 -5z m-23 -49 c0 -2
-57 -3 -127 -2 l-128 2 115 5 c108 6 140 4 140 -5z m-27 -21 c-40 -2 -106 -2
-145 0 -40 1 -8 3 72 3 80 0 112 -2 73 -3z m-186 -19 c-3 -3 -12 -4 -19 -1 -8
3 -5 6 6 6 11 1 17 -2 13 -5z m40 0 c-3 -3 -12 -4 -19 -1 -8 3 -5 6 6 6 11 1
17 -2 13 -5z m40 0 c-3 -3 -12 -4 -19 -1 -8 3 -5 6 6 6 11 1 17 -2 13 -5z m43
-3 c0 -5 -8 -15 -17 -22 -16 -13 -17 -12 -5 3 10 13 10 17 0 21 -8 4 -7 6 5 6
9 1 17 -3 17 -8z m47 3 c-3 -3 -12 -4 -19 -1 -8 3 -5 6 6 6 11 1 17 -2 13 -5z
m3 -20 c0 -8 -19 -13 -24 -6 -3 5 1 9 9 9 8 0 15 -2 15 -3z m68 -28 c3 -3 -57
-5 -134 -4 -119 1 -128 2 -59 7 91 7 184 5 193 -3z"/>
<path d="M4798 2439 c-37 -21 -40 -45 -18 -135 11 -47 20 -93 20 -102 0 -9
-25 22 -55 70 -46 71 -61 88 -87 94 -27 5 -36 2 -55 -20 -28 -32 -29 -56 -5
-83 22 -26 42 -32 69 -22 18 7 28 0 63 -41 42 -50 73 -118 105 -226 22 -74 42
-105 54 -85 5 7 7 32 4 55 l-5 41 23 -32 c23 -31 59 -45 59 -23 0 6 -27 63
-60 128 -51 100 -61 129 -66 189 -6 65 -5 71 14 77 38 12 46 90 13 111 -20 12
-56 14 -73 4z m32 -290 c0 -5 -4 -9 -10 -9 -5 0 -10 7 -10 16 0 8 5 12 10 9 6
-3 10 -10 10 -16z"/>
<path d="M7799 2403 c-13 -16 -12 -17 4 -4 16 13 21 21 13 21 -2 0 -10 -8 -17
-17z"/>
<path d="M8500 2416 c0 -2 8 -10 18 -17 15 -13 16 -12 3 4 -13 16 -21 21 -21
13z"/>
<path d="M7999 2363 c-13 -16 -12 -17 4 -4 16 13 21 21 13 21 -2 0 -10 -8 -17
-17z"/>
<path d="M7790 2346 c0 -2 8 -10 18 -17 15 -13 16 -12 3 4 -13 16 -21 21 -21
13z"/>
<path d="M8270 2346 c0 -2 8 -10 18 -17 15 -13 16 -12 3 4 -13 16 -21 21 -21
13z"/>
<path d="M8430 2346 c0 -2 8 -10 18 -17 15 -13 16 -12 3 4 -13 16 -21 21 -21
13z"/>
<path d="M8910 2346 c0 -2 8 -10 18 -17 15 -13 16 -12 3 4 -13 16 -21 21 -21
13z"/>
<path d="M3067 2329 c7 -7 15 -10 18 -7 3 3 -2 9 -12 12 -14 6 -15 5 -6 -5z"/>
<path d="M6637 2305 c-32 -29 -69 -32 -112 -9 l-30 15 21 -23 c45 -49 49 -79
18 -141 l-15 -32 21 27 c11 15 36 32 56 38 29 10 41 9 74 -8 l40 -19 -30 34
c-17 18 -31 38 -31 43 -1 6 -2 16 -3 23 -1 6 4 27 11 45 16 38 16 38 -20 7z"/>
<path d="M3070 2210 c0 -5 5 -10 11 -10 5 0 7 5 4 10 -3 6 -8 10 -11 10 -2 0
-4 -4 -4 -10z"/>
<path d="M7190 2216 c0 -2 7 -7 16 -10 8 -3 12 -2 9 4 -6 10 -25 14 -25 6z"/>
<path d="M3066 2128 c3 -5 10 -6 15 -3 13 9 11 12 -6 12 -8 0 -12 -4 -9 -9z"/>
<path d="M2676 2083 c-6 -14 -5 -15 5 -6 7 7 10 15 7 18 -3 3 -9 -2 -12 -12z"/>
<path d="M7390 2091 c0 -6 4 -13 10 -16 6 -3 7 1 4 9 -7 18 -14 21 -14 7z"/>
<path d="M2070 2051 c0 -6 4 -13 10 -16 6 -3 7 1 4 9 -7 18 -14 21 -14 7z"/>
<path d="M2275 2021 c-3 -5 -2 -12 3 -15 5 -3 9 1 9 9 0 17 -3 19 -12 6z"/>
<path d="M3680 1970 c-9 -6 -10 -10 -3 -10 6 0 15 5 18 10 8 12 4 12 -15 0z"/>
<path d="M8596 1857 c3 -10 9 -15 12 -12 3 3 0 11 -7 18 -10 9 -11 8 -5 -6z"/>
<path d="M3035 1851 c-3 -5 -2 -12 3 -15 5 -3 9 1 9 9 0 17 -3 19 -12 6z"/>
<path d="M8190 1849 c0 -5 5 -7 10 -4 6 3 10 8 10 11 0 2 -4 4 -10 4 -5 0 -10
-5 -10 -11z"/>
<path d="M8990 1851 c0 -6 4 -13 10 -16 6 -3 7 1 4 9 -7 18 -14 21 -14 7z"/>
<path d="M2076 1817 c3 -10 9 -15 12 -12 3 3 0 11 -7 18 -10 9 -11 8 -5 -6z"/>
<path d="M2915 1811 c-3 -5 -2 -12 3 -15 5 -3 9 1 9 9 0 17 -3 19 -12 6z"/>
<path d="M2993 1805 c0 -8 4 -12 9 -9 5 3 6 10 3 15 -9 13 -12 11 -12 -6z"/>
<path d="M8945 1810 c-3 -6 1 -7 9 -4 18 7 21 14 7 14 -6 0 -13 -4 -16 -10z"/>
<path d="M8475 1770 c-3 -5 -1 -10 4 -10 6 0 11 5 11 10 0 6 -2 10 -4 10 -3 0
-8 -4 -11 -10z"/>
<path d="M4315 1739 c-4 -6 -5 -12 -2 -15 2 -3 7 2 10 11 7 17 1 20 -8 4z"/>
<path d="M5147 1649 c7 -7 15 -10 18 -7 3 3 -2 9 -12 12 -14 6 -15 5 -6 -5z"/>
<path d="M5746 1648 c3 -5 10 -6 15 -3 13 9 11 12 -6 12 -8 0 -12 -4 -9 -9z"/>
<path d="M8355 1619 c-4 -6 -5 -12 -2 -15 2 -3 7 2 10 11 7 17 1 20 -8 4z"/>
<path d="M8550 1586 c0 -2 8 -10 18 -17 15 -13 16 -12 3 4 -13 16 -21 21 -21
13z"/>
<path d="M5389 1533 c-13 -16 -12 -17 4 -4 9 7 17 15 17 17 0 8 -8 3 -21 -13z"/>
<path d="M5076 1523 c-6 -14 -5 -15 5 -6 7 7 10 15 7 18 -3 3 -9 -2 -12 -12z"/>
<path d="M8995 1459 c-4 -6 -5 -12 -2 -15 2 -3 7 2 10 11 7 17 1 20 -8 4z"/>
<path d="M8920 1450 c-9 -6 -10 -10 -3 -10 6 0 15 5 18 10 8 12 4 12 -15 0z"/>
<path d="M4070 1426 c0 -2 8 -10 18 -17 15 -13 16 -12 3 4 -13 16 -21 21 -21
13z"/>
<path d="M5716 1363 c-6 -14 -5 -15 5 -6 7 7 10 15 7 18 -3 3 -9 -2 -12 -12z"/>
<path d="M2720 1330 c-9 -6 -10 -10 -3 -10 6 0 15 5 18 10 8 12 4 12 -15 0z"/>
<path d="M5150 1329 c0 -5 5 -7 10 -4 6 3 10 8 10 11 0 2 -4 4 -10 4 -5 0 -10
-5 -10 -11z"/>
<path d="M5904 1332 c4 -3 14 -7 22 -8 9 -1 13 0 10 4 -4 3 -14 7 -22 8 -9 1
-13 0 -10 -4z"/>
<path d="M3756 1297 c3 -10 9 -15 12 -12 3 3 0 11 -7 18 -10 9 -11 8 -5 -6z"/>
<path d="M3860 1296 c0 -2 8 -10 18 -17 15 -13 16 -12 3 4 -13 16 -21 21 -21
13z"/>
<path d="M2710 1256 c0 -2 7 -7 16 -10 8 -3 12 -2 9 4 -6 10 -25 14 -25 6z"/>
<path d="M2876 1217 c3 -10 9 -15 12 -12 3 3 0 11 -7 18 -10 9 -11 8 -5 -6z"/>
<path d="M6679 1148 c-5 -18 -6 -38 -1 -34 7 8 12 36 6 36 -2 0 -4 -1 -5 -2z"/>
<path d="M4350 1131 c0 -6 4 -13 10 -16 6 -3 7 1 4 9 -7 18 -14 21 -14 7z"/>
<path d="M6153 1125 c0 -8 4 -12 9 -9 5 3 6 10 3 15 -9 13 -12 11 -12 -6z"/>
<path d="M6555 1059 c-4 -6 -5 -12 -2 -15 2 -3 7 2 10 11 7 17 1 20 -8 4z"/>
<path d="M5159 1043 c-13 -16 -12 -17 4 -4 9 7 17 15 17 17 0 8 -8 3 -21 -13z"/>
<path d="M6593 1005 c0 -8 4 -12 9 -9 5 3 6 10 3 15 -9 13 -12 11 -12 -6z"/>
<path d="M4995 890 c3 -5 8 -10 11 -10 2 0 4 5 4 10 0 6 -5 10 -11 10 -5 0 -7
-4 -4 -10z"/>
<path d="M6556 643 c-6 -14 -5 -15 5 -6 7 7 10 15 7 18 -3 3 -9 -2 -12 -12z"/>
<path d="M6356 572 c-3 -5 1 -9 9 -9 8 0 12 4 9 9 -3 4 -7 8 -9 8 -2 0 -6 -4
-9 -8z"/>
<path d="M6550 572 c0 -5 7 -9 15 -9 8 0 12 4 9 9 -3 4 -9 8 -15 8 -5 0 -9 -4
-9 -8z"/>
</g>
</svg>
